<svg width="556" height="251" viewBox="0 0 556 251" fill="none" xmlns="http://www.w3.org/2000/svg">
<g clip-path="url(#clip0_11_16509)">
<path d="M0.0602553 178.444V21.6712H4.88651V28.8565H14.7114V25.4056H9.98855V21.7289H4.81756V18.1049H0.00854492V14.5135H4.91754V10.7516H9.87823V7.24422H14.8234V14.3819H10.0661V18.0297H19.9306V25.2175H24.8051V21.8042H29.8762V14.3844H34.8541V17.9808H39.7131V21.6399H35.0868V25.2526H44.8358V18.1626L45.1702 18.1501L45.4994 18.1388L45.8235 18.1262L46.1424 18.115L46.4578 18.1024L46.7698 18.0911L47.08 18.0798L47.3868 18.0686L47.6937 18.0573L47.9987 18.046L48.3056 18.0347L48.6124 18.0234L48.9209 18.0121L49.2329 18.0008L49.5466 17.9896L49.8637 17.977V14.511H55.0123V10.7491H59.9868V17.9858H70.0047V21.6286H79.9641L79.9796 21.8719L79.9951 22.1101C79.9951 22.1879 80.0054 22.2669 80.0106 22.3434L80.0261 22.5754C80.0261 22.6518 80.0365 22.7271 80.0399 22.8023C80.0434 22.8776 80.0502 22.9541 80.0554 23.028L79.9865 23.2588C79.9865 23.3328 79.9951 23.4067 80.0003 23.4795C80.0054 23.5522 80.0106 23.6274 80.014 23.7002L80.0296 23.9209C80.0296 23.9936 80.0382 24.0676 80.0434 24.1403L80.0589 24.3598C80.0589 24.4338 80.0675 24.5065 80.0727 24.5805C80.0778 24.6545 80.083 24.7284 80.0864 24.8024L80.102 25.0244C80.102 25.0996 80.1123 25.1749 80.1157 25.2501H84.8834V18.204H89.9061L89.9217 18.4096C89.9217 18.4786 89.9303 18.5476 89.9354 18.6165L89.951 18.8222L89.9665 19.0304C89.9665 19.0993 89.9768 19.1683 89.9803 19.2385L89.9958 19.4467L90.0113 19.6561L90.0268 19.8668L90.0423 20.0787L90.0578 20.2931C90.0578 20.3633 90.063 20.4348 90.0733 20.5075L90.0889 20.7232L90.1044 20.9414C90.1044 21.0142 90.1147 21.0869 90.1216 21.1609L90.1371 21.3828L90.1526 21.606H94.9203V18.0259H100.091V21.6712H105.102V25.2075H109.897V21.7289H105.023V18.0836H100.012V14.5486H109.949L109.964 14.7555C109.964 14.8245 109.973 14.8947 109.978 14.9637L109.994 15.1706L110.009 15.3788L110.025 15.5869L110.04 15.7963L110.056 16.0058L110.071 16.2177L110.087 16.4296L110.102 16.6428L110.118 16.8572C110.118 16.9287 110.13 17.0014 110.135 17.0729L110.151 17.2911L110.166 17.5105C110.166 17.5845 110.178 17.6585 110.183 17.7325C110.188 17.8065 110.194 17.8817 110.201 17.957H114.944V14.5562H120.148V21.7302H115.287V25.2187H120.069V23.2224C120.069 23.1484 120.069 23.0744 120.069 23.0005V21.6725H125.146V25.3153H130.157V28.8528H134.952V25.373H130.074V21.7289H125.064V18.1388H135.035V14.4483H140.172V25.2024H145.17V18.1802H155.167V21.7515H165.199V25.3341H170.325V32.4968H175.11V25.3905H170.17V21.7966H165.042L165.058 21.5772C165.058 21.5032 165.07 21.4305 165.075 21.3565C165.08 21.2825 165.087 21.2098 165.092 21.1358C165.097 21.0618 165.103 20.9891 165.11 20.9151C165.116 20.8411 165.12 20.7671 165.127 20.6931C165.134 20.6192 165.137 20.5439 165.144 20.4699C165.151 20.3959 165.154 20.3207 165.161 20.2455C165.168 20.1702 165.172 20.0962 165.178 20.0197C165.185 19.9433 165.191 19.8693 165.196 19.7928C165.201 19.7163 165.208 19.641 165.213 19.5646C165.218 19.4881 165.225 19.4116 165.232 19.3338C165.239 19.2561 165.244 19.1796 165.249 19.1006C165.254 19.0216 165.261 18.9451 165.268 18.8661C165.275 18.7871 165.28 18.7081 165.287 18.6291C165.294 18.5501 165.299 18.4686 165.306 18.3883C165.313 18.3081 165.318 18.2266 165.325 18.1451L165.621 18.135L165.916 18.125L166.209 18.1137L166.502 18.1037L166.797 18.0936L167.09 18.0836L167.385 18.0723L167.681 18.0623L167.979 18.0523L168.281 18.041L168.584 18.0309L168.891 18.0197L169.202 18.0084L169.515 17.9971L169.836 17.9858L170.16 17.9745V14.3881H175.022V10.798H170.16V7.19155H175.079C175.079 7.11004 175.091 7.02979 175.096 6.94953L175.112 6.71253C175.112 6.63478 175.122 6.55579 175.129 6.47929L175.145 6.24856L175.16 6.02159C175.16 5.94635 175.169 5.87111 175.174 5.79587L175.189 5.57267L175.205 5.35197L175.221 5.13127C175.221 5.05728 175.221 4.98455 175.234 4.91182L175.25 4.69237L175.265 4.47293C175.265 4.39894 175.274 4.32621 175.279 4.25223L175.295 4.03153L175.31 3.80957L175.326 3.58636H180.073V7.0486H185.283V10.7955H180.412V21.5722H185.204V10.7378H190.154V21.6712H195.287V25.2075H200.084V21.7289H195.21V14.5511H205.257V25.2576H210.188V18.1864H215.215V25.1937H220.239V18.1714H225.164V21.5571H230.202L230.217 21.3502C230.217 21.2825 230.228 21.2135 230.231 21.1446L230.247 20.9377L230.262 20.7295C230.262 20.6605 230.271 20.5903 230.276 20.5213L230.292 20.3107L230.307 20.1L230.323 19.8868C230.323 19.8166 230.323 19.7451 230.336 19.6736L230.352 19.4567L230.367 19.2398C230.367 19.1658 230.379 19.0931 230.385 19.0191L230.4 18.7971L230.416 18.5714C230.416 18.4962 230.426 18.4209 230.433 18.3444L230.448 18.1137H235.221V7.15895H240.378V18.0761H255.374V21.6098H260.419V14.5875H265.616V14.5812V14.575V14.5687V14.5624V15.1982C265.616 15.2684 265.616 15.3399 265.616 15.4114V18.0297H280.629V21.5672H285.564V18.0297H290.506V14.4721H300.676V10.7491H305.75V14.2891H315.715V10.9297H320.437V17.9444H325.469V10.9159H330.5V17.962H335.433V14.3844H360.633C360.633 14.4634 360.633 14.5424 360.633 14.6214V14.8571V15.0941V15.3311V15.5669C360.633 15.6459 360.633 15.7249 360.633 15.8039V16.0409V16.2766V16.5136V16.7506V16.9876V17.2234C360.633 17.3024 360.633 17.3814 360.633 17.4604V17.6974C360.633 17.7764 360.633 17.8554 360.633 17.9344V18.1714H355.635V25.2651H360.557V18.1175H360.869H361.181H361.493H361.807H362.119H362.431H362.745H363.057H363.369H363.682H363.994H364.306H364.618H364.932H365.244H365.556V28.9443H370.427V25.4445H375.35V21.7791H370.656V18.0961H365.485V14.3844H375.417C375.417 14.4634 375.417 14.5411 375.431 14.6189L375.446 14.8496C375.446 14.9261 375.446 15.0026 375.46 15.0778L375.476 15.3035C375.476 15.3788 375.476 15.454 375.489 15.528C375.503 15.602 375.489 15.676 375.503 15.75C375.517 15.8239 375.514 15.8979 375.517 15.9719C375.52 16.0459 375.527 16.1199 375.531 16.1926L375.546 16.4146C375.546 16.4873 375.546 16.5613 375.56 16.6353C375.574 16.7092 375.56 16.782 375.574 16.8572C375.588 16.9325 375.582 17.0052 375.588 17.0792L375.601 17.3036L375.617 17.5293C375.617 17.6046 375.626 17.6811 375.631 17.7576L375.646 17.9883H380.433V25.2187H385.466V21.8029H390.532V18.0334H395.627V21.6788H400.638V25.3153H415.659V28.8528H420.455V25.373H415.58V22.8312C415.58 22.7534 415.58 22.6769 415.58 22.5992V21.9057C415.58 21.8292 415.58 21.7515 415.58 21.675H420.568V14.5273H425.5V18.0134H440.749V25.3905H445.703V28.8728H450.746V25.3178H455.595V21.8368H450.825V25.3755H450.501H450.176H449.85H449.524H449.198H448.873H448.549H448.223H447.897H447.571H447.245H446.92H446.594H446.268H445.942H445.615V24.1215C445.615 23.9735 445.615 23.8256 445.615 23.6789V20.9828C445.615 20.8311 445.615 20.6781 445.615 20.5251V18.1726H455.688V14.5361H460.718V17.967H465.861V21.7289H460.999V25.2175H465.782V21.6725H470.749V18.0786H486.009V10.6801H486L485.992 10.6864H485.983H495.906C495.906 10.7641 495.906 10.8406 495.906 10.9184V12.0745C495.906 12.151 495.906 12.2288 495.906 12.3053V12.5373C495.906 12.6138 495.906 12.6915 495.906 12.768V13.2307C495.906 13.3085 495.906 13.385 495.906 13.4627V13.6934C495.906 13.7699 495.906 13.8477 495.906 13.9242V14.3869H491.042V17.9733H495.906V21.6186H500.917V25.1548H505.714V21.7289H500.839V18.0836H495.829V16.2365C495.829 16.16 495.829 16.0823 495.829 16.0058V15.7738C495.829 15.6973 495.829 15.6195 495.829 15.543V15.3111C495.829 15.2346 495.829 15.1568 495.829 15.0803V14.8446C495.829 14.7681 495.829 14.6903 495.829 14.6138C495.829 14.5374 495.829 14.4596 495.829 14.3819H500.827V10.7453H501.458H502.089H502.72H503.351H503.98H504.611H505.241H505.872H506.503H507.134H507.763H508.394H509.025H509.656H510.287H510.916V14.3555H515.814V18.0034H511.161V21.6524H515.832L515.847 21.8944C515.847 21.9747 515.859 22.0537 515.864 22.1327L515.88 22.3672L515.895 22.5979L515.911 22.8261C515.911 22.9026 515.921 22.9766 515.926 23.0519L515.942 23.2751L515.958 23.497L515.973 23.7165C515.973 23.7892 515.982 23.8632 515.987 23.9359L516.002 24.1541L516.016 24.3723L516.032 24.5918L516.047 24.8112L516.063 25.0319C516.063 25.1059 516.071 25.1799 516.076 25.2539H520.867V18.0949H526.017V21.7051H530.929C530.929 21.7866 530.941 21.8669 530.948 21.9471C530.955 22.0274 530.96 22.1064 530.965 22.1854C530.971 22.2644 530.977 22.3421 530.983 22.4199C530.988 22.4976 530.995 22.5741 531 22.6506L531.017 22.8776C531.017 22.9541 531.029 23.0293 531.034 23.1033C531.04 23.1773 531.045 23.2525 531.052 23.3265L531.067 23.5484C531.067 23.6224 531.079 23.6952 531.084 23.7691L531.1 23.9886C531.1 24.0613 531.112 24.134 531.117 24.2068L531.133 24.4262C531.133 24.499 531.145 24.5717 531.15 24.6457L531.165 24.8651C531.165 24.9391 531.177 25.0131 531.183 25.0871C531.188 25.1611 531.193 25.235 531.2 25.3103H535.957V21.764H540.956C540.956 21.6825 540.968 21.601 540.973 21.522C540.978 21.443 540.985 21.3615 540.992 21.2838C540.999 21.206 541.002 21.127 541.009 21.0493C541.016 20.9715 541.021 20.895 541.026 20.8185C541.032 20.742 541.037 20.6655 541.044 20.5903L541.059 20.3646C541.059 20.2906 541.071 20.2154 541.076 20.1414C541.082 20.0674 541.089 19.9934 541.094 19.9207L541.109 19.7C541.109 19.6273 541.121 19.5533 541.126 19.4805L541.142 19.2623C541.142 19.1884 541.154 19.1156 541.159 19.0429L541.175 18.8235C541.175 18.7507 541.187 18.6767 541.192 18.604L541.207 18.3821C541.207 18.3081 541.219 18.2341 541.225 18.1588H545.984V21.7063H556.133V178.444H0.0602553ZM285.475 32.488H290.327V28.8891H295.325V25.5159H290.396V28.9518H290.084H289.77H289.458H289.146H288.832H288.52H288.208H287.895H287.583H287.271H286.959H286.645H286.333H286.021H285.707H285.395V25.4921H280.621V28.9606H285.483V32.488H285.475ZM305.412 25.2288H310.463V21.6725H315.309V18.1927H310.542V21.7302H310.216H309.89H309.566H309.24H308.915H308.589H308.263H307.939H307.613H307.288H306.962H306.636H306.312H305.986H305.66H305.335C305.335 21.6574 305.335 21.5835 305.335 21.5095V21.2888C305.335 21.2148 305.335 21.1408 305.335 21.0668V20.8449C305.335 20.7709 305.335 20.6969 305.335 20.6229V19.9495C305.335 19.8743 305.335 19.799 305.335 19.7238V18.0936H300.698V21.754H305.419V25.235L305.412 25.2288ZM240.316 21.8493H235.519V25.3291H240.394V32.4918H245.179V25.3905H240.316V21.8493ZM335.718 21.7853V28.9017H340.447V25.4495L340.792 25.4369L341.121 25.4256L341.445 25.4144L341.764 25.4018L342.078 25.3905L342.39 25.3792L342.698 25.368L343.004 25.3579L343.309 25.3466L343.61 25.3354L343.914 25.3241L344.215 25.314L344.519 25.3028L344.822 25.2915L345.127 25.2802L345.43 25.2651V21.7853H335.721H335.718ZM190.058 32.5608V29.1111H180.359V32.5608H190.058ZM476.048 21.7427V25.2125H480.679V21.7427H476.048ZM54.84 21.8518H50.1309V25.2375H54.84V21.8518ZM541.095 28.8503H545.803V25.4645H541.095V28.8503ZM486 25.4382V28.8377H490.671V25.4382H486ZM435.55 28.9017V25.4796H430.897V28.9017H435.55ZM325.324 28.9017V25.4796H320.67V28.9017H325.324ZM465.944 29.091V32.4906H470.644V29.0935H465.944V29.091ZM305.583 36.1584H310.345V32.8028H305.583V36.161V36.1584ZM210.142 36.1961V32.7978H205.469V36.1961H210.142ZM125.057 32.789H120.286V36.1158H125.057V32.789ZM114.991 36.4067H110.228V39.7649H114.991V36.4118V36.4067ZM85.1264 39.8113H89.8889V36.4481H85.1264V39.8113Z" fill="#11448D"/>
<path d="M556 14.4157H551.174V18.061H556V14.4157Z" fill="#11448D"/>
<path d="M265.354 10.793V7.17904H260.528C260.528 7.09628 260.516 7.01603 260.511 6.93577C260.506 6.85552 260.499 6.77652 260.494 6.69752C260.489 6.61852 260.482 6.54077 260.476 6.46302L260.461 6.23104C260.461 6.15454 260.449 6.07931 260.444 6.00282L260.428 5.7771L260.413 5.55389L260.397 5.33194L260.382 5.11249L260.366 4.89304L260.351 4.6736L260.335 4.4554L260.32 4.23721L260.304 4.01777C260.304 3.94378 260.292 3.8698 260.287 3.79706L260.282 3.57135H255.586V10.7316H265.442L265.354 10.793Z" fill="#11448D"/>
<path d="M390.62 14.4446H395.631V18.0887H400.719C400.719 17.9357 400.719 17.7827 400.719 17.6297V17.1707V16.7118V16.2528V15.7939V15.3349C400.719 15.1819 400.719 15.029 400.719 14.876V14.417V13.9581V13.4991V13.0401V12.5812C400.719 12.4282 400.719 12.2752 400.719 12.1222V11.6633V11.2043V10.7454H390.628V14.3819L390.62 14.4446Z" fill="#11448D"/>
<path d="M525.898 18.0372H535.775V14.5123L535.488 14.501L535.204 14.4897L534.918 14.4784L534.63 14.4672L534.342 14.4546L534.053 14.4433L533.763 14.432L533.47 14.4208L533.174 14.4082L532.877 14.3969L532.577 14.3844L532.274 14.3731L531.967 14.3606L531.658 14.348L531.345 14.3355L531.028 14.3229V10.9184H525.977V18.0949V18.0886L525.898 18.0372Z" fill="#11448D"/>
<path d="M265.434 10.7353V10.9723V11.2093C265.434 11.2883 265.434 11.3673 265.434 11.4463V11.682C265.434 11.761 265.434 11.84 265.434 11.919V12.156V12.393C265.434 12.4721 265.434 12.551 265.434 12.63V12.8671C265.434 12.9461 265.434 13.0251 265.434 13.1041V13.3411C265.434 13.4201 265.434 13.4991 265.434 13.5781V13.8151C265.434 13.8941 265.434 13.9731 265.434 14.0521V14.2891C265.434 14.3681 265.434 14.4471 265.434 14.5261V14.5198V14.5135H275.222V10.8394H265.335L265.434 10.7353Z" fill="#11448D"/>
<path d="M240.299 7.1013H250.16V3.61273H240.379V7.15898L240.299 7.1013Z" fill="#11448D"/>
<path d="M140.092 14.3919H149.953V10.9033H140.172V14.4483H140.163L140.092 14.3919Z" fill="#11448D"/>
<path d="M24.8655 14.4445H29.952V7.26929H24.8655V14.4445Z" fill="#11448D"/>
<path d="M550.817 7.23169H541.089V10.6325H550.817V7.23169Z" fill="#11448D"/>
<path d="M435.6 7.2179H430.947V10.6425H435.6V7.2179Z" fill="#11448D"/>
<path d="M400.631 10.7466H405.492V7.258H400.71V10.8042V10.798H400.702L400.631 10.7466Z" fill="#11448D"/>
<path d="M385.521 10.6601V7.27435H380.814V10.6601H385.521Z" fill="#11448D"/>
<path d="M360.442 10.8657V7.22919H355.803V10.8156H360.528H360.519L360.442 10.8657Z" fill="#11448D"/>
<path d="M305.442 10.7466H310.302V7.258H305.521V10.8042V10.798L305.442 10.7466Z" fill="#11448D"/>
<path d="M300.443 10.8055V7.26929H295.648V10.7478H300.52V10.7541L300.443 10.8055Z" fill="#11448D"/>
<path d="M225.271 10.793V7.26678H220.488V10.7353H225.35L225.271 10.793Z" fill="#11448D"/>
<path d="M210.421 7.25677V10.6764H215.092V7.25677H210.421Z" fill="#11448D"/>
<path d="M130.092 10.7378H134.939V7.25677H130.171V10.7955L130.092 10.7378Z" fill="#11448D"/>
<path d="M115.12 7.15894H110.273V10.64H115.041V7.10126L115.12 7.15894Z" fill="#11448D"/>
<path d="M104.935 10.64V7.2204H100.264V10.64H104.935Z" fill="#11448D"/>
<path d="M84.9852 10.793V7.15643H79.9866V10.793H84.9852Z" fill="#11448D"/>
<path d="M54.9332 10.8068V7.26929H50.1362V10.7478H55.0107V10.7541H55.0021L54.9332 10.8068Z" fill="#11448D"/>
<path d="M4.83479 10.8068V7.26929H0.0378418V10.7478H4.91236V10.7541L4.83479 10.8068Z" fill="#11448D"/>
<path d="M480.876 10.8043H476.027V14.2841H480.797V10.7466L480.876 10.8043Z" fill="#11448D"/>
<path d="M470.658 10.808H466.028V14.2778H470.658V10.808Z" fill="#11448D"/>
<path d="M360.557 14.4446H365.646V10.8619H360.447H360.456C360.456 10.9384 360.456 11.0137 360.456 11.0902C360.456 11.1667 360.456 11.2419 360.456 11.3171C360.456 11.3924 360.456 11.4689 360.456 11.5441C360.456 11.6193 360.456 11.6958 360.456 11.7723C360.456 11.8488 360.456 11.9228 360.456 11.9993V12.2263C360.456 12.3015 360.456 12.378 360.456 12.4532C360.456 12.5285 360.456 12.605 360.456 12.6802C360.456 12.7554 360.456 12.8319 360.456 12.9072V13.3611C360.456 13.4376 360.456 13.5128 360.456 13.5893C360.456 13.6658 360.456 13.7398 360.456 13.8163V14.2702C360.556 14.2928 360.557 14.3681 360.557 14.4446Z" fill="#11448D"/>
<path d="M225.35 10.7353V14.2728H230.147V10.793H225.272V10.7867H225.281L225.35 10.7353Z" fill="#11448D"/>
<path d="M170.243 14.4446V10.7429H165.384V14.4446H170.243Z" fill="#11448D"/>
<path d="M155.311 10.9021V14.3204H159.982V10.9021H155.311Z" fill="#11448D"/>
<path d="M130.171 10.7955H125.309V14.284H130.092V10.7378L130.171 10.7955Z" fill="#11448D"/>
<path d="M85.0609 10.7353V14.2728H89.8562V10.793H84.9851L84.9937 10.7867L85.0609 10.7353Z" fill="#11448D"/>
<path d="M74.8276 10.8682H70.1272V14.2678H74.8276V10.8682Z" fill="#11448D"/>
<path d="M40.1562 14.3442H44.7722V10.8782H40.1562V14.3442Z" fill="#11448D"/>
<path d="M405.65 18.0886H410.738V14.5549H405.65V18.0886Z" fill="#11448D"/>
<path d="M495.837 10.7993H500.926V7.16272H495.843V7.39345V7.62418V7.85491V8.0869V8.31763V8.54836V8.7791C495.843 8.85684 495.843 8.93333 495.843 9.00983V9.24181V9.47255V9.70328V9.93401V10.1647V10.3955V10.6275L495.837 10.7993Z" fill="#11448D"/>
<path d="M390.697 18.0886V14.3881H385.838V18.0886H390.697Z" fill="#11448D"/>
<path d="M280.392 18.0886H285.48V14.5549H280.392V18.0886Z" fill="#11448D"/>
<path d="M29.9675 0V3.32806H34.7386V0H29.9675Z" fill="#11448D"/>
<path d="M19.855 18.0886H24.9432V14.3881H19.855V18.0886Z" fill="#11448D"/>
<path d="M410.661 18.0322V21.734H415.756V18.0322H410.668H410.661Z" fill="#11448D"/>
<path d="M495.843 7.16149V3.62402H491.047V7.10381H495.922L495.843 7.16149Z" fill="#11448D"/>
<path d="M400.641 18.0322V21.734H405.728V18.0322H400.641Z" fill="#11448D"/>
<path d="M480.69 7.22168V3.58514H476.053V7.17152H480.776H480.767V7.17779H480.759L480.69 7.22168Z" fill="#11448D"/>
<path d="M200.417 7.03356H205.071V3.60895H200.417V7.03356Z" fill="#11448D"/>
<path d="M115.041 7.1013H119.903V3.61273H115.12V7.15898L115.041 7.1013Z" fill="#11448D"/>
<path d="M79.9867 7.16149V3.62402H75.188V7.10381H80.0625H80.0539L79.9867 7.16149Z" fill="#11448D"/>
<path d="M510.859 10.7466H515.728V7.258H510.947V10.8042V10.798H510.938L510.859 10.7466Z" fill="#11448D"/>
<path d="M480.797 10.7466H481.122H481.446H481.772H482.098H482.424H482.749H483.075H483.399H483.725H484.051H484.377H484.702H485.028H485.354H485.68H486.007H485.999V10.7529H485.99H485.981C485.981 10.6839 485.981 10.6137 485.981 10.5447V9.91774C485.981 9.84752 485.981 9.7773 485.981 9.70707V7.21667H480.75H480.759C480.759 7.29191 480.759 7.36841 480.759 7.44364V7.67187V7.89884C480.759 7.97533 480.759 8.05057 480.759 8.12706V8.35403C480.759 8.43053 480.759 8.50576 480.759 8.58225V8.80922C480.759 8.88446 480.759 8.96096 480.759 9.03619V9.26442C480.759 9.33966 480.759 9.41615 480.759 9.49139C480.759 9.56663 480.759 9.64312 480.759 9.71836V9.94658C480.759 10.0218 480.759 10.0983 480.759 10.1736V10.4005C480.759 10.477 480.759 10.5523 480.759 10.6287C480.759 10.7052 480.759 10.7805 480.759 10.8557H480.75L480.797 10.7466Z" fill="#11448D"/>
<path d="M445.872 7.28687V10.645H450.634V7.28687H445.872Z" fill="#11448D"/>
<path d="M0.00854492 215.051V58.3137H10.1575V54.7675H14.9165L14.932 54.9907L14.9493 55.2114C14.9493 55.2854 14.9596 55.3581 14.9665 55.4321L14.982 55.6503C14.982 55.7242 14.9923 55.797 14.9992 55.8697L15.0147 56.0892C15.0147 56.1619 15.0251 56.2346 15.032 56.3073L15.0475 56.528C15.0475 56.602 15.0578 56.676 15.0647 56.75L15.0802 56.9732C15.0802 57.0472 15.0923 57.1224 15.0975 57.1977C15.1027 57.2729 15.1096 57.3494 15.1147 57.4259C15.1199 57.5024 15.1268 57.5789 15.132 57.6566C15.1371 57.7344 15.144 57.8121 15.1492 57.8911C15.1544 57.9701 15.1613 58.0491 15.1682 58.1294C15.175 58.2096 15.1785 58.2899 15.1854 58.3714H20.184V61.86H24.9413C24.9413 61.7847 24.9534 61.7107 24.9586 61.6367L24.9741 61.416C24.9741 61.3421 24.9861 61.2693 24.9913 61.1954C24.9965 61.1214 25.0016 61.0486 25.0085 60.9759L25.0241 60.7577L25.0396 60.5383C25.0396 60.4655 25.0516 60.3915 25.0568 60.3188C25.062 60.2461 25.0671 60.1721 25.074 60.0981L25.0896 59.8774C25.0896 59.8022 25.1016 59.7282 25.1068 59.6542C25.112 59.5802 25.1171 59.5037 25.124 59.4285L25.1395 59.2003C25.1395 59.1238 25.1516 59.0473 25.1568 58.9695C25.1619 58.8918 25.1688 58.814 25.1757 58.735C25.1826 58.656 25.1861 58.577 25.193 58.498C25.1999 58.419 25.205 58.3363 25.2102 58.2548H30.1106V54.6446H35.1816V61.8073H39.9717C39.9717 61.7333 39.9803 61.6593 39.9854 61.5853L40.001 61.3646L40.0165 61.1452C40.0165 61.0725 40.0268 60.9997 40.0303 60.927L40.0458 60.7076L40.0613 60.4894C40.0613 60.4166 40.0613 60.3439 40.0751 60.2699L40.0906 60.0505L40.1061 59.8285L40.1216 59.6053L40.1371 59.3808C40.1371 59.3044 40.1371 59.2291 40.1526 59.1526L40.1682 58.9219L40.1837 58.6874L40.1992 58.4479C40.1992 58.3689 40.2112 58.2874 40.2164 58.2059H44.8875V54.5568H40.2337V50.9717H45.134V47.3602H45.7649H46.3957H47.0266H47.6575H48.2866H48.9175H49.5483H50.1792H50.81H51.4409H52.07H52.7009H53.3318H53.9626H54.5935H55.2226V50.9967H60.2212C60.2212 51.0732 60.2212 51.151 60.2212 51.2275V51.4595C60.2212 51.536 60.2212 51.6137 60.2212 51.6902C60.2212 51.7667 60.2212 51.8444 60.2212 51.9222V52.1529C60.2212 52.2307 60.2212 52.3072 60.2212 52.3849V54.232C60.2212 54.3098 60.2212 54.3862 60.2212 54.464V54.6947H55.1657V58.34H50.2843V61.8186H55.0813V58.2824H60.0902V54.6333H64.9406V51.0482H60.0747C60.0747 50.9704 60.0747 50.8939 60.0747 50.8162V50.5854C60.0747 50.5077 60.0747 50.4312 60.0747 50.3535V49.8907C60.0747 49.8142 60.0747 49.7378 60.0747 49.66V49.4293C60.0747 49.3515 60.0747 49.275 60.0747 49.1973V48.7346C60.0747 48.6581 60.0747 48.5803 60.0747 48.5038V48.2731C60.0747 48.1954 60.0747 48.1189 60.0747 48.0411V47.5784C60.0747 47.5019 60.0747 47.4242 60.0747 47.3477H70.0754H70.0668V47.3414H70.0582H70.0496V54.7399H85.3091V58.3338H90.2767V61.88H94.9996V58.3375H90.1371V54.5756H95.2805V51.146H100.31V54.7825H110.382V60.2887C110.382 60.4367 110.382 60.5834 110.382 60.7314V61.6092C110.382 61.7559 110.382 61.9026 110.382 62.0493H110.056H109.73H109.404H109.078H108.753H108.427H108.101H107.775H107.45H107.124H106.8H106.474H106.148H105.822H105.497H105.171V58.4454H100.4V61.9252H105.247V63.2519C105.247 63.3246 105.247 63.3986 105.247 63.4726V65.4789H110.295V62.0067H115.249V54.6195H130.405V51.1322H135.337V58.2799H140.325V59.2053C140.325 59.2818 140.325 59.3583 140.325 59.436V61.9816H135.461V65.4601H140.256V61.9239H155.278V58.2874H160.288V54.6408H165.384V58.4103H170.449V61.8261H175.477V54.5957H180.269L180.285 54.3649C180.285 54.2884 180.293 54.2132 180.298 54.1367C180.304 54.0602 180.309 53.9862 180.312 53.911L180.328 53.6865C180.328 53.6125 180.336 53.5386 180.342 53.4646C180.347 53.3906 180.342 53.3166 180.355 53.2426C180.369 53.1686 180.364 53.0959 180.369 53.0219C180.374 52.9479 180.379 52.8752 180.383 52.8012L180.398 52.5805C180.398 52.5065 180.407 52.4326 180.412 52.3586C180.417 52.2846 180.412 52.2106 180.426 52.1354C180.44 52.0601 180.426 51.9861 180.44 51.9122L180.455 51.6852C180.455 51.6099 180.455 51.5335 180.469 51.457C180.483 51.3805 180.479 51.304 180.483 51.2262L180.498 50.993H190.43V51.6889C190.43 51.7654 190.43 51.8432 190.43 51.9209V53.0809C190.43 53.1574 190.43 53.2351 190.43 53.3116V54.2395C190.43 54.3173 190.43 54.395 190.43 54.4715V54.7035H185.259V58.3864H180.554V62.0518H185.475V65.4727H190.346V54.6458H190.658H190.97H191.282H191.595H191.907H192.219H192.533H192.845H193.157H193.469H193.783H194.095H194.407H194.72H195.032H195.344V61.7935H200.267V54.7813H195.268V54.5443C195.268 54.4653 195.268 54.3862 195.268 54.3072V54.0703V53.8345C195.268 53.7555 195.268 53.6765 195.268 53.5975V53.3605V53.1235C195.268 53.0445 195.268 52.9668 195.268 52.8878V52.6507V52.4137V52.178V51.941V51.704V51.4682V51.2312V50.9955H220.568V54.5706H225.5V47.5232H230.531V54.553H235.562V47.537H240.601V50.8939H250.565V47.3552H255.64V51.0783H265.809V54.6358H270.751V58.1733H275.686V54.637H290.697V53.4571C290.697 53.3818 290.697 53.3053 290.697 53.2313V51.7078C290.697 51.6375 290.697 51.5661 290.697 51.4958V51.072H290.689V51.0783H295.886V58.1005H300.931V54.6258H315.927V43.7086H320.782V54.7336H325.555L325.57 54.9631L325.588 55.1913L325.603 55.4158C325.603 55.491 325.608 55.565 325.619 55.6377L325.634 55.8584L325.65 56.0766L325.665 56.2923L325.681 56.5067L325.696 56.7187L325.712 56.9306L325.727 57.14C325.727 57.2102 325.727 57.2792 325.741 57.3481L325.757 57.5563C325.757 57.6253 325.767 57.6942 325.77 57.7632L325.786 57.9701L325.801 58.1758H330.84V54.79H335.764V61.8123H340.789V54.7938H345.815V61.865H350.746V51.1585H360.793V58.3363H355.919V61.8148H360.714V58.2786H365.847V47.3452H370.799V58.1795H375.595V47.4028H370.717V43.656H375.927V40.1937H380.674L380.69 40.4169L380.705 40.6401L380.721 40.8608C380.721 40.9336 380.729 41.0076 380.735 41.0803L380.75 41.2997L380.766 41.5192C380.766 41.5919 380.774 41.6659 380.779 41.7386L380.795 41.9593L380.81 42.1813C380.81 42.2553 380.81 42.3292 380.824 42.4032L380.84 42.6289L380.855 42.8559L380.871 43.0867C380.871 43.1644 380.881 43.2421 380.888 43.3211L380.903 43.5582L380.919 43.7989H385.838V47.4054H380.976V50.9967H385.838V54.5856L386.164 54.5969L386.483 54.6082L386.798 54.6195L387.109 54.6295L387.415 54.6408L387.719 54.6508L388.02 54.6621L388.319 54.6722L388.613 54.6834L388.91 54.6935L389.203 54.7035L389.496 54.7135L389.791 54.7248L390.084 54.7349L390.378 54.7449L390.675 54.7562C390.675 54.8377 390.689 54.9179 390.694 54.9982C390.699 55.0784 390.708 55.1587 390.713 55.239L390.732 55.476C390.732 55.555 390.744 55.634 390.751 55.7117C390.758 55.7894 390.763 55.8672 390.768 55.9437C390.773 56.0202 390.78 56.0979 390.787 56.1744C390.794 56.2509 390.797 56.3274 390.804 56.4039C390.811 56.4804 390.816 56.5556 390.821 56.6309C390.827 56.7061 390.833 56.7813 390.839 56.8566C390.844 56.9318 390.851 57.0058 390.856 57.0798C390.861 57.1538 390.868 57.229 390.873 57.303C390.878 57.377 390.885 57.451 390.89 57.525C390.896 57.5989 390.902 57.6729 390.908 57.7469C390.913 57.8209 390.918 57.8936 390.925 57.9664L390.94 58.1871C390.94 58.261 390.952 58.3338 390.958 58.4065H385.83V61.9941H380.965V69.0992H385.75V61.9365H390.877V58.3551H400.908V54.7838H410.906V61.806H415.904V50.9993H421.041V54.6897H431.01V58.2786H425.926V61.9816H421.049V65.4601H425.846V61.9239H430.857V58.2786H435.923V61.8261H440.706V58.3375H435.843V51.1648H441.049V54.5643H445.792C445.792 54.4891 445.805 54.4151 445.81 54.3411C445.815 54.2671 445.82 54.1919 445.825 54.1192C445.83 54.0464 445.837 53.9724 445.842 53.8985L445.858 53.6815L445.873 53.4646L445.891 53.2501L445.906 53.037L445.922 52.8251L445.937 52.6144L445.953 52.4037L445.968 52.1956L445.984 51.9861C445.984 51.9172 445.994 51.8482 445.998 51.7792L446.013 51.5711L446.029 51.3642L446.044 51.1573H455.979V54.691H450.97V58.3363H446.094V61.8148H450.891V58.2786H455.917V54.6333H461.088V58.2134H465.856L465.871 57.9902L465.887 57.7682C465.887 57.6955 465.897 57.6215 465.904 57.5488L465.92 57.3306L465.914 57.1162L465.93 56.9017L465.945 56.6886L465.961 56.4766L465.977 56.266L465.992 56.0553C465.992 55.9863 466.001 55.9161 466.006 55.8471L466.021 55.639L466.037 55.4321L466.052 55.2252C466.052 55.1562 466.052 55.0872 466.066 55.0183L466.082 54.8126H471.104V61.8524H475.87L475.886 61.628L475.901 61.4048C475.901 61.3308 475.91 61.2568 475.915 61.1828C475.92 61.1088 475.926 61.0361 475.929 60.9634L475.944 60.7427C475.944 60.6699 475.953 60.5972 475.958 60.5232C475.963 60.4492 475.969 60.3765 475.972 60.3038L475.988 60.0831C475.988 60.0091 475.996 59.9351 476.001 59.8611L476.017 59.6379C476.017 59.5627 476.027 59.4874 476.031 59.4122L476.046 59.184L476.062 58.9532L476.077 58.7187L476.093 58.4805L476.108 58.2385H486.081V54.6521H496.101V47.4141H501.075V51.1761H506.222V54.6433L506.541 54.6546L506.855 54.6659L507.165 54.6772L507.475 54.6885L507.782 54.6997L508.087 54.711L508.394 54.7223L508.701 54.7336L509.008 54.7449L509.318 54.7574L509.63 54.7687L509.945 54.78L510.264 54.7913L510.588 54.8038L510.918 54.8164L511.252 54.8277V61.9176H520.999V58.2447H516.375V54.5881H521.234V50.993H526.212V58.4115H531.283V61.8261H536.068V54.637H545.932V50.9892H541.261V43.8516H546.208V47.4141H551.169V51.1761H556.078V54.7662H551.184V58.3902H546.013V62.0669H541.283V65.5178H551.108V58.3325H555.943V215.105H0.00854492V215.051ZM270.525 65.5692H275.388V62.0995H270.605V65.6269H270.291H269.979H269.667H269.355H269.041H268.729H268.417H268.104H267.792H267.48H267.168H266.854H266.542H266.23H265.916H265.604V62.191H260.675V65.5655H265.673V69.1644H270.525V65.5692ZM250.586 58.3551H255.309V54.7687H250.672V56.1694C250.672 56.2459 250.672 56.3224 250.672 56.3976V57.2967C250.672 57.372 250.672 57.446 250.672 57.5199V57.7431C250.672 57.8171 250.672 57.8911 250.672 57.9639C250.672 58.0366 250.672 58.1118 250.672 58.1858V58.4065H250.346H250.021H249.695H249.371H249.045H248.719H248.393H248.068H247.742H247.418H247.092H246.766H246.441H246.115H245.791H245.465V54.8001H240.697V58.2811H245.544V61.8374H250.593V58.3551H250.586ZM315.684 61.9916H310.821V69.0967H315.611V61.9365H320.486V58.4579H315.689V61.9941L315.684 61.9916ZM210.573 58.3915V61.8813L210.88 61.8926L211.186 61.9026L211.49 61.9139L211.793 61.9252L212.095 61.9365L212.398 61.9465L212.7 61.9578L213.005 61.9691L213.31 61.9803L213.619 61.9916L213.929 62.0029L214.244 62.0142L214.563 62.0255L214.887 62.0368L215.216 62.0493L215.561 62.0606V65.509H220.291V58.394H210.581L210.573 58.3915ZM375.641 69.1656V65.7184H365.942V69.1681H375.643L375.641 69.1656ZM75.3205 58.3501V61.8211H79.9503V58.3501H75.3205ZM501.16 61.8487H505.869V58.4629H501.16V61.8487ZM14.9044 62.0694H10.1971V65.4551H14.9044V62.0694ZM65.3354 62.0468V65.4451H70.0065V62.0468H65.3354ZM125.107 65.5178V62.0869H120.453V65.5178H125.107ZM235.333 65.5178V62.0869H230.679V65.5178H235.333ZM85.3557 65.7084V69.1067H90.0561V65.7084H85.3557ZM250.417 69.4051H245.655V72.7633H250.417V69.4051ZM350.531 72.8022V69.4051H345.858V72.8047H350.531V72.8022ZM430.943 72.7244H435.714V69.4051H430.943V72.7332V72.7244ZM441.009 76.3722H445.772V73.0204H441.009V76.3773V76.3722ZM470.872 73.0505H466.109V76.4086H470.872V73.0555V73.0505Z" fill="#0B2F56"/>
<path d="M0.00854492 51.0231H4.8348V54.6684H0.00854492V51.0231Z" fill="#0B2F56"/>
<path d="M290.646 47.4004V43.7864H295.472L295.489 43.5432C295.489 43.4629 295.501 43.3839 295.506 43.3049C295.512 43.2259 295.517 43.1481 295.524 43.0704L295.539 42.8397C295.539 42.7619 295.55 42.6867 295.556 42.6114L295.572 42.3857L295.587 42.1613L295.603 41.9406L295.618 41.7199L295.634 41.5004L295.649 41.2822L295.665 41.0628L295.681 40.8446L295.696 40.6251L295.712 40.4044L295.727 40.1825H300.424V47.3427H290.566L290.646 47.4004Z" fill="#0B2F56"/>
<path d="M165.38 51.052H160.369V54.6973H155.281V54.2383C155.281 54.0853 155.281 53.9323 155.281 53.7794V53.3204V52.8614V52.4025V51.9435V51.4846C155.281 51.3316 155.281 51.1786 155.281 51.0256V50.5667V50.1077V49.6488V49.1898V48.7308C155.281 48.5779 155.281 48.4249 155.281 48.2719V47.8142V47.3552H165.372V50.9918L165.38 51.052Z" fill="#0B2F56"/>
<path d="M30.1107 54.6446H20.2341V51.1197L20.5185 51.1084L20.8047 51.0971L21.0908 51.0858L21.3769 51.0745L21.6665 51.0632L21.9543 51.0519L22.2456 51.0394L22.5387 51.0281L22.8334 51.0168L23.1316 51.0043L23.4315 50.993L23.7349 50.9805L24.0417 50.9679L24.3502 50.9554L24.6639 50.9441L24.9811 50.9303V47.5258H30.0314V54.7023V54.696L30.1107 54.6446Z" fill="#0B2F56"/>
<path d="M290.566 47.3427V47.5797C290.566 47.6587 290.566 47.7377 290.566 47.8167V48.0537V48.2907C290.566 48.3697 290.566 48.4487 290.566 48.5277V48.7635V49.0005V49.2375V49.4745C290.566 49.5535 290.566 49.6325 290.566 49.7115V49.9485V50.1855V50.4225V50.6595V50.8965C290.566 50.9755 290.566 51.0545 290.566 51.1335V51.1272H280.776V47.4531H290.665V47.4468L290.566 47.3427Z" fill="#0B2F56"/>
<path d="M315.701 43.7087H305.84V40.2201H315.622V43.7663V43.7601L315.701 43.7087Z" fill="#0B2F56"/>
<path d="M415.908 50.9993H406.047V47.5107H415.828V51.057L415.908 50.9993Z" fill="#0B2F56"/>
<path d="M531.134 51.052H526.046V43.8767H531.134V51.052Z" fill="#0B2F56"/>
<path d="M5.17969 43.8391H14.9098V47.2398H5.17969V43.8391Z" fill="#0B2F56"/>
<path d="M120.399 43.824H125.053V47.2486H120.399V43.824Z" fill="#0B2F56"/>
<path d="M155.369 47.3552H150.507V43.8654H155.29V47.4117L155.369 47.3552Z" fill="#0B2F56"/>
<path d="M170.479 47.2687V43.8829H175.186V47.2687H170.479Z" fill="#0B2F56"/>
<path d="M195.558 47.4744V43.8378H200.195V47.4242H195.472H195.481H195.489L195.558 47.4744Z" fill="#0B2F56"/>
<path d="M250.565 47.3552H245.705V43.8654H250.486V47.4117L250.565 47.3552Z" fill="#0B2F56"/>
<path d="M255.56 47.4142V43.8767H260.356V47.3565H255.481V47.3628L255.56 47.4142Z" fill="#0B2F56"/>
<path d="M330.728 47.4004V43.8742H335.513V47.344H330.65L330.728 47.4004Z" fill="#0B2F56"/>
<path d="M345.579 43.8641V47.2837H340.908V43.8641H345.579Z" fill="#0B2F56"/>
<path d="M425.908 47.3464H421.062V43.8641H425.829V47.4029L425.908 47.3464Z" fill="#0B2F56"/>
<path d="M440.88 43.7664H445.727V47.2474H440.959V43.7087L440.88 43.7664Z" fill="#0B2F56"/>
<path d="M451.065 47.2486V43.824H455.745V47.2436H451.074L451.065 47.2486Z" fill="#0B2F56"/>
<path d="M471.018 47.4004V43.7639H476.017V47.4004H471.018Z" fill="#0B2F56"/>
<path d="M501.067 47.4142V43.8767H505.862V47.3565H500.989V47.3628L501.067 47.4142Z" fill="#0B2F56"/>
<path d="M551.17 47.4142V43.8767H555.966V47.3565H551.093V47.3628L551.17 47.4142Z" fill="#0B2F56"/>
<path d="M75.124 47.4117H79.971V50.8927H75.2033V47.3552L75.124 47.4117Z" fill="#0B2F56"/>
<path d="M85.3403 47.4154H89.9718V50.8852H85.3403V47.4154Z" fill="#0B2F56"/>
<path d="M195.443 51.052H190.354V47.4694H195.551H195.543H195.534C195.534 47.5446 195.534 47.6211 195.534 47.6963C195.534 47.7716 195.534 47.8481 195.534 47.9233C195.534 47.9985 195.534 48.075 195.534 48.1515V48.3785C195.534 48.4537 195.534 48.5302 195.534 48.6055C195.534 48.6807 195.534 48.7572 195.534 48.8324C195.534 48.9077 195.534 48.9842 195.534 49.0594C195.534 49.1346 195.534 49.2111 195.534 49.2876V49.4669C195.534 49.5422 195.534 49.6174 195.534 49.6939V49.9209C195.534 49.9961 195.534 50.0726 195.534 50.1479V50.3748C195.534 50.4501 195.534 50.5266 195.534 50.6018C195.534 50.677 195.534 50.7535 195.534 50.8288C195.534 50.904 195.443 50.9717 195.443 51.052Z" fill="#0B2F56"/>
<path d="M330.65 47.3439V50.8802H325.853V47.4016H330.724L330.65 47.3439Z" fill="#0B2F56"/>
<path d="M385.764 51.052V47.3502H390.623V51.052H385.764Z" fill="#0B2F56"/>
<path d="M400.693 47.5095V50.9291H396.02V47.5095H400.693Z" fill="#0B2F56"/>
<path d="M425.829 47.4029H430.692V50.8914H425.908V47.3464H425.9V47.3527L425.829 47.4029Z" fill="#0B2F56"/>
<path d="M470.939 47.3439V50.8802H466.144V47.4016H471.015L470.939 47.3439Z" fill="#0B2F56"/>
<path d="M481.172 47.4769H485.873V50.8751H481.172V47.4769Z" fill="#0B2F56"/>
<path d="M515.844 50.9516H511.228V47.4869H515.844V50.9516Z" fill="#0B2F56"/>
<path d="M150.348 54.6973H145.262V51.1623H150.348V54.6973Z" fill="#0B2F56"/>
<path d="M60.1644 47.4066H55.0745V43.7701H60.1644V44.0008V44.2328V44.4635V44.6943V44.925V45.1557V45.3877V45.6184V45.8492C60.1644 45.9257 60.1644 46.0034 60.1644 46.0799V46.3106V46.5414V46.7734V47.0041V47.2348V47.4066Z" fill="#0B2F56"/>
<path d="M165.308 54.6973V50.9955H170.167V54.6973H165.308Z" fill="#0B2F56"/>
<path d="M275.607 54.6973H270.52V51.1623H275.607V54.6973Z" fill="#0B2F56"/>
<path d="M526.032 36.6086V39.9367H521.261V36.6086H526.032Z" fill="#0B2F56"/>
<path d="M536.145 54.6973H531.057V50.9955H536.145V54.6973Z" fill="#0B2F56"/>
<path d="M145.339 54.6409V58.3426H140.251V54.6409H145.339Z" fill="#0B2F56"/>
<path d="M60.1645 43.7688V40.2326H64.9598V43.7111H60.0818L60.1645 43.7688Z" fill="#0B2F56"/>
<path d="M155.359 54.6409V58.3426H150.271V54.6409H155.359Z" fill="#0B2F56"/>
<path d="M75.3103 43.824V40.1875H79.947V43.7751H75.2241H75.2327H75.2414H75.25H75.2586L75.3103 43.824Z" fill="#0B2F56"/>
<path d="M355.583 43.6422H350.929V40.2163H355.583V43.6422Z" fill="#0B2F56"/>
<path d="M440.959 43.7087H436.095V40.2214H440.878V43.7664L440.959 43.7087Z" fill="#0B2F56"/>
<path d="M476.015 43.7688V40.2326H480.81V43.7111H475.939L476.015 43.7688Z" fill="#0B2F56"/>
<path d="M45.141 47.3552H40.2803V43.8654H45.0617V47.4117L45.141 47.3552Z" fill="#0B2F56"/>
<path d="M75.2033 47.3552H74.8775H74.5518H74.2277H73.9019H73.5762H73.2504H72.9246H72.5989H72.2731H71.949H71.6233H71.2975H70.97H70.6442H70.3185H69.9927H70.0013H70.0099H70.0185C70.0185 47.285 70.0185 47.216 70.0185 47.1458V46.7082C70.0185 46.638 70.0185 46.569 70.0185 46.4988V43.824H75.2464H75.2378H75.2292H75.2205V44.051V44.2792C75.2205 44.3557 75.2205 44.431 75.2205 44.5075V44.7344C75.2205 44.8109 75.2205 44.8862 75.2205 44.9627V45.1896C75.2205 45.2649 75.2205 45.3414 75.2205 45.4166V45.6448C75.2205 45.7201 75.2205 45.7965 75.2205 45.8718V46.0988V46.327V46.554C75.2205 46.6304 75.2205 46.7057 75.2205 46.7809C75.2205 46.8562 75.2205 46.9327 75.2205 47.0091V47.2361V47.4631H75.2292L75.2033 47.3552Z" fill="#0B2F56"/>
<path d="M110.128 43.8955V47.2524H105.366V43.8955H110.128Z" fill="#0B2F56"/>
<path d="M0.0602553 251.001V94.234H4.88651V101.419H14.7114V97.9683H9.98855V94.2916H4.81756V90.6677H0.00854492V87.0712H4.91754V83.3093H9.87823V79.8007H14.8234V86.9383H10.0661V90.5861H19.9306V97.7752H24.8051V94.3594H29.8762V86.9421H34.8541V90.5372H39.7131V94.1963H35.0868V97.8091H44.8358V90.7228L45.1702 90.7115L45.4994 90.699L45.8235 90.6865L46.1424 90.6752L46.4578 90.6639L46.7698 90.6526L47.08 90.6401L47.3868 90.6288L47.6937 90.6175L47.9987 90.6062L48.3056 90.5949L48.6124 90.5836L48.9209 90.5724L49.2329 90.5611L49.5466 90.5498L49.8637 90.5385V87.0675H55.0123V83.3055H59.9868V90.5974H70.0047V94.1838H79.9641L79.9796 94.4258L79.9951 94.6641L80.0106 94.8986L80.0261 95.1293C80.0261 95.2058 80.0365 95.2823 80.0399 95.3575L80.0554 95.5832L80.0709 95.8065C80.0709 95.8804 80.0796 95.9544 80.0847 96.0284C80.0899 96.1024 80.0951 96.1751 80.0985 96.2491L80.114 96.4685C80.114 96.5425 80.1226 96.6153 80.1278 96.688L80.1433 96.9087C80.1433 96.9814 80.1519 97.0554 80.1571 97.1281C80.1623 97.2009 80.1675 97.2761 80.1709 97.3501L80.1864 97.5733C80.1864 97.6473 80.1968 97.7225 80.2002 97.7978H84.9678V90.7605H89.9906L90.0061 90.9661C90.0061 91.0351 90.0147 91.104 90.0199 91.173L90.0354 91.3799L90.0509 91.5868C90.0509 91.6558 90.0613 91.726 90.0647 91.795L90.0802 92.0031L90.0957 92.2138L90.1113 92.4245L90.1268 92.6364L90.1423 92.8496L90.1578 93.064L90.1733 93.2797L90.1888 93.4979C90.1888 93.5706 90.1992 93.6446 90.2061 93.7173L90.2216 93.9393L90.2371 94.1625H95.0047V90.5824H100.176V94.234H105.186V97.7702H109.982V94.2916H105.023V90.6463H100.012V87.1064H109.949L109.964 87.3133C109.964 87.3822 109.973 87.4512 109.978 87.5202L109.994 87.7283L110.009 87.9352L110.025 88.1446L110.04 88.3528L110.056 88.5635L110.071 88.7741L110.087 88.9861L110.102 89.1992L110.118 89.4137C110.118 89.4864 110.13 89.5579 110.135 89.6306L110.151 89.845L110.166 90.0657C110.166 90.1385 110.178 90.2125 110.183 90.2877C110.188 90.3629 110.194 90.4357 110.201 90.5109H114.944V87.1139H120.148V94.2866H115.287V97.7765H120.069V95.7789C120.069 95.7061 120.069 95.6322 120.069 95.5582V94.234H125.146V97.8705H130.157V101.407H134.952V97.9282H130.074V94.2829H125.064V90.694H135.035V87.006H140.172V97.8178H145.17V90.7956H155.167V94.3669H165.199V97.9482H170.325V105.111H175.11V98.0059H170.17V94.3594H165.042L165.058 94.1399C165.058 94.0672 165.07 93.9932 165.075 93.9192C165.08 93.8452 165.087 93.7725 165.092 93.6998C165.097 93.627 165.103 93.5518 165.11 93.4778C165.116 93.4038 165.12 93.3298 165.127 93.2559C165.134 93.1819 165.137 93.1079 165.144 93.0327C165.151 92.9574 165.154 92.8834 165.161 92.8094C165.168 92.7355 165.172 92.659 165.178 92.5837C165.185 92.5085 165.191 92.432 165.196 92.3568C165.201 92.2815 165.208 92.2038 165.213 92.1273C165.218 92.0508 165.225 91.9743 165.232 91.8965C165.239 91.8188 165.244 91.7423 165.249 91.6646C165.254 91.5868 165.261 91.5078 165.268 91.4288C165.275 91.3498 165.28 91.2708 165.287 91.1918C165.294 91.1128 165.299 91.0326 165.306 90.951C165.313 90.8695 165.318 90.7905 165.325 90.709L165.621 90.6978L165.916 90.6877L166.209 90.6777L166.502 90.6664L166.797 90.6564L167.09 90.6463L167.385 90.6363L167.681 90.625L167.979 90.615L168.281 90.6037L168.584 90.5937L168.891 90.5824L169.202 90.5724L169.515 90.5611L169.836 90.5498L170.16 90.5385V86.9458H175.022V83.3545H170.16V79.748H175.079C175.079 79.6665 175.091 79.5862 175.096 79.5072L175.112 79.269C175.112 79.1912 175.122 79.1135 175.129 79.0358L175.145 78.805L175.16 78.5781C175.16 78.5028 175.169 78.4276 175.174 78.3523L175.189 78.1304L175.205 77.9084L175.221 77.6877C175.221 77.615 175.221 77.541 175.234 77.4683L175.25 77.2488L175.265 77.0294C175.265 76.9567 175.274 76.8827 175.279 76.8099L175.295 76.5892L175.31 76.366L175.326 76.1428H180.073V79.6051H185.283V83.3519H180.412V94.1286H185.204V83.2943H190.154V94.234H195.287V97.7702H200.084V94.2916H195.21V87.1076H205.257V97.8141H210.188V90.7429H215.215V97.7514H220.239V90.7291H225.164V94.1148H230.202L230.217 93.9092C230.217 93.8402 230.228 93.7712 230.231 93.7023L230.247 93.4954L230.262 93.2872C230.262 93.2182 230.271 93.1493 230.276 93.0791L230.292 92.8696L230.307 92.6577L230.323 92.4458C230.323 92.3743 230.323 92.3028 230.336 92.2314L230.352 92.0157L230.367 91.7975C230.367 91.7247 230.379 91.6508 230.385 91.5768L230.4 91.3548L230.416 91.1304C230.416 91.0551 230.426 90.9786 230.433 90.9022L230.448 90.6727H235.221V79.7154H240.378V90.6325H255.374V94.1086H260.419V87.0863H265.616V87.08V87.0738V87.7095C265.616 87.781 265.616 87.8512 265.616 87.9227V90.6388H280.629V94.1763H285.564V90.6388H290.506V87.0286H300.676V83.3055H305.75V86.8443H315.715V83.4861H320.437V90.5084H325.469V83.4723H330.5V90.5197H335.433V86.9421H360.633C360.633 87.0198 360.633 87.0988 360.633 87.1778V87.4148V87.6506V87.8876V88.1246C360.633 88.2036 360.633 88.2813 360.633 88.3603V88.5973V88.8343V89.0701V89.3071V89.5441V89.7811C360.633 89.8601 360.633 89.9391 360.633 90.0168V90.2538C360.633 90.3328 360.633 90.4118 360.633 90.4908V90.7278H355.635V97.8178H360.557V90.6702H360.869H361.181H361.493H361.807H362.119H362.431H362.745H363.057H363.369H363.682H363.994H364.306H364.618H364.932H365.244H365.556V101.497H370.427V97.9959H375.35V94.3305H370.656V90.6476H365.485V86.9421H375.417C375.417 87.0198 375.417 87.0976 375.431 87.1753L375.446 87.4061C375.446 87.4825 375.446 87.559 375.46 87.6343L375.476 87.8612C375.476 87.9352 375.476 88.0105 375.489 88.0845C375.503 88.1584 375.489 88.2337 375.503 88.3077C375.517 88.3816 375.514 88.4556 375.517 88.5296C375.52 88.6036 375.527 88.6763 375.531 88.7503L375.546 88.971C375.546 89.045 375.546 89.1177 375.56 89.1917C375.574 89.2657 375.56 89.3397 375.574 89.4137C375.588 89.4877 375.582 89.5616 375.588 89.6356L375.601 89.8601L375.617 90.0858C375.617 90.1623 375.626 90.2375 375.631 90.314L375.646 90.5448H380.433V97.7752H385.466V94.3594H390.532V90.5899H395.627V94.234H400.638V97.8705H415.659V101.407H420.455V97.9282H415.58V95.3876C415.58 95.3099 415.58 95.2334 415.58 95.1569V94.4634C415.58 94.3857 415.58 94.3092 415.58 94.2315H420.568V87.0863H425.5V90.5736H440.749V97.9545H445.703V101.436H450.746V97.8705H455.595V94.3907H450.825V97.9282H450.501H450.176H449.85H449.524H449.198H448.873H448.549H448.223H447.897H447.571H447.245H446.92H446.594H446.268H445.942H445.615V96.6052C445.615 96.4573 445.615 96.3106 445.615 96.1626V93.4678C445.615 93.3148 445.615 93.1618 445.615 93.0088V90.6564H455.688V87.0198H460.718V90.452H465.861V94.2139H460.999V97.7037H465.782V94.234H470.749V90.6351H486.009V83.2366H486H485.992H485.983H495.906C495.906 83.3131 495.906 83.3908 495.906 83.4673V84.6235C495.906 84.7012 495.906 84.7777 495.906 84.8555V85.0862C495.906 85.1639 495.906 85.2404 495.906 85.3182V85.7796C495.906 85.8574 495.906 85.9339 495.906 86.0116V86.2424C495.906 86.3201 495.906 86.3966 495.906 86.4743V86.9371H491.042V90.5222H495.906V94.234H500.917V97.7702H505.714V94.2916H500.839V90.6463H495.829V88.7955C495.829 88.719 495.829 88.6412 495.829 88.5647V88.334C495.829 88.2563 495.829 88.1798 495.829 88.102V87.8713C495.829 87.7935 495.829 87.717 495.829 87.6393V87.4086C495.829 87.3308 495.829 87.2543 495.829 87.1766C495.829 87.0988 495.829 87.0223 495.829 86.9458H500.827V83.2968H501.458H502.089H502.72H503.351H503.98H504.611H505.241H505.872H506.503H507.134H507.763H508.394H509.025H509.656H510.287H510.916V86.9082H515.814V90.5561H511.161V94.2051H515.832C515.832 94.2866 515.842 94.3681 515.847 94.4471C515.852 94.5261 515.859 94.6076 515.864 94.6866L515.88 94.9211L515.895 95.1519L515.911 95.3801L515.926 95.6046L515.942 95.8278L515.958 96.0497L515.973 96.2692C515.973 96.3432 515.982 96.4159 515.987 96.4886L516.002 96.7068C516.002 96.7808 516.013 96.8535 516.016 96.9263L516.032 97.1444L516.047 97.3639L516.063 97.5846C516.063 97.6586 516.071 97.7326 516.076 97.8065H520.867V90.6438H526.017V94.254H530.929C530.929 94.3355 530.941 94.417 530.948 94.496C530.955 94.575 530.96 94.6553 530.965 94.7343C530.971 94.8133 530.977 94.891 530.983 94.9688C530.988 95.0465 530.995 95.123 531 95.1995L531.017 95.4278C531.017 95.503 531.029 95.5782 531.034 95.6522C531.04 95.7262 531.045 95.8014 531.052 95.8767L531.067 96.0974C531.067 96.1714 531.079 96.2453 531.084 96.3181L531.1 96.5375C531.1 96.6103 531.112 96.683 531.117 96.757L531.133 96.9752C531.133 97.0479 531.145 97.1219 531.15 97.1946L531.165 97.4153C531.165 97.488 531.177 97.562 531.183 97.636C531.188 97.71 531.193 97.784 531.2 97.8592H535.957V94.3706H540.956C540.956 94.2891 540.968 94.2089 540.973 94.1286C540.978 94.0484 540.985 93.9694 540.992 93.8904C540.999 93.8114 541.002 93.7336 541.009 93.6559C541.016 93.5781 541.021 93.5016 541.026 93.4252C541.032 93.3487 541.037 93.2734 541.044 93.1969L541.059 92.9725C541.059 92.8972 541.071 92.8232 541.076 92.7493C541.082 92.6753 541.089 92.6013 541.094 92.5273L541.109 92.3066C541.109 92.2339 541.121 92.1611 541.126 92.0884L541.142 91.869C541.142 91.7962 541.154 91.7235 541.159 91.6495L541.175 91.4313C541.175 91.3573 541.187 91.2846 541.192 91.2106L541.207 90.9887C541.207 90.9147 541.219 90.8407 541.225 90.7667H545.984V94.313H556.133V251.001H0.0602553ZM285.475 105.045H290.327V101.446H295.325V98.0711H290.396V101.507H290.084H289.77H289.458H289.146H288.832H288.52H288.208H287.895H287.583H287.271H286.959H286.645H286.333H286.021H285.707H285.395V97.9796H280.621V101.449H285.483V104.976L285.475 105.045ZM305.412 97.7865H310.463V94.234H315.309V90.7529H310.542V94.2904H310.216H309.89H309.566H309.24H308.915H308.589H308.263H307.939H307.613H307.288H306.962H306.636H306.312H305.986H305.66H305.335C305.335 94.2164 305.335 94.1424 305.335 94.0697V93.8477C305.335 93.775 305.335 93.701 305.335 93.627V93.4051C305.335 93.3311 305.335 93.2571 305.335 93.1819V92.5097C305.335 92.4345 305.335 92.358 305.335 92.2828V90.6526H300.698V94.239H305.419V97.7213L305.412 97.7865ZM240.316 94.407H235.519V97.8855H240.394V105.048H245.179V97.9432H240.316V94.407ZM335.718 94.3431V101.454H340.447V98.0059L340.792 97.9946L341.121 97.9821L341.445 97.9708L341.764 97.9595L342.078 97.9482L342.39 97.937L342.698 97.9257L343.004 97.9144L343.309 97.9031L343.61 97.8918L343.914 97.8818L344.215 97.8705L344.519 97.8592L344.822 97.8479L345.127 97.8379L345.436 97.8266V94.3431H335.726H335.718ZM190.058 105.117V101.668H180.359V105.117H190.058ZM476.048 94.2992V97.7702H480.679V94.2992H476.048ZM54.84 94.4083H50.1309V97.794H54.84V94.4083ZM541.095 101.407H545.803V98.021H541.095V101.407ZM486 97.9959V101.394H490.671V97.9959H486ZM435.55 101.461V98.036H430.897V101.461H435.55ZM325.324 101.461V98.036H320.67V101.461H325.324ZM465.944 101.651V105.05H470.644V101.651H465.944ZM305.583 108.717H310.345V105.359H305.583V108.717ZM210.142 108.756V105.357H205.469V108.756H210.142ZM125.057 105.35H120.286V108.679H125.057V105.35ZM114.991 108.969H110.228V112.326H114.991V108.969ZM85.1264 112.363H89.8889V109.005H85.1264V112.363Z" fill="#071A36"/>
<path d="M556 86.9734H551.174V90.6175H556V86.9734Z" fill="#071A36"/>
<path d="M265.354 83.3494V79.7355H260.528C260.528 79.654 260.516 79.5724 260.511 79.4922C260.506 79.4119 260.499 79.3329 260.494 79.2539C260.488 79.1749 260.481 79.0972 260.476 79.0194L260.461 78.7887C260.461 78.711 260.449 78.6357 260.444 78.5605C260.438 78.4852 260.433 78.4088 260.428 78.3348L260.413 78.1103L260.397 77.8896L260.381 77.6689L260.366 77.4495L260.35 77.2313L260.335 77.0118L260.319 76.7936L260.304 76.5742C260.304 76.5002 260.292 76.4275 260.287 76.3535L260.271 76.1315H255.576V83.2917H265.432L265.354 83.3494Z" fill="#071A36"/>
<path d="M390.62 87.001H395.631V90.6463H400.719C400.719 90.4933 400.719 90.3403 400.719 90.1873V89.7284V89.2694V88.8105V88.3515V87.8926C400.719 87.7396 400.719 87.5866 400.719 87.4336V86.9746V86.5157V86.0567V85.5978V85.1388C400.719 84.9858 400.719 84.8329 400.719 84.6799V84.2209V83.7632V83.3043H390.628V86.9408L390.62 87.001Z" fill="#071A36"/>
<path d="M525.898 90.5974H535.775V87.0687L535.488 87.0574L535.204 87.0461L534.918 87.0348L534.63 87.0235L534.342 87.0123L534.053 87.001L533.763 86.9884L533.47 86.9772L533.174 86.9659L532.877 86.9533L532.577 86.942L532.274 86.9295L531.967 86.917L531.658 86.9044L531.345 86.8931L531.028 86.8793V83.4748H525.977V90.6513L525.898 90.5974Z" fill="#071A36"/>
<path d="M265.434 83.2917V83.5288V83.7658C265.434 83.8448 265.434 83.9238 265.434 84.0028V84.2398C265.434 84.3188 265.434 84.3978 265.434 84.4768V84.7125V84.9495C265.434 85.0285 265.434 85.1075 265.434 85.1865V85.4235C265.434 85.5025 265.434 85.5815 265.434 85.6605V85.8975C265.434 85.9765 265.434 86.0555 265.434 86.1345V86.3715C265.434 86.4505 265.434 86.5295 265.434 86.6085V86.8455C265.434 86.9245 265.434 87.0035 265.434 87.0825V87.0763H275.224V83.3494H265.334L265.434 83.2917Z" fill="#071A36"/>
<path d="M240.299 79.6577H250.16V76.1691H240.379V79.7154L240.299 79.6577Z" fill="#071A36"/>
<path d="M140.092 86.9483H149.953V83.4598H140.172V87.006H140.163L140.092 86.9483Z" fill="#071A36"/>
<path d="M24.8655 87.001H29.952V79.8257H24.8655V87.001Z" fill="#071A36"/>
<path d="M550.817 79.7894H541.089V83.1889H550.817V79.7894Z" fill="#071A36"/>
<path d="M435.6 79.7756H430.947V83.1989H435.6V79.7756Z" fill="#071A36"/>
<path d="M400.631 83.3043H405.492V79.8132H400.71V83.3594V83.3532H400.702L400.631 83.3043Z" fill="#071A36"/>
<path d="M385.521 83.2178V79.832H380.814V83.2178H385.521Z" fill="#071A36"/>
<path d="M360.442 83.4234V79.7869H355.803V83.3732H360.528H360.519L360.442 83.4234Z" fill="#071A36"/>
<path d="M305.442 83.3043H310.302V79.8132H305.521V83.3594V83.3532L305.442 83.3043Z" fill="#071A36"/>
<path d="M300.443 83.3632V79.8257H295.648V83.3055H300.52L300.443 83.3632Z" fill="#071A36"/>
<path d="M225.271 83.3494V79.8232H220.488V83.293H225.35L225.271 83.3494Z" fill="#071A36"/>
<path d="M210.421 79.8132V83.2328H215.092V79.8132H210.421Z" fill="#071A36"/>
<path d="M130.092 83.2942H134.939V79.8132H130.171V83.3506L130.092 83.2942Z" fill="#071A36"/>
<path d="M115.12 79.7154H110.273V83.1989H115.041V79.6577L115.12 79.7154Z" fill="#071A36"/>
<path d="M104.935 83.1989V79.7781H100.264V83.1989H104.935Z" fill="#071A36"/>
<path d="M84.9852 83.3494V79.7129H79.9866V83.3494H84.9852Z" fill="#071A36"/>
<path d="M54.9332 83.3632V79.8257H50.1362V83.3055H55.0107H55.0021L54.9332 83.3632Z" fill="#071A36"/>
<path d="M4.83479 83.3632V79.8257H0.0378418V83.3055H4.91236L4.83479 83.3632Z" fill="#071A36"/>
<path d="M480.876 83.3607H476.027V86.8417H480.797V83.3043L480.876 83.3607Z" fill="#071A36"/>
<path d="M470.658 83.3644H466.028V86.8355H470.658V83.3644Z" fill="#071A36"/>
<path d="M360.557 87.001H365.646V83.4184H360.447V83.4121H360.456C360.456 83.4873 360.456 83.5638 360.456 83.6391C360.456 83.7143 360.456 83.7908 360.456 83.866C360.456 83.9413 360.456 84.0178 360.456 84.0943C360.456 84.1708 360.456 84.2448 360.456 84.3212C360.456 84.3977 360.456 84.473 360.456 84.5482V84.7752C360.456 84.8517 360.456 84.9269 360.456 85.0022C360.456 85.0774 360.456 85.1539 360.456 85.2304C360.456 85.3069 360.456 85.3809 360.456 85.4573V85.9113C360.456 85.9865 360.456 86.063 360.456 86.1383C360.456 86.2135 360.456 86.29 360.456 86.3652V86.8192C360.556 86.8493 360.557 86.9258 360.557 87.001Z" fill="#071A36"/>
<path d="M225.35 83.293V86.8355H230.147V83.3507H225.274L225.283 83.3444L225.35 83.293Z" fill="#071A36"/>
<path d="M170.243 87.001V83.2993H165.384V87.001H170.243Z" fill="#071A36"/>
<path d="M155.311 83.4585V86.8781H159.982V83.4585H155.311Z" fill="#071A36"/>
<path d="M130.171 83.3519H125.309V86.8354H130.092V83.2955L130.171 83.3519Z" fill="#071A36"/>
<path d="M85.0609 83.293V86.8355H89.8562V83.3507H84.9851H84.9937V83.3444L85.0609 83.293Z" fill="#071A36"/>
<path d="M74.8276 83.4259H70.1272V86.8242H74.8276V83.4259Z" fill="#071A36"/>
<path d="M40.1562 86.9007H44.7722V83.4359H40.1562V86.9007Z" fill="#071A36"/>
<path d="M405.65 90.6463H410.738V87.1113H405.65V90.6463Z" fill="#071A36"/>
<path d="M495.837 83.3557H500.926V79.7191H495.843V79.9499V80.1818V80.4126V80.6433V80.874V81.1048V81.3355C495.843 81.4132 495.843 81.4897 495.843 81.5675V81.7982V82.0289V82.2597V82.4904V82.7224V82.9531V83.1839L495.837 83.3557Z" fill="#071A36"/>
<path d="M390.697 90.6463V86.9446H385.838V90.6463H390.697Z" fill="#071A36"/>
<path d="M280.392 90.6463H285.48V87.1113H280.392V90.6463Z" fill="#071A36"/>
<path d="M29.9675 72.5577V75.8845H34.7386V72.5577H29.9675Z" fill="#071A36"/>
<path d="M19.855 90.6463H24.9432V86.9446H19.855V90.6463Z" fill="#071A36"/>
<path d="M410.661 90.5898V94.2916H415.756V90.5898H410.668H410.661Z" fill="#071A36"/>
<path d="M495.843 79.7179V76.1766H491.047V79.6552H495.918V79.6614L495.843 79.7179Z" fill="#071A36"/>
<path d="M400.641 90.5898V94.2916H405.728V90.5898H400.641Z" fill="#071A36"/>
<path d="M480.69 79.7781V76.1415H476.053V79.7292H480.776H480.767H480.759L480.69 79.7781Z" fill="#071A36"/>
<path d="M200.417 79.5912H205.071V76.1653H200.417V79.5912Z" fill="#071A36"/>
<path d="M115.041 79.6577H119.903V76.1766H115.12V79.7216V79.7154L115.041 79.6577Z" fill="#071A36"/>
<path d="M79.9867 79.7179V76.1766H75.188V79.6552H80.0608L80.0522 79.6614L79.9867 79.7179Z" fill="#071A36"/>
<path d="M510.859 83.3043H515.728V79.8132H510.947V83.3594L510.938 83.3532L510.859 83.3043Z" fill="#071A36"/>
<path d="M480.797 83.3043H481.123H481.447H481.772H482.098H482.424H482.75H483.075H483.399H483.725H484.051H484.377H484.703H485.028H485.354H485.68H486.007H485.999H485.99H485.982C485.982 83.2341 485.982 83.1651 485.982 83.0949V82.4679C485.982 82.3976 485.982 82.3274 485.982 82.2559V79.7731H480.754H480.762C480.762 79.8483 480.762 79.9248 480.762 80V80.2283V80.4565C480.762 80.5317 480.762 80.6082 480.762 80.6835V80.9117C480.762 80.9869 480.762 81.0622 480.762 81.1387V81.3656C480.762 81.4421 480.762 81.5174 480.762 81.5938V81.8208C480.762 81.8973 480.762 81.9726 480.762 82.0478C480.762 82.123 480.762 82.1995 480.762 82.276V82.503C480.762 82.5795 480.762 82.6547 480.762 82.73V82.9582C480.762 83.0334 480.762 83.1099 480.762 83.1851C480.762 83.2604 480.762 83.3369 480.762 83.4121V83.4058H480.754L480.797 83.3043Z" fill="#071A36"/>
<path d="M445.872 79.8445V83.1989H450.634V79.8445H445.872Z" fill="#071A36"/>
</g>
<defs>
<clipPath id="clip0_11_16509">
<rect width="556" height="251" fill="white"/>
</clipPath>
</defs>
</svg>
