<svg width="555" height="251" viewBox="0 0 555 251" fill="none" xmlns="http://www.w3.org/2000/svg">
<g clip-path="url(#clip0_11_16508)">
<path d="M0.0601623 178.444V21.6712H4.87774V28.8565H14.6849V25.4056H9.9706V21.7289H4.80891V18.1049H0.00854492V14.5135H4.90871V10.7516H9.86048V7.24422H14.7968V14.3819H10.048V18.0297H19.8948V25.2175H24.7605V21.8042H29.8224V14.3844H34.7914V17.9808H39.6417V21.6399H35.0237V25.2526H44.7552V18.1626L45.089 18.1501L45.4176 18.1388L45.7411 18.1262L46.0594 18.115L46.3742 18.1024L46.6857 18.0911L46.9954 18.0798L47.3016 18.0686L47.6079 18.0573L47.9124 18.046L48.2187 18.0347L48.5249 18.0234L48.8329 18.0121L49.1444 18.0008L49.4575 17.9896L49.7741 17.977V14.511H54.9134V10.7491H59.8789V17.9858H69.8788V21.6286H79.8203L79.8357 21.8719L79.8512 22.1101C79.8512 22.1879 79.8615 22.2669 79.8667 22.3434L79.8822 22.5754C79.8822 22.6518 79.8925 22.7271 79.896 22.8023C79.8994 22.8776 79.9063 22.9541 79.9114 23.028L79.8426 23.2588C79.8426 23.3328 79.8512 23.4067 79.8564 23.4795C79.8615 23.5522 79.8667 23.6274 79.8701 23.7002L79.8856 23.9209C79.8856 23.9936 79.8942 24.0676 79.8994 24.1403L79.9149 24.3598C79.9149 24.4338 79.9235 24.5065 79.9286 24.5805C79.9338 24.6545 79.939 24.7284 79.9424 24.8024L79.9579 25.0244C79.9579 25.0996 79.9682 25.1749 79.9717 25.2501H84.7307V18.204H89.7445L89.7599 18.4096C89.7599 18.4786 89.7685 18.5476 89.7737 18.6165L89.7892 18.8222L89.8047 19.0304C89.8047 19.0993 89.815 19.1683 89.8184 19.2385L89.8339 19.4467L89.8494 19.6561L89.8649 19.8668L89.8804 20.0787L89.8959 20.2931C89.8959 20.3633 89.901 20.4348 89.9114 20.5075L89.9268 20.7232L89.9423 20.9414C89.9423 21.0142 89.9526 21.0869 89.9595 21.1609L89.975 21.3828L89.9905 21.606H94.7496V18.0259H99.9113V21.6712H104.913V25.2075H109.7V21.7289H104.834V18.0836H99.8321V14.5486H109.751L109.767 14.7555C109.767 14.8245 109.775 14.8947 109.78 14.9637L109.796 15.1706L109.811 15.3788L109.827 15.5869L109.842 15.7963L109.858 16.0058L109.873 16.2177L109.889 16.4296L109.904 16.6428L109.92 16.8572C109.92 16.9287 109.932 17.0014 109.937 17.0729L109.952 17.2911L109.968 17.5105C109.968 17.5845 109.98 17.6585 109.985 17.7325C109.99 17.8065 109.995 17.8817 110.002 17.957H114.737V14.5562H119.932V21.7302H115.08V25.2187H119.853V23.2224C119.853 23.1484 119.853 23.0744 119.853 23.0005V21.6725H124.921V25.3153H129.923V28.8528H134.71V25.373H129.84V21.7289H124.839V18.1388H134.792V14.4483H139.919V25.2024H144.909V18.1802H154.888V21.7515H164.902V25.3341H170.019V32.4968H174.795V25.3905H169.864V21.7966H164.745L164.761 21.5772C164.761 21.5032 164.773 21.4305 164.778 21.3565C164.783 21.2825 164.79 21.2098 164.795 21.1358C164.801 21.0618 164.806 20.9891 164.813 20.9151C164.819 20.8411 164.823 20.7671 164.83 20.6931C164.837 20.6192 164.84 20.5439 164.847 20.4699C164.854 20.3959 164.857 20.3207 164.864 20.2455C164.871 20.1702 164.875 20.0962 164.881 20.0197C164.888 19.9433 164.893 19.8693 164.899 19.7928C164.904 19.7163 164.911 19.641 164.916 19.5646C164.921 19.4881 164.928 19.4116 164.935 19.3338C164.942 19.2561 164.947 19.1796 164.952 19.1006C164.957 19.0216 164.964 18.9451 164.971 18.8661C164.978 18.7871 164.983 18.7081 164.99 18.6291C164.997 18.5501 165.002 18.4686 165.009 18.3883C165.016 18.3081 165.021 18.2266 165.028 18.1451L165.324 18.135L165.618 18.125L165.91 18.1137L166.203 18.1037L166.497 18.0936L166.79 18.0836L167.084 18.0723L167.38 18.0623L167.677 18.0523L167.978 18.041L168.281 18.0309L168.587 18.0197L168.897 18.0084L169.21 17.9971L169.53 17.9858L169.854 17.9745V14.3881H174.708V10.798H169.854V7.19155H174.764C174.764 7.11004 174.776 7.02979 174.782 6.94953L174.797 6.71253C174.797 6.63478 174.807 6.55579 174.814 6.47929L174.83 6.24856L174.845 6.02159C174.845 5.94635 174.854 5.87111 174.859 5.79587L174.874 5.57267L174.89 5.35197L174.905 5.13127C174.905 5.05728 174.905 4.98455 174.919 4.91182L174.935 4.69237L174.95 4.47293C174.95 4.39894 174.959 4.32621 174.964 4.25223L174.979 4.03153L174.995 3.80957L175.01 3.58636H179.749V7.0486H184.95V10.7955H180.088V21.5722H184.871V10.7378H189.812V21.6712H194.936V25.2075H199.725V21.7289H194.859V14.5511H204.888V25.2576H209.81V18.1864H214.828V25.1937H219.843V18.1714H224.759V21.5571H229.788L229.803 21.3502C229.803 21.2825 229.814 21.2135 229.817 21.1446L229.833 20.9377L229.848 20.7295C229.848 20.6605 229.857 20.5903 229.862 20.5213L229.877 20.3107L229.893 20.1L229.908 19.8868C229.908 19.8166 229.908 19.7451 229.922 19.6736L229.938 19.4567L229.953 19.2398C229.953 19.1658 229.965 19.0931 229.97 19.0191L229.986 18.7971L230.001 18.5714C230.001 18.4962 230.012 18.4209 230.018 18.3444L230.034 18.1137H234.798V7.15895H239.946V18.0761H254.915V21.6098H259.951V14.5875H265.139V14.5812V14.575V14.5687V14.5624V15.1982C265.139 15.2684 265.139 15.3399 265.139 15.4114V18.0297H280.125V21.5672H285.051V18.0297H289.983V14.4721H300.135V10.7491H305.2V14.2891H315.147V10.9297H319.861V17.9444H324.883V10.9159H329.906V17.962H334.83V14.3844H359.985C359.985 14.4634 359.985 14.5424 359.985 14.6214V14.8571V15.0941V15.3311V15.5669C359.985 15.6459 359.985 15.7249 359.985 15.8039V16.0409V16.2766V16.5136V16.7506V16.9876V17.2234C359.985 17.3024 359.985 17.3814 359.985 17.4604V17.6974C359.985 17.7764 359.985 17.8554 359.985 17.9344V18.1714H354.995V25.2651H359.909V18.1175H360.22H360.532H360.843H361.156H361.468H361.779H362.092H362.404H362.715H363.028H363.34H363.651H363.962H364.276H364.587H364.898V28.9443H369.761V25.4445H374.675V21.7791H369.99V18.0961H364.828V14.3844H374.742C374.742 14.4634 374.742 14.5411 374.756 14.6189L374.771 14.8496C374.771 14.9261 374.771 15.0026 374.785 15.0778L374.8 15.3035C374.8 15.3788 374.8 15.454 374.814 15.528C374.828 15.602 374.814 15.676 374.828 15.75C374.842 15.8239 374.838 15.8979 374.842 15.9719C374.845 16.0459 374.852 16.1199 374.855 16.1926L374.871 16.4146C374.871 16.4873 374.871 16.5613 374.885 16.6353C374.898 16.7092 374.885 16.782 374.898 16.8572C374.912 16.9325 374.907 17.0052 374.912 17.0792L374.926 17.3036L374.941 17.5293C374.941 17.6046 374.95 17.6811 374.955 17.7576L374.971 17.9883H379.749V25.2187H384.773V21.8029H389.829V18.0334H394.915V21.6788H399.917V25.3153H414.912V28.8528H419.698V25.373H414.833V22.8312C414.833 22.7534 414.833 22.6769 414.833 22.5992V21.9057C414.833 21.8292 414.833 21.7515 414.833 21.675H419.812V14.5273H424.734V18.0134H439.956V25.3905H444.901V28.8728H449.936V25.3178H454.775V21.8368H450.015V25.3755H449.691H449.366H449.041H448.716H448.39H448.065H447.742H447.417H447.091H446.766H446.441H446.116H445.791H445.465H445.14H444.813V24.1215C444.813 23.9735 444.813 23.8256 444.813 23.6789V20.9828C444.813 20.8311 444.813 20.6781 444.813 20.5251V18.1726H454.868V14.5361H459.889V17.967H465.023V21.7289H460.169V25.2175H464.944V21.6725H469.903V18.0786H485.135V10.6801H485.126L485.118 10.6864H485.109H495.014C495.014 10.7641 495.014 10.8406 495.014 10.9184V12.0745C495.014 12.151 495.014 12.2288 495.014 12.3053V12.5373C495.014 12.6138 495.014 12.6915 495.014 12.768V13.2307C495.014 13.3085 495.014 13.385 495.014 13.4627V13.6934C495.014 13.7699 495.014 13.8477 495.014 13.9242V14.3869H490.159V17.9733H495.014V21.6186H500.016V25.1548H504.804V21.7289H499.939V18.0836H494.937V16.2365C494.937 16.16 494.937 16.0823 494.937 16.0058V15.7738C494.937 15.6973 494.937 15.6195 494.937 15.543V15.3111C494.937 15.2346 494.937 15.1568 494.937 15.0803V14.8446C494.937 14.7681 494.937 14.6903 494.937 14.6138C494.937 14.5374 494.937 14.4596 494.937 14.3819H499.926V10.7453H500.556H501.186H501.816H502.445H503.073H503.703H504.333H504.963H505.592H506.222H506.85H507.48H508.109H508.739H509.369H509.997V14.3555H514.887V18.0034H510.241V21.6524H514.904L514.919 21.8944C514.919 21.9747 514.931 22.0537 514.937 22.1327L514.952 22.3672L514.968 22.5979L514.983 22.8261C514.983 22.9026 514.993 22.9766 514.999 23.0519L515.014 23.2751L515.03 23.497L515.045 23.7165C515.045 23.7892 515.054 23.8632 515.059 23.9359L515.074 24.1541L515.088 24.3723L515.104 24.5918L515.119 24.8112L515.134 25.0319C515.134 25.1059 515.143 25.1799 515.148 25.2539H519.93V18.0949H525.071V21.7051H529.974C529.974 21.7866 529.986 21.8669 529.993 21.9471C530 22.0274 530.005 22.1064 530.01 22.1854C530.016 22.2644 530.023 22.3421 530.028 22.4199C530.033 22.4976 530.04 22.5741 530.045 22.6506L530.062 22.8776C530.062 22.9541 530.074 23.0293 530.079 23.1033C530.084 23.1773 530.09 23.2525 530.096 23.3265L530.112 23.5484C530.112 23.6224 530.124 23.6952 530.129 23.7691L530.145 23.9886C530.145 24.0613 530.157 24.134 530.162 24.2068L530.177 24.4262C530.177 24.499 530.189 24.5717 530.195 24.6457L530.21 24.8651C530.21 24.9391 530.222 25.0131 530.227 25.0871C530.232 25.1611 530.238 25.235 530.244 25.3103H534.993V21.764H539.983C539.983 21.6825 539.995 21.601 540 21.522C540.005 21.443 540.012 21.3615 540.019 21.2838C540.026 21.206 540.029 21.127 540.036 21.0493C540.043 20.9715 540.048 20.895 540.053 20.8185C540.059 20.742 540.064 20.6655 540.071 20.5903L540.086 20.3646C540.086 20.2906 540.098 20.2154 540.103 20.1414C540.108 20.0674 540.115 19.9934 540.12 19.9207L540.136 19.7C540.136 19.6273 540.148 19.5533 540.153 19.4805L540.169 19.2623C540.169 19.1884 540.181 19.1156 540.186 19.0429L540.201 18.8235C540.201 18.7507 540.213 18.6767 540.219 18.604L540.234 18.3821C540.234 18.3081 540.246 18.2341 540.251 18.1588H545.002V21.7063H555.132V178.444H0.0601623ZM284.961 32.488H289.805V28.8891H294.794V25.5159H289.873V28.9518H289.562H289.249H288.937H288.626H288.313H288.001H287.69H287.377H287.065H286.754H286.443H286.129H285.818H285.507H285.193H284.882V25.4921H280.116V28.9606H284.97V32.488H284.961ZM304.863 25.2288H309.904V21.6725H314.742V18.1927H309.983V21.7302H309.658H309.333H309.009H308.684H308.359H308.034H307.709H307.385H307.06H306.735H306.41H306.084H305.761H305.436H305.111H304.785C304.785 21.6574 304.785 21.5835 304.785 21.5095V21.2888C304.785 21.2148 304.785 21.1408 304.785 21.0668V20.8449C304.785 20.7709 304.785 20.6969 304.785 20.6229V19.9495C304.785 19.8743 304.785 19.799 304.785 19.7238V18.0936H300.157V21.754H304.87V25.235L304.863 25.2288ZM239.884 21.8493H235.096V25.3291H239.962V32.4918H244.738V25.3905H239.884V21.8493ZM335.114 21.7853V28.9017H339.835V25.4495L340.179 25.4369L340.508 25.4256L340.831 25.4144L341.15 25.4018L341.463 25.3905L341.774 25.3792L342.082 25.368L342.387 25.3579L342.691 25.3466L342.992 25.3354L343.295 25.3241L343.596 25.314L343.899 25.3028L344.202 25.2915L344.506 25.2802L344.809 25.2651V21.7853H335.117H335.114ZM189.716 32.5608V29.1111H180.034V32.5608H189.716ZM475.192 21.7427V25.2125H479.815V21.7427H475.192ZM54.7413 21.8518H50.0408V25.2375H54.7413V21.8518ZM540.122 28.8503H544.821V25.4645H540.122V28.8503ZM485.126 25.4382V28.8377H489.789V25.4382H485.126ZM434.767 28.9017V25.4796H430.122V28.9017H434.767ZM324.739 28.9017V25.4796H320.093V28.9017H324.739ZM465.106 29.091V32.4906H469.798V29.0935H465.106V29.091ZM305.033 36.1584H309.787V32.8028H305.033V36.161V36.1584ZM209.764 36.1961V32.7978H205.1V36.1961H209.764ZM124.832 32.789H120.069V36.1158H124.832V32.789ZM114.784 36.4067H110.03V39.7649H114.784V36.4118V36.4067ZM84.9733 39.8113H89.7272V36.4481H84.9733V39.8113Z" fill="#11448D"/>
<path d="M555 14.4157H550.182V18.061H555V14.4157Z" fill="#11448D"/>
<path d="M264.877 10.793V7.17904H260.06C260.06 7.09628 260.048 7.01603 260.042 6.93577C260.037 6.85552 260.03 6.77652 260.025 6.69752C260.02 6.61852 260.013 6.54077 260.008 6.46302L259.992 6.23104C259.992 6.15454 259.98 6.07931 259.975 6.00282L259.96 5.7771L259.944 5.55389L259.929 5.33194L259.913 5.11249L259.898 4.89304L259.882 4.6736L259.867 4.4554L259.851 4.23721L259.836 4.01777C259.836 3.94378 259.824 3.8698 259.819 3.79706L259.814 3.57135H255.127V10.7316H264.965L264.877 10.793Z" fill="#11448D"/>
<path d="M389.917 14.4446H394.919V18.0887H399.998C399.998 17.9357 399.998 17.7827 399.998 17.6297V17.1707V16.7118V16.2528V15.7939V15.3349C399.998 15.1819 399.998 15.029 399.998 14.876V14.417V13.9581V13.4991V13.0401V12.5812C399.998 12.4282 399.998 12.2752 399.998 12.1222V11.6633V11.2043V10.7454H389.926V14.3819L389.917 14.4446Z" fill="#11448D"/>
<path d="M524.952 18.0372H534.811V14.5123L534.525 14.501L534.241 14.4897L533.956 14.4784L533.668 14.4672L533.381 14.4546L533.092 14.4433L532.803 14.432L532.511 14.4208L532.215 14.4082L531.919 14.3969L531.619 14.3844L531.317 14.3731L531.01 14.3606L530.702 14.348L530.389 14.3355L530.073 14.3229V10.9184H525.031V18.0949V18.0886L524.952 18.0372Z" fill="#11448D"/>
<path d="M264.956 10.7353V10.9723V11.2093C264.956 11.2883 264.956 11.3673 264.956 11.4463V11.682C264.956 11.761 264.956 11.84 264.956 11.919V12.156V12.393C264.956 12.4721 264.956 12.551 264.956 12.63V12.8671C264.956 12.9461 264.956 13.0251 264.956 13.1041V13.3411C264.956 13.4201 264.956 13.4991 264.956 13.5781V13.8151C264.956 13.8941 264.956 13.9731 264.956 14.0521V14.2891C264.956 14.3681 264.956 14.4471 264.956 14.5261V14.5198V14.5135H274.727V10.8394H264.858L264.956 10.7353Z" fill="#11448D"/>
<path d="M239.867 7.1013H249.71V3.61273H239.946V7.15898L239.867 7.1013Z" fill="#11448D"/>
<path d="M139.84 14.3919H149.684V10.9033H139.919V14.4483H139.911L139.84 14.3919Z" fill="#11448D"/>
<path d="M24.8208 14.4445H29.8982V7.26929H24.8208V14.4445Z" fill="#11448D"/>
<path d="M549.826 7.23169H540.115V10.6325H549.826V7.23169Z" fill="#11448D"/>
<path d="M434.817 7.2179H430.171V10.6425H434.817V7.2179Z" fill="#11448D"/>
<path d="M399.91 10.7466H404.762V7.258H399.989V10.8042V10.798H399.981L399.91 10.7466Z" fill="#11448D"/>
<path d="M384.828 10.6601V7.27435H380.129V10.6601H384.828Z" fill="#11448D"/>
<path d="M359.794 10.8657V7.22919H355.164V10.8156H359.88H359.871L359.794 10.8657Z" fill="#11448D"/>
<path d="M304.892 10.7466H309.744V7.258H304.971V10.8042V10.798L304.892 10.7466Z" fill="#11448D"/>
<path d="M299.903 10.8055V7.26929H295.116V10.7478H299.98V10.7541L299.903 10.8055Z" fill="#11448D"/>
<path d="M224.865 10.793V7.26678H220.091V10.7353H224.945L224.865 10.793Z" fill="#11448D"/>
<path d="M210.043 7.25677V10.6764H214.705V7.25677H210.043Z" fill="#11448D"/>
<path d="M129.858 10.7378H134.696V7.25677H129.937V10.7955L129.858 10.7378Z" fill="#11448D"/>
<path d="M114.913 7.15894H110.075V10.64H114.834V7.10126L114.913 7.15894Z" fill="#11448D"/>
<path d="M104.746 10.64V7.2204H100.083V10.64H104.746Z" fill="#11448D"/>
<path d="M84.8324 10.793V7.15643H79.8428V10.793H84.8324Z" fill="#11448D"/>
<path d="M54.8342 10.8068V7.26929H50.0459V10.7478H54.9117V10.7541H54.903L54.8342 10.8068Z" fill="#11448D"/>
<path d="M4.82617 10.8068V7.26929H0.0378418V10.7478H4.90359V10.7541L4.82617 10.8068Z" fill="#11448D"/>
<path d="M480.011 10.8043H475.171V14.2841H479.932V10.7466L480.011 10.8043Z" fill="#11448D"/>
<path d="M469.812 10.808H465.19V14.2778H469.812V10.808Z" fill="#11448D"/>
<path d="M359.909 14.4446H364.988V10.8619H359.799H359.807C359.807 10.9384 359.807 11.0137 359.807 11.0902C359.807 11.1667 359.807 11.2419 359.807 11.3171C359.807 11.3924 359.807 11.4689 359.807 11.5441C359.807 11.6193 359.807 11.6958 359.807 11.7723C359.807 11.8488 359.807 11.9228 359.807 11.9993V12.2263C359.807 12.3015 359.807 12.378 359.807 12.4532C359.807 12.5285 359.807 12.605 359.807 12.6802C359.807 12.7554 359.807 12.8319 359.807 12.9072V13.3611C359.807 13.4376 359.807 13.5128 359.807 13.5893C359.807 13.6658 359.807 13.7398 359.807 13.8163V14.2702C359.907 14.2928 359.909 14.3681 359.909 14.4446Z" fill="#11448D"/>
<path d="M224.945 10.7353V14.2728H229.733V10.793H224.867V10.7867H224.876L224.945 10.7353Z" fill="#11448D"/>
<path d="M169.936 14.4446V10.7429H165.086V14.4446H169.936Z" fill="#11448D"/>
<path d="M155.031 10.9021V14.3204H159.694V10.9021H155.031Z" fill="#11448D"/>
<path d="M129.937 10.7955H125.083V14.284H129.858V10.7378L129.937 10.7955Z" fill="#11448D"/>
<path d="M84.908 10.7353V14.2728H89.6946V10.793H84.8323L84.8409 10.7867L84.908 10.7353Z" fill="#11448D"/>
<path d="M74.6929 10.8682H70.001V14.2678H74.6929V10.8682Z" fill="#11448D"/>
<path d="M40.084 14.3442H44.6917V10.8782H40.084V14.3442Z" fill="#11448D"/>
<path d="M404.921 18.0886H410V14.5549H404.921V18.0886Z" fill="#11448D"/>
<path d="M494.946 10.7993H500.025V7.16272H494.951V7.39345V7.62418V7.85491V8.0869V8.31763V8.54836V8.7791C494.951 8.85684 494.951 8.93333 494.951 9.00983V9.24181V9.47255V9.70328V9.93401V10.1647V10.3955V10.6275L494.946 10.7993Z" fill="#11448D"/>
<path d="M389.995 18.0886V14.3881H385.144V18.0886H389.995Z" fill="#11448D"/>
<path d="M279.887 18.0886H284.966V14.5549H279.887V18.0886Z" fill="#11448D"/>
<path d="M29.9136 0V3.32806H34.6761V0H29.9136Z" fill="#11448D"/>
<path d="M19.8191 18.0886H24.8982V14.3881H19.8191V18.0886Z" fill="#11448D"/>
<path d="M409.922 18.0322V21.734H415.008V18.0322H409.929H409.922Z" fill="#11448D"/>
<path d="M494.951 7.16149V3.62402H490.164V7.10381H495.03L494.951 7.16149Z" fill="#11448D"/>
<path d="M399.921 18.0322V21.734H404.998V18.0322H399.921Z" fill="#11448D"/>
<path d="M479.825 7.22168V3.58514H475.197V7.17152H479.911H479.902V7.17779H479.894L479.825 7.22168Z" fill="#11448D"/>
<path d="M200.057 7.03356H204.702V3.60895H200.057V7.03356Z" fill="#11448D"/>
<path d="M114.834 7.1013H119.687V3.61273H114.913V7.15898L114.834 7.1013Z" fill="#11448D"/>
<path d="M79.8428 7.16149V3.62402H75.0527V7.10381H79.9185H79.9099L79.8428 7.16149Z" fill="#11448D"/>
<path d="M509.94 10.7466H514.801V7.258H510.028V10.8042V10.798H510.019L509.94 10.7466Z" fill="#11448D"/>
<path d="M479.932 10.7466H480.257H480.581H480.906H481.231H481.556H481.881H482.207H482.53H482.855H483.18H483.506H483.831H484.156H484.481H484.806H485.133H485.125V10.7529H485.116H485.107C485.107 10.6839 485.107 10.6137 485.107 10.5447V9.91774C485.107 9.84752 485.107 9.7773 485.107 9.70707V7.21667H479.885H479.894C479.894 7.29191 479.894 7.36841 479.894 7.44364V7.67187V7.89884C479.894 7.97533 479.894 8.05057 479.894 8.12706V8.35403C479.894 8.43053 479.894 8.50576 479.894 8.58225V8.80922C479.894 8.88446 479.894 8.96096 479.894 9.03619V9.26442C479.894 9.33966 479.894 9.41615 479.894 9.49139C479.894 9.56663 479.894 9.64312 479.894 9.71836V9.94658C479.894 10.0218 479.894 10.0983 479.894 10.1736V10.4005C479.894 10.477 479.894 10.5523 479.894 10.6287C479.894 10.7052 479.894 10.7805 479.894 10.8557H479.885L479.932 10.7466Z" fill="#11448D"/>
<path d="M445.07 7.28687V10.645H449.824V7.28687H445.07Z" fill="#11448D"/>
<path d="M0.00854492 215.051V58.3137H10.1392V54.7675H14.8897L14.9052 54.9907L14.9224 55.2114C14.9224 55.2854 14.9327 55.3581 14.9396 55.4321L14.9551 55.6503C14.9551 55.7242 14.9654 55.797 14.9723 55.8697L14.9878 56.0892C14.9878 56.1619 14.9981 56.2346 15.005 56.3073L15.0204 56.528C15.0204 56.602 15.0308 56.676 15.0377 56.75L15.0531 56.9732C15.0531 57.0472 15.0652 57.1224 15.0703 57.1977C15.0755 57.2729 15.0824 57.3494 15.0876 57.4259C15.0927 57.5024 15.0996 57.5789 15.1048 57.6566C15.1099 57.7344 15.1168 57.8121 15.122 57.8911C15.1271 57.9701 15.134 58.0491 15.1409 58.1294C15.1478 58.2096 15.1512 58.2899 15.1581 58.3714H20.1477V61.86H24.8965C24.8965 61.7847 24.9085 61.7107 24.9137 61.6367L24.9292 61.416C24.9292 61.3421 24.9412 61.2693 24.9464 61.1954C24.9515 61.1214 24.9567 61.0486 24.9636 60.9759L24.9791 60.7577L24.9945 60.5383C24.9945 60.4655 25.0066 60.3915 25.0118 60.3188C25.0169 60.2461 25.0221 60.1721 25.029 60.0981L25.0444 59.8774C25.0444 59.8022 25.0565 59.7282 25.0616 59.6542C25.0668 59.5802 25.072 59.5037 25.0789 59.4285L25.0943 59.2003C25.0943 59.1238 25.1064 59.0473 25.1115 58.9695C25.1167 58.8918 25.1236 58.814 25.1305 58.735C25.1374 58.656 25.1408 58.577 25.1477 58.498C25.1546 58.419 25.1597 58.3363 25.1649 58.2548H30.0564V54.6446H35.1183V61.8073H39.8998C39.8998 61.7333 39.9084 61.6593 39.9135 61.5853L39.929 61.3646L39.9445 61.1452C39.9445 61.0725 39.9548 60.9997 39.9583 60.927L39.9738 60.7076L39.9892 60.4894C39.9892 60.4166 39.9892 60.3439 40.003 60.2699L40.0185 60.0505L40.034 59.8285L40.0495 59.6053L40.065 59.3808C40.065 59.3044 40.0649 59.2291 40.0804 59.1526L40.0959 58.9219L40.1114 58.6874L40.1269 58.4479C40.1269 58.3689 40.1389 58.2874 40.1441 58.2059H44.8068V54.5568H40.1613V50.9717H45.0529V47.3602H45.6826H46.3123H46.942H47.5718H48.1998H48.8295H49.4592H50.0889H50.7187H51.3484H51.9764H52.6061H53.2359H53.8656H54.4953H55.1233V50.9967H60.1129C60.1129 51.0732 60.1129 51.151 60.1129 51.2275V51.4595C60.1129 51.536 60.1129 51.6137 60.1129 51.6902C60.1129 51.7667 60.1129 51.8444 60.1129 51.9222V52.1529C60.1129 52.2307 60.1129 52.3072 60.1129 52.3849V54.232C60.1129 54.3098 60.1129 54.3862 60.1129 54.464V54.6947H55.0665V58.34H50.1939V61.8186H54.9822V58.2824H59.9822V54.6333H64.8238V51.0482H59.9667C59.9667 50.9704 59.9667 50.8939 59.9667 50.8162V50.5854C59.9667 50.5077 59.9667 50.4312 59.9667 50.3535V49.8907C59.9667 49.8142 59.9667 49.7378 59.9667 49.66V49.4293C59.9667 49.3515 59.9667 49.275 59.9667 49.1973V48.7346C59.9667 48.6581 59.9667 48.5803 59.9667 48.5038V48.2731C59.9667 48.1954 59.9667 48.1189 59.9667 48.0411V47.5784C59.9667 47.5019 59.9667 47.4242 59.9667 47.3477H69.9494H69.9408V47.3414H69.9322H69.9236V54.7399H85.1557V58.3338H90.1144V61.88H94.8287V58.3375H89.975V54.5756H95.1092V51.146H100.13V54.7825H110.183V60.2887C110.183 60.4367 110.183 60.5834 110.183 60.7314V61.6092C110.183 61.7559 110.183 61.9026 110.183 62.0493H109.858H109.533H109.207H108.882H108.557H108.232H107.907H107.582H107.256H106.931H106.608H106.283H105.957H105.632H105.307H104.982V58.4454H100.219V61.9252H105.057V63.2519C105.057 63.3246 105.057 63.3986 105.057 63.4726V65.4789H110.097V62.0067H115.042V54.6195H130.171V51.1322H135.093V58.2799H140.073V59.2053C140.073 59.2818 140.073 59.3583 140.073 59.436V61.9816H135.217V65.4601H140.004V61.9239H154.999V58.2874H160V54.6408H165.086V58.4103H170.143V61.8261H175.162V54.5957H179.945L179.96 54.3649C179.96 54.2884 179.969 54.2132 179.974 54.1367C179.979 54.0602 179.985 53.9862 179.988 53.911L180.003 53.6865C180.003 53.6125 180.012 53.5386 180.017 53.4646C180.022 53.3906 180.017 53.3166 180.031 53.2426C180.045 53.1686 180.04 53.0959 180.045 53.0219C180.05 52.9479 180.055 52.8752 180.058 52.8012L180.074 52.5805C180.074 52.5065 180.083 52.4326 180.088 52.3586C180.093 52.2846 180.088 52.2106 180.102 52.1354C180.115 52.0601 180.102 51.9861 180.115 51.9122L180.131 51.6852C180.131 51.6099 180.131 51.5335 180.145 51.457C180.158 51.3805 180.155 51.304 180.158 51.2262L180.174 50.993H190.088V51.6889C190.088 51.7654 190.088 51.8432 190.088 51.9209V53.0809C190.088 53.1574 190.088 53.2351 190.088 53.3116V54.2395C190.088 54.3173 190.088 54.395 190.088 54.4715V54.7035H184.926V58.3864H180.229V62.0518H185.141V65.4727H190.003V54.6458H190.315H190.626H190.938H191.251H191.562H191.874H192.187H192.498H192.81H193.121H193.434H193.746H194.057H194.37H194.682H194.993V61.7935H199.907V54.7813H194.917V54.5443C194.917 54.4653 194.917 54.3862 194.917 54.3072V54.0703V53.8345C194.917 53.7555 194.917 53.6765 194.917 53.5975V53.3605V53.1235C194.917 53.0445 194.917 52.9668 194.917 52.8878V52.6507V52.4137V52.178V51.941V51.704V51.4682V51.2312V50.9955H220.172V54.5706H225.094V47.5232H230.117V54.553H235.139V47.537H240.168V50.8939H250.115V47.3552H255.18V51.0783H265.331V54.6358H270.264V58.1733H275.19V54.637H290.174V53.4571C290.174 53.3818 290.174 53.3053 290.174 53.2313V51.7078C290.174 51.6375 290.174 51.5661 290.174 51.4958V51.072H290.166V51.0783H295.353V58.1005H300.389V54.6258H315.358V43.7086H320.205V54.7336H324.969L324.985 54.9631L325.002 55.1913L325.018 55.4158C325.018 55.491 325.023 55.565 325.033 55.6377L325.049 55.8584L325.064 56.0766L325.079 56.2923L325.095 56.5067L325.11 56.7187L325.126 56.9306L325.141 57.14C325.141 57.2102 325.141 57.2792 325.155 57.3481L325.171 57.5563C325.171 57.6253 325.181 57.6942 325.184 57.7632L325.2 57.9701L325.215 58.1758H330.245V54.79H335.16V61.8123H340.176V54.7938H345.193V61.865H350.115V51.1585H360.145V58.3363H355.279V61.8148H360.065V58.2786H365.189V47.3452H370.132V58.1795H374.919V47.4028H370.05V43.656H375.251V40.1937H379.99L380.005 40.4169L380.02 40.6401L380.036 40.8608C380.036 40.9336 380.045 41.0076 380.05 41.0803L380.065 41.2997L380.081 41.5192C380.081 41.5919 380.089 41.6659 380.094 41.7386L380.11 41.9593L380.125 42.1813C380.125 42.2553 380.125 42.3292 380.139 42.4032L380.155 42.6289L380.17 42.8559L380.186 43.0867C380.186 43.1644 380.196 43.2421 380.203 43.3211L380.218 43.5582L380.234 43.7989H385.144V47.4054H380.291V50.9967H385.144V54.5856L385.47 54.5969L385.788 54.6082L386.103 54.6195L386.412 54.6295L386.719 54.6408L387.021 54.6508L387.323 54.6621L387.62 54.6722L387.914 54.6834L388.21 54.6935L388.503 54.7035L388.795 54.7135L389.09 54.7248L389.382 54.7349L389.676 54.7449L389.972 54.7562C389.972 54.8377 389.986 54.9179 389.991 54.9982C389.996 55.0784 390.005 55.1587 390.01 55.239L390.029 55.476C390.029 55.555 390.041 55.634 390.048 55.7117C390.055 55.7894 390.06 55.8672 390.065 55.9437C390.07 56.0202 390.077 56.0979 390.084 56.1744C390.091 56.2509 390.094 56.3274 390.101 56.4039C390.108 56.4804 390.113 56.5556 390.118 56.6309C390.124 56.7061 390.131 56.7813 390.136 56.8566C390.141 56.9318 390.148 57.0058 390.153 57.0798C390.158 57.1538 390.165 57.229 390.17 57.303C390.175 57.377 390.182 57.451 390.187 57.525C390.192 57.5989 390.199 57.6729 390.205 57.7469C390.21 57.8209 390.215 57.8936 390.222 57.9664L390.237 58.1871C390.237 58.261 390.249 58.3338 390.254 58.4065H385.136V61.9941H380.28V69.0992H385.057V61.9365H390.174V58.3551H400.187V54.7838H410.166V61.806H415.156V50.9993H420.283V54.6897H430.235V58.2786H425.159V61.9816H420.292V65.4601H425.08V61.9239H430.082V58.2786H435.139V61.8261H439.913V58.3375H435.06V51.1648H440.256V54.5643H444.991C444.991 54.4891 445.003 54.4151 445.008 54.3411C445.013 54.2671 445.018 54.1919 445.023 54.1192C445.029 54.0464 445.035 53.9724 445.041 53.8985L445.056 53.6815L445.072 53.4646L445.089 53.2501L445.104 53.037L445.12 52.8251L445.135 52.6144L445.151 52.4037L445.166 52.1956L445.182 51.9861C445.182 51.9172 445.192 51.8482 445.195 51.7792L445.211 51.5711L445.226 51.3642L445.242 51.1573H455.159V54.691H450.159V58.3363H445.292V61.8148H450.08V58.2786H455.097V54.6333H460.259V58.2134H465.018L465.033 57.9902L465.049 57.7682C465.049 57.6955 465.059 57.6215 465.066 57.5488L465.082 57.3306L465.076 57.1162L465.092 56.9017L465.107 56.6886L465.123 56.4766L465.138 56.266L465.154 56.0553C465.154 55.9863 465.163 55.9161 465.168 55.8471L465.183 55.639L465.199 55.4321L465.214 55.2252C465.214 55.1562 465.214 55.0872 465.228 55.0183L465.243 54.8126H470.257V61.8524H475.014L475.03 61.628L475.045 61.4048C475.045 61.3308 475.054 61.2568 475.059 61.1828C475.064 61.1088 475.07 61.0361 475.073 60.9634L475.088 60.7427C475.088 60.6699 475.097 60.5972 475.102 60.5232C475.107 60.4492 475.113 60.3765 475.116 60.3038L475.131 60.0831C475.131 60.0091 475.14 59.9351 475.145 59.8611L475.161 59.6379C475.161 59.5627 475.171 59.4874 475.174 59.4122L475.19 59.184L475.205 58.9532L475.221 58.7187L475.236 58.4805L475.252 58.2385H485.207V54.6521H495.209V47.4141H500.174V51.1761H505.312V54.6433L505.63 54.6546L505.943 54.6659L506.253 54.6772L506.563 54.6885L506.869 54.6997L507.173 54.711L507.48 54.7223L507.786 54.7336L508.092 54.7449L508.402 54.7574L508.713 54.7687L509.028 54.78L509.347 54.7913L509.67 54.8038L509.999 54.8164L510.332 54.8277V61.9176H520.062V58.2447H515.446V54.5881H520.296V50.993H525.265V58.4115H530.327V61.8261H535.103V54.637H544.95V50.9892H540.287V43.8516H545.225V47.4141H550.177V51.1761H555.077V54.7662H550.193V58.3902H545.031V62.0669H540.31V65.5178H550.117V58.3325H554.943V215.105H0.00854492V215.051ZM270.039 65.5692H274.892V62.0995H270.118V65.6269H269.805H269.493H269.182H268.87H268.557H268.246H267.934H267.621H267.31H266.999H266.687H266.374H266.062H265.751H265.438H265.127V62.191H260.206V65.5655H265.195V69.1644H270.039V65.5692ZM250.135 58.3551H254.85V54.7687H250.221V56.1694C250.221 56.2459 250.221 56.3224 250.221 56.3976V57.2967C250.221 57.372 250.221 57.446 250.221 57.5199V57.7431C250.221 57.8171 250.221 57.8911 250.221 57.9639C250.221 58.0366 250.221 58.1118 250.221 58.1858V58.4065H249.896H249.571H249.246H248.922H248.597H248.272H247.947H247.622H247.296H246.973H246.648H246.322H245.997H245.672H245.349H245.023V54.8001H240.264V58.2811H245.103V61.8374H250.142V58.3551H250.135ZM315.116 61.9916H310.262V69.0967H315.043V61.9365H319.909V58.4579H315.121V61.9941L315.116 61.9916ZM210.194 58.3915V61.8813L210.5 61.8926L210.807 61.9026L211.109 61.9139L211.412 61.9252L211.713 61.9365L212.016 61.9465L212.317 61.9578L212.622 61.9691L212.926 61.9803L213.234 61.9916L213.544 62.0029L213.859 62.0142L214.177 62.0255L214.501 62.0368L214.829 62.0493L215.173 62.0606V65.509H219.895V58.394H210.203L210.194 58.3915ZM374.965 69.1656V65.7184H365.284V69.1681H374.967L374.965 69.1656ZM75.1851 58.3501V61.8211H79.8065V58.3501H75.1851ZM500.259 61.8487H504.959V58.4629H500.259V61.8487ZM14.8776 62.0694H10.1788V65.4551H14.8776V62.0694ZM65.2178 62.0468V65.4451H69.8806V62.0468H65.2178ZM124.882 65.5178V62.0869H120.236V65.5178H124.882ZM234.91 65.5178V62.0869H230.264V65.5178H234.91ZM85.2022 65.7084V69.1067H89.8942V65.7084H85.2022ZM249.967 69.4051H245.213V72.7633H249.967V69.4051ZM349.9 72.8022V69.4051H345.236V72.8047H349.9V72.8022ZM430.168 72.7244H434.931V69.4051H430.168V72.7332V72.7244ZM440.216 76.3722H444.97V73.0204H440.216V76.3773V76.3722ZM470.025 73.0505H465.271V76.4086H470.025V73.0555V73.0505Z" fill="#0B2F56"/>
<path d="M0.00854492 51.0231H4.82612V54.6684H0.00854492V51.0231Z" fill="#0B2F56"/>
<path d="M290.123 47.4004V43.7864H294.94L294.958 43.5432C294.958 43.4629 294.97 43.3839 294.975 43.3049C294.98 43.2259 294.985 43.1481 294.992 43.0704L295.008 42.8397C295.008 42.7619 295.018 42.6867 295.025 42.6114L295.04 42.3857L295.056 42.1613L295.071 41.9406L295.087 41.7199L295.102 41.5004L295.118 41.2822L295.133 41.0628L295.149 40.8446L295.164 40.6251L295.18 40.4044L295.195 40.1825H299.884V47.3427H290.044L290.123 47.4004Z" fill="#0B2F56"/>
<path d="M165.083 51.052H160.081V54.6973H155.002V54.2383C155.002 54.0853 155.002 53.9323 155.002 53.7794V53.3204V52.8614V52.4025V51.9435V51.4846C155.002 51.3316 155.002 51.1786 155.002 51.0256V50.5667V50.1077V49.6488V49.1898V48.7308C155.002 48.5779 155.002 48.4249 155.002 48.2719V47.8142V47.3552H165.074V50.9918L165.083 51.052Z" fill="#0B2F56"/>
<path d="M30.0566 54.6446H20.1978V51.1197L20.4816 51.1084L20.7673 51.0971L21.0529 51.0858L21.3385 51.0745L21.6275 51.0632L21.9149 51.0519L22.2057 51.0394L22.4981 51.0281L22.7924 51.0168L23.09 51.0043L23.3894 50.993L23.6922 50.9805L23.9985 50.9679L24.3065 50.9554L24.6196 50.9441L24.9362 50.9303V47.5258H29.9774V54.7023V54.696L30.0566 54.6446Z" fill="#0B2F56"/>
<path d="M290.044 47.3427V47.5797C290.044 47.6587 290.044 47.7377 290.044 47.8167V48.0537V48.2907C290.044 48.3697 290.044 48.4487 290.044 48.5277V48.7635V49.0005V49.2375V49.4745C290.044 49.5535 290.044 49.6325 290.044 49.7115V49.9485V50.1855V50.4225V50.6595V50.8965C290.044 50.9755 290.044 51.0545 290.044 51.1335V51.1272H280.271V47.4531H290.142V47.4468L290.044 47.3427Z" fill="#0B2F56"/>
<path d="M315.133 43.7087H305.29V40.2201H315.054V43.7663V43.7601L315.133 43.7087Z" fill="#0B2F56"/>
<path d="M415.16 50.9993H405.316V47.5107H415.08V51.057L415.16 50.9993Z" fill="#0B2F56"/>
<path d="M530.179 51.052H525.1V43.8767H530.179V51.052Z" fill="#0B2F56"/>
<path d="M5.17041 43.8391H14.883V47.2398H5.17041V43.8391Z" fill="#0B2F56"/>
<path d="M120.183 43.824H124.829V47.2486H120.183V43.824Z" fill="#0B2F56"/>
<path d="M155.09 47.3552H150.236V43.8654H155.011V47.4117L155.09 47.3552Z" fill="#0B2F56"/>
<path d="M170.172 47.2687V43.8829H174.871V47.2687H170.172Z" fill="#0B2F56"/>
<path d="M195.206 47.4744V43.8378H199.835V47.4242H195.12H195.129H195.138L195.206 47.4744Z" fill="#0B2F56"/>
<path d="M250.115 47.3552H245.263V43.8654H250.036V47.4117L250.115 47.3552Z" fill="#0B2F56"/>
<path d="M255.101 47.4142V43.8767H259.887V47.3565H255.022V47.3628L255.101 47.4142Z" fill="#0B2F56"/>
<path d="M330.133 47.4004V43.8742H334.909V47.344H330.055L330.133 47.4004Z" fill="#0B2F56"/>
<path d="M344.957 43.8641V47.2837H340.294V43.8641H344.957Z" fill="#0B2F56"/>
<path d="M425.142 47.3464H420.304V43.8641H425.063V47.4029L425.142 47.3464Z" fill="#0B2F56"/>
<path d="M440.087 43.7664H444.925V47.2474H440.166V43.7087L440.087 43.7664Z" fill="#0B2F56"/>
<path d="M450.254 47.2486V43.824H454.925V47.2436H450.262L450.254 47.2486Z" fill="#0B2F56"/>
<path d="M470.171 47.4004V43.7639H475.161V47.4004H470.171Z" fill="#0B2F56"/>
<path d="M500.166 47.4142V43.8767H504.952V47.3565H500.088V47.3628L500.166 47.4142Z" fill="#0B2F56"/>
<path d="M550.179 47.4142V43.8767H554.966V47.3565H550.102V47.3628L550.179 47.4142Z" fill="#0B2F56"/>
<path d="M74.989 47.4117H79.8272V50.8927H75.0682V47.3552L74.989 47.4117Z" fill="#0B2F56"/>
<path d="M85.1868 47.4154H89.8099V50.8852H85.1868V47.4154Z" fill="#0B2F56"/>
<path d="M195.091 51.052H190.012V47.4694H195.199H195.191H195.182C195.182 47.5446 195.182 47.6211 195.182 47.6963C195.182 47.7716 195.182 47.8481 195.182 47.9233C195.182 47.9985 195.182 48.075 195.182 48.1515V48.3785C195.182 48.4537 195.182 48.5302 195.182 48.6055C195.182 48.6807 195.182 48.7572 195.182 48.8324C195.182 48.9077 195.182 48.9842 195.182 49.0594C195.182 49.1346 195.182 49.2111 195.182 49.2876V49.4669C195.182 49.5422 195.182 49.6174 195.182 49.6939V49.9209C195.182 49.9961 195.182 50.0726 195.182 50.1479V50.3748C195.182 50.4501 195.182 50.5266 195.182 50.6018C195.182 50.677 195.182 50.7535 195.182 50.8288C195.182 50.904 195.091 50.9717 195.091 51.052Z" fill="#0B2F56"/>
<path d="M330.055 47.3439V50.8802H325.267V47.4016H330.129L330.055 47.3439Z" fill="#0B2F56"/>
<path d="M385.07 51.052V47.3502H389.921V51.052H385.07Z" fill="#0B2F56"/>
<path d="M399.972 47.5095V50.9291H395.308V47.5095H399.972Z" fill="#0B2F56"/>
<path d="M425.063 47.4029H429.917V50.8914H425.142V47.3464H425.134V47.3527L425.063 47.4029Z" fill="#0B2F56"/>
<path d="M470.092 47.3439V50.8802H465.305V47.4016H470.168L470.092 47.3439Z" fill="#0B2F56"/>
<path d="M480.307 47.4769H484.999V50.8751H480.307V47.4769Z" fill="#0B2F56"/>
<path d="M514.916 50.9516H510.308V47.4869H514.916V50.9516Z" fill="#0B2F56"/>
<path d="M150.078 54.6973H145V51.1623H150.078V54.6973Z" fill="#0B2F56"/>
<path d="M60.0562 47.4066H54.9753V43.7701H60.0562V44.0008V44.2328V44.4635V44.6943V44.925V45.1557V45.3877V45.6184V45.8492C60.0562 45.9257 60.0562 46.0034 60.0562 46.0799V46.3106V46.5414V46.7734V47.0041V47.2348V47.4066Z" fill="#0B2F56"/>
<path d="M165.01 54.6973V50.9955H169.861V54.6973H165.01Z" fill="#0B2F56"/>
<path d="M275.111 54.6973H270.034V51.1623H275.111V54.6973Z" fill="#0B2F56"/>
<path d="M525.086 36.6086V39.9367H520.324V36.6086H525.086Z" fill="#0B2F56"/>
<path d="M535.181 54.6973H530.102V50.9955H535.181V54.6973Z" fill="#0B2F56"/>
<path d="M145.078 54.6409V58.3426H139.999V54.6409H145.078Z" fill="#0B2F56"/>
<path d="M60.0562 43.7688V40.2326H64.8428V43.7111H59.9736L60.0562 43.7688Z" fill="#0B2F56"/>
<path d="M155.079 54.6409V58.3426H150V54.6409H155.079Z" fill="#0B2F56"/>
<path d="M75.1749 43.824V40.1875H79.8032V43.7751H75.0889H75.0975H75.1061H75.1147H75.1233L75.1749 43.824Z" fill="#0B2F56"/>
<path d="M354.943 43.6422H350.298V40.2163H354.943V43.6422Z" fill="#0B2F56"/>
<path d="M440.166 43.7087H435.311V40.2214H440.085V43.7664L440.166 43.7087Z" fill="#0B2F56"/>
<path d="M475.159 43.7688V40.2326H479.946V43.7111H475.083L475.159 43.7688Z" fill="#0B2F56"/>
<path d="M45.0597 47.3552H40.2078V43.8654H44.9806V47.4117L45.0597 47.3552Z" fill="#0B2F56"/>
<path d="M75.0682 47.3552H74.743H74.4178H74.0944H73.7692H73.444H73.1188H72.7936H72.4684H72.1432H71.8198H71.4946H71.1694H70.8425H70.5173H70.1921H69.8669H69.8755H69.8842H69.8928C69.8928 47.285 69.8928 47.216 69.8928 47.1458V46.7082C69.8928 46.638 69.8928 46.569 69.8928 46.4988V43.824H75.1112H75.1026H75.094H75.0854V44.051V44.2792C75.0854 44.3557 75.0854 44.431 75.0854 44.5075V44.7344C75.0854 44.8109 75.0854 44.8862 75.0854 44.9627V45.1896C75.0854 45.2649 75.0854 45.3414 75.0854 45.4166V45.6448C75.0854 45.7201 75.0854 45.7965 75.0854 45.8718V46.0988V46.327V46.554C75.0854 46.6304 75.0854 46.7057 75.0854 46.7809C75.0854 46.8562 75.0854 46.9327 75.0854 47.0091V47.2361V47.4631H75.094L75.0682 47.3552Z" fill="#0B2F56"/>
<path d="M109.93 43.8955V47.2524H105.176V43.8955H109.93Z" fill="#0B2F56"/>
<path d="M0.0601623 251.001V94.234H4.87774V101.419H14.6849V97.9683H9.9706V94.2916H4.80891V90.6677H0.00854492V87.0712H4.90871V83.3093H9.86048V79.8007H14.7968V86.9383H10.048V90.5861H19.8948V97.7752H24.7605V94.3594H29.8224V86.9421H34.7914V90.5372H39.6417V94.1963H35.0237V97.8091H44.7552V90.7228L45.089 90.7115L45.4176 90.699L45.7411 90.6865L46.0594 90.6752L46.3742 90.6639L46.6857 90.6526L46.9954 90.6401L47.3016 90.6288L47.6079 90.6175L47.9124 90.6062L48.2187 90.5949L48.5249 90.5836L48.8329 90.5724L49.1444 90.5611L49.4575 90.5498L49.7741 90.5385V87.0675H54.9134V83.3055H59.8789V90.5974H69.8788V94.1838H79.8203L79.8357 94.4258L79.8512 94.6641L79.8667 94.8986L79.8822 95.1293C79.8822 95.2058 79.8925 95.2823 79.896 95.3575L79.9114 95.5832L79.9269 95.8065C79.9269 95.8804 79.9355 95.9544 79.9407 96.0284C79.9459 96.1024 79.951 96.1751 79.9545 96.2491L79.9699 96.4685C79.9699 96.5425 79.9785 96.6153 79.9837 96.688L79.9992 96.9087C79.9992 96.9814 80.0078 97.0554 80.013 97.1281C80.0181 97.2009 80.0233 97.2761 80.0267 97.3501L80.0422 97.5733C80.0422 97.6473 80.0525 97.7225 80.056 97.7978H84.815V90.7605H89.8288L89.8442 90.9661C89.8442 91.0351 89.8528 91.104 89.858 91.173L89.8735 91.3799L89.889 91.5868C89.889 91.6558 89.8993 91.726 89.9027 91.795L89.9182 92.0031L89.9337 92.2138L89.9492 92.4245L89.9647 92.6364L89.9802 92.8496L89.9957 93.064L90.0111 93.2797L90.0266 93.4979C90.0266 93.5706 90.037 93.6446 90.0438 93.7173L90.0593 93.9393L90.0748 94.1625H94.8339V90.5824H99.9956V94.234H104.997V97.7702H109.784V94.2916H104.834V90.6463H99.8321V87.1064H109.751L109.767 87.3133C109.767 87.3822 109.775 87.4512 109.78 87.5202L109.796 87.7283L109.811 87.9352L109.827 88.1446L109.842 88.3528L109.858 88.5635L109.873 88.7741L109.889 88.9861L109.904 89.1992L109.92 89.4137C109.92 89.4864 109.932 89.5579 109.937 89.6306L109.952 89.845L109.968 90.0657C109.968 90.1385 109.98 90.2125 109.985 90.2877C109.99 90.3629 109.995 90.4357 110.002 90.5109H114.737V87.1139H119.932V94.2866H115.08V97.7765H119.853V95.7789C119.853 95.7061 119.853 95.6322 119.853 95.5582V94.234H124.921V97.8705H129.923V101.407H134.71V97.9282H129.84V94.2829H124.839V90.694H134.792V87.006H139.919V97.8178H144.909V90.7956H154.888V94.3669H164.902V97.9482H170.019V105.111H174.795V98.0059H169.864V94.3594H164.745L164.761 94.1399C164.761 94.0672 164.773 93.9932 164.778 93.9192C164.783 93.8452 164.79 93.7725 164.795 93.6998C164.801 93.627 164.806 93.5518 164.813 93.4778C164.819 93.4038 164.823 93.3298 164.83 93.2559C164.837 93.1819 164.84 93.1079 164.847 93.0327C164.854 92.9574 164.857 92.8834 164.864 92.8094C164.871 92.7355 164.875 92.659 164.881 92.5837C164.888 92.5085 164.893 92.432 164.899 92.3568C164.904 92.2815 164.911 92.2038 164.916 92.1273C164.921 92.0508 164.928 91.9743 164.935 91.8965C164.942 91.8188 164.947 91.7423 164.952 91.6646C164.957 91.5868 164.964 91.5078 164.971 91.4288C164.978 91.3498 164.983 91.2708 164.99 91.1918C164.997 91.1128 165.002 91.0326 165.009 90.951C165.016 90.8695 165.021 90.7905 165.028 90.709L165.324 90.6978L165.618 90.6877L165.91 90.6777L166.203 90.6664L166.497 90.6564L166.79 90.6463L167.084 90.6363L167.38 90.625L167.677 90.615L167.978 90.6037L168.281 90.5937L168.587 90.5824L168.897 90.5724L169.21 90.5611L169.53 90.5498L169.854 90.5385V86.9458H174.708V83.3545H169.854V79.748H174.764C174.764 79.6665 174.776 79.5862 174.782 79.5072L174.797 79.269C174.797 79.1912 174.807 79.1135 174.814 79.0358L174.83 78.805L174.845 78.5781C174.845 78.5028 174.854 78.4276 174.859 78.3523L174.874 78.1304L174.89 77.9084L174.905 77.6877C174.905 77.615 174.905 77.541 174.919 77.4683L174.935 77.2488L174.95 77.0294C174.95 76.9567 174.959 76.8827 174.964 76.8099L174.979 76.5892L174.995 76.366L175.01 76.1428H179.749V79.6051H184.95V83.3519H180.088V94.1286H184.871V83.2943H189.812V94.234H194.936V97.7702H199.725V94.2916H194.859V87.1076H204.888V97.8141H209.81V90.7429H214.828V97.7514H219.843V90.7291H224.759V94.1148H229.788L229.803 93.9092C229.803 93.8402 229.814 93.7712 229.817 93.7023L229.833 93.4954L229.848 93.2872C229.848 93.2182 229.857 93.1493 229.862 93.0791L229.877 92.8696L229.893 92.6577L229.908 92.4458C229.908 92.3743 229.908 92.3028 229.922 92.2314L229.938 92.0157L229.953 91.7975C229.953 91.7247 229.965 91.6508 229.97 91.5768L229.986 91.3548L230.001 91.1304C230.001 91.0551 230.012 90.9786 230.018 90.9022L230.034 90.6727H234.798V79.7154H239.946V90.6325H254.915V94.1086H259.951V87.0863H265.139V87.08V87.0738V87.7095C265.139 87.781 265.139 87.8512 265.139 87.9227V90.6388H280.125V94.1763H285.051V90.6388H289.983V87.0286H300.135V83.3055H305.2V86.8443H315.147V83.4861H319.861V90.5084H324.883V83.4723H329.906V90.5197H334.83V86.9421H359.985C359.985 87.0198 359.985 87.0988 359.985 87.1778V87.4148V87.6506V87.8876V88.1246C359.985 88.2036 359.985 88.2813 359.985 88.3603V88.5973V88.8343V89.0701V89.3071V89.5441V89.7811C359.985 89.8601 359.985 89.9391 359.985 90.0168V90.2538C359.985 90.3328 359.985 90.4118 359.985 90.4908V90.7278H354.995V97.8178H359.909V90.6702H360.22H360.532H360.843H361.156H361.468H361.779H362.092H362.404H362.715H363.028H363.34H363.651H363.962H364.276H364.587H364.898V101.497H369.761V97.9959H374.675V94.3305H369.99V90.6476H364.828V86.9421H374.742C374.742 87.0198 374.742 87.0976 374.756 87.1753L374.771 87.4061C374.771 87.4825 374.771 87.559 374.785 87.6343L374.8 87.8612C374.8 87.9352 374.8 88.0105 374.814 88.0845C374.828 88.1584 374.814 88.2337 374.828 88.3077C374.842 88.3816 374.838 88.4556 374.842 88.5296C374.845 88.6036 374.852 88.6763 374.855 88.7503L374.871 88.971C374.871 89.045 374.871 89.1177 374.885 89.1917C374.898 89.2657 374.885 89.3397 374.898 89.4137C374.912 89.4877 374.907 89.5616 374.912 89.6356L374.926 89.8601L374.941 90.0858C374.941 90.1623 374.95 90.2375 374.955 90.314L374.971 90.5448H379.749V97.7752H384.773V94.3594H389.829V90.5899H394.915V94.234H399.917V97.8705H414.912V101.407H419.698V97.9282H414.833V95.3876C414.833 95.3099 414.833 95.2334 414.833 95.1569V94.4634C414.833 94.3857 414.833 94.3092 414.833 94.2315H419.812V87.0863H424.734V90.5736H439.956V97.9545H444.901V101.436H449.936V97.8705H454.775V94.3907H450.015V97.9282H449.691H449.366H449.041H448.716H448.39H448.065H447.742H447.417H447.091H446.766H446.441H446.116H445.791H445.465H445.14H444.813V96.6052C444.813 96.4573 444.813 96.3106 444.813 96.1626V93.4678C444.813 93.3148 444.813 93.1618 444.813 93.0088V90.6564H454.868V87.0198H459.889V90.452H465.023V94.2139H460.169V97.7037H464.944V94.234H469.903V90.6351H485.135V83.2366H485.126H485.118H485.109H495.014C495.014 83.3131 495.014 83.3908 495.014 83.4673V84.6235C495.014 84.7012 495.014 84.7777 495.014 84.8555V85.0862C495.014 85.1639 495.014 85.2404 495.014 85.3182V85.7796C495.014 85.8574 495.014 85.9339 495.014 86.0116V86.2424C495.014 86.3201 495.014 86.3966 495.014 86.4743V86.9371H490.159V90.5222H495.014V94.234H500.016V97.7702H504.804V94.2916H499.939V90.6463H494.937V88.7955C494.937 88.719 494.937 88.6412 494.937 88.5647V88.334C494.937 88.2563 494.937 88.1798 494.937 88.102V87.8713C494.937 87.7935 494.937 87.717 494.937 87.6393V87.4086C494.937 87.3308 494.937 87.2543 494.937 87.1766C494.937 87.0988 494.937 87.0223 494.937 86.9458H499.926V83.2968H500.556H501.186H501.816H502.445H503.073H503.703H504.333H504.963H505.592H506.222H506.85H507.48H508.109H508.739H509.369H509.997V86.9082H514.887V90.5561H510.241V94.2051H514.904C514.904 94.2866 514.914 94.3681 514.919 94.4471C514.925 94.5261 514.931 94.6076 514.937 94.6866L514.952 94.9211L514.968 95.1519L514.983 95.3801L514.999 95.6046L515.014 95.8278L515.03 96.0497L515.045 96.2692C515.045 96.3432 515.054 96.4159 515.059 96.4886L515.074 96.7068C515.074 96.7808 515.085 96.8535 515.088 96.9263L515.104 97.1444L515.119 97.3639L515.134 97.5846C515.134 97.6586 515.143 97.7326 515.148 97.8065H519.93V90.6438H525.071V94.254H529.974C529.974 94.3355 529.986 94.417 529.993 94.496C530 94.575 530.005 94.6553 530.01 94.7343C530.016 94.8133 530.023 94.891 530.028 94.9688C530.033 95.0465 530.04 95.123 530.045 95.1995L530.062 95.4278C530.062 95.503 530.074 95.5782 530.079 95.6522C530.084 95.7262 530.09 95.8014 530.096 95.8767L530.112 96.0974C530.112 96.1714 530.124 96.2453 530.129 96.3181L530.145 96.5375C530.145 96.6103 530.157 96.683 530.162 96.757L530.177 96.9752C530.177 97.0479 530.189 97.1219 530.195 97.1946L530.21 97.4153C530.21 97.488 530.222 97.562 530.227 97.636C530.232 97.71 530.238 97.784 530.244 97.8592H534.993V94.3706H539.983C539.983 94.2891 539.995 94.2089 540 94.1286C540.005 94.0484 540.012 93.9694 540.019 93.8904C540.026 93.8114 540.029 93.7336 540.036 93.6559C540.043 93.5781 540.048 93.5016 540.053 93.4252C540.059 93.3487 540.064 93.2734 540.071 93.1969L540.086 92.9725C540.086 92.8972 540.098 92.8232 540.103 92.7493C540.108 92.6753 540.115 92.6013 540.12 92.5273L540.136 92.3066C540.136 92.2339 540.148 92.1611 540.153 92.0884L540.169 91.869C540.169 91.7962 540.181 91.7235 540.186 91.6495L540.201 91.4313C540.201 91.3573 540.213 91.2846 540.219 91.2106L540.234 90.9887C540.234 90.9147 540.246 90.8407 540.251 90.7667H545.002V94.313H555.132V251.001H0.0601623ZM284.961 105.045H289.805V101.446H294.794V98.0711H289.873V101.507H289.562H289.249H288.937H288.626H288.313H288.001H287.69H287.377H287.065H286.754H286.443H286.129H285.818H285.507H285.193H284.882V97.9796H280.116V101.449H284.97V104.976L284.961 105.045ZM304.863 97.7865H309.904V94.234H314.742V90.7529H309.983V94.2904H309.658H309.333H309.009H308.684H308.359H308.034H307.709H307.385H307.06H306.735H306.41H306.084H305.761H305.436H305.111H304.785C304.785 94.2164 304.785 94.1424 304.785 94.0697V93.8477C304.785 93.775 304.785 93.701 304.785 93.627V93.4051C304.785 93.3311 304.785 93.2571 304.785 93.1819V92.5097C304.785 92.4345 304.785 92.358 304.785 92.2828V90.6526H300.157V94.239H304.87V97.7213L304.863 97.7865ZM239.884 94.407H235.096V97.8855H239.962V105.048H244.738V97.9432H239.884V94.407ZM335.114 94.3431V101.454H339.835V98.0059L340.179 97.9946L340.508 97.9821L340.831 97.9708L341.15 97.9595L341.463 97.9482L341.774 97.937L342.082 97.9257L342.387 97.9144L342.691 97.9031L342.992 97.8918L343.295 97.8818L343.596 97.8705L343.899 97.8592L344.202 97.8479L344.506 97.8379L344.814 97.8266V94.3431H335.122H335.114ZM189.716 105.117V101.668H180.034V105.117H189.716ZM475.192 94.2992V97.7702H479.815V94.2992H475.192ZM54.7413 94.4083H50.0408V97.794H54.7413V94.4083ZM540.122 101.407H544.821V98.021H540.122V101.407ZM485.126 97.9959V101.394H489.789V97.9959H485.126ZM434.767 101.461V98.036H430.122V101.461H434.767ZM324.739 101.461V98.036H320.093V101.461H324.739ZM465.106 101.651V105.05H469.798V101.651H465.106ZM305.033 108.717H309.787V105.359H305.033V108.717ZM209.764 108.756V105.357H205.1V108.756H209.764ZM124.832 105.35H120.069V108.679H124.832V105.35ZM114.784 108.969H110.03V112.326H114.784V108.969ZM84.9733 112.363H89.7272V109.005H84.9733V112.363Z" fill="#071A36"/>
<path d="M555 86.9734H550.182V90.6175H555V86.9734Z" fill="#071A36"/>
<path d="M264.877 83.3494V79.7355H260.06C260.06 79.654 260.048 79.5724 260.042 79.4922C260.037 79.4119 260.03 79.3329 260.025 79.2539C260.02 79.1749 260.013 79.0972 260.008 79.0194L259.993 78.7887C259.993 78.711 259.98 78.6357 259.975 78.5605C259.97 78.4852 259.965 78.4088 259.96 78.3348L259.944 78.1103L259.929 77.8896L259.913 77.6689L259.898 77.4495L259.882 77.2313L259.867 77.0118L259.851 76.7936L259.836 76.5742C259.836 76.5002 259.824 76.4275 259.819 76.3535L259.803 76.1315H255.116V83.2917H264.955L264.877 83.3494Z" fill="#071A36"/>
<path d="M389.917 87.001H394.919V90.6463H399.998C399.998 90.4933 399.998 90.3403 399.998 90.1873V89.7284V89.2694V88.8105V88.3515V87.8926C399.998 87.7396 399.998 87.5866 399.998 87.4336V86.9746V86.5157V86.0567V85.5978V85.1388C399.998 84.9858 399.998 84.8329 399.998 84.6799V84.2209V83.7632V83.3043H389.926V86.9408L389.917 87.001Z" fill="#071A36"/>
<path d="M524.952 90.5974H534.811V87.0687L534.525 87.0574L534.241 87.0461L533.956 87.0348L533.668 87.0235L533.381 87.0123L533.092 87.001L532.803 86.9884L532.511 86.9772L532.215 86.9659L531.919 86.9533L531.619 86.942L531.317 86.9295L531.01 86.917L530.702 86.9044L530.389 86.8931L530.073 86.8793V83.4748H525.031V90.6513L524.952 90.5974Z" fill="#071A36"/>
<path d="M264.956 83.2917V83.5288V83.7658C264.956 83.8448 264.956 83.9238 264.956 84.0028V84.2398C264.956 84.3188 264.956 84.3978 264.956 84.4768V84.7125V84.9495C264.956 85.0285 264.956 85.1075 264.956 85.1865V85.4235C264.956 85.5025 264.956 85.5815 264.956 85.6605V85.8975C264.956 85.9765 264.956 86.0555 264.956 86.1345V86.3715C264.956 86.4505 264.956 86.5295 264.956 86.6085V86.8455C264.956 86.9245 264.956 87.0035 264.956 87.0825V87.0763H274.729V83.3494H264.856L264.956 83.2917Z" fill="#071A36"/>
<path d="M239.867 79.6577H249.71V76.1691H239.946V79.7154L239.867 79.6577Z" fill="#071A36"/>
<path d="M139.84 86.9483H149.684V83.4598H139.919V87.006H139.911L139.84 86.9483Z" fill="#071A36"/>
<path d="M24.8208 87.001H29.8982V79.8257H24.8208V87.001Z" fill="#071A36"/>
<path d="M549.826 79.7894H540.115V83.1889H549.826V79.7894Z" fill="#071A36"/>
<path d="M434.817 79.7756H430.171V83.1989H434.817V79.7756Z" fill="#071A36"/>
<path d="M399.91 83.3043H404.762V79.8132H399.989V83.3594V83.3532H399.981L399.91 83.3043Z" fill="#071A36"/>
<path d="M384.828 83.2178V79.832H380.129V83.2178H384.828Z" fill="#071A36"/>
<path d="M359.794 83.4234V79.7869H355.164V83.3732H359.88H359.871L359.794 83.4234Z" fill="#071A36"/>
<path d="M304.892 83.3043H309.744V79.8132H304.971V83.3594V83.3532L304.892 83.3043Z" fill="#071A36"/>
<path d="M299.903 83.3632V79.8257H295.116V83.3055H299.98L299.903 83.3632Z" fill="#071A36"/>
<path d="M224.865 83.3494V79.8232H220.091V83.293H224.945L224.865 83.3494Z" fill="#071A36"/>
<path d="M210.043 79.8132V83.2328H214.705V79.8132H210.043Z" fill="#071A36"/>
<path d="M129.858 83.2942H134.696V79.8132H129.937V83.3506L129.858 83.2942Z" fill="#071A36"/>
<path d="M114.913 79.7154H110.075V83.1989H114.834V79.6577L114.913 79.7154Z" fill="#071A36"/>
<path d="M104.746 83.1989V79.7781H100.083V83.1989H104.746Z" fill="#071A36"/>
<path d="M84.8324 83.3494V79.7129H79.8428V83.3494H84.8324Z" fill="#071A36"/>
<path d="M54.8342 83.3632V79.8257H50.0459V83.3055H54.9117H54.903L54.8342 83.3632Z" fill="#071A36"/>
<path d="M4.82617 83.3632V79.8257H0.0378418V83.3055H4.90359L4.82617 83.3632Z" fill="#071A36"/>
<path d="M480.011 83.3607H475.171V86.8417H479.932V83.3043L480.011 83.3607Z" fill="#071A36"/>
<path d="M469.812 83.3644H465.19V86.8355H469.812V83.3644Z" fill="#071A36"/>
<path d="M359.909 87.001H364.988V83.4184H359.799V83.4121H359.807C359.807 83.4873 359.807 83.5638 359.807 83.6391C359.807 83.7143 359.807 83.7908 359.807 83.866C359.807 83.9413 359.807 84.0178 359.807 84.0943C359.807 84.1708 359.807 84.2448 359.807 84.3212C359.807 84.3977 359.807 84.473 359.807 84.5482V84.7752C359.807 84.8517 359.807 84.9269 359.807 85.0022C359.807 85.0774 359.807 85.1539 359.807 85.2304C359.807 85.3069 359.807 85.3809 359.807 85.4573V85.9113C359.807 85.9865 359.807 86.063 359.807 86.1383C359.807 86.2135 359.807 86.29 359.807 86.3652V86.8192C359.907 86.8493 359.909 86.9258 359.909 87.001Z" fill="#071A36"/>
<path d="M224.945 83.293V86.8355H229.733V83.3507H224.869L224.877 83.3444L224.945 83.293Z" fill="#071A36"/>
<path d="M169.936 87.001V83.2993H165.086V87.001H169.936Z" fill="#071A36"/>
<path d="M155.031 83.4585V86.8781H159.694V83.4585H155.031Z" fill="#071A36"/>
<path d="M129.937 83.3519H125.083V86.8354H129.858V83.2955L129.937 83.3519Z" fill="#071A36"/>
<path d="M84.908 83.293V86.8355H89.6946V83.3507H84.8323H84.8409V83.3444L84.908 83.293Z" fill="#071A36"/>
<path d="M74.6929 83.4259H70.001V86.8242H74.6929V83.4259Z" fill="#071A36"/>
<path d="M40.084 86.9007H44.6917V83.4359H40.084V86.9007Z" fill="#071A36"/>
<path d="M404.921 90.6463H410V87.1113H404.921V90.6463Z" fill="#071A36"/>
<path d="M494.946 83.3557H500.025V79.7191H494.951V79.9499V80.1818V80.4126V80.6433V80.874V81.1048V81.3355C494.951 81.4132 494.951 81.4897 494.951 81.5675V81.7982V82.0289V82.2597V82.4904V82.7224V82.9531V83.1839L494.946 83.3557Z" fill="#071A36"/>
<path d="M389.995 90.6463V86.9446H385.144V90.6463H389.995Z" fill="#071A36"/>
<path d="M279.887 90.6463H284.966V87.1113H279.887V90.6463Z" fill="#071A36"/>
<path d="M29.9136 72.5577V75.8845H34.6761V72.5577H29.9136Z" fill="#071A36"/>
<path d="M19.8191 90.6463H24.8982V86.9446H19.8191V90.6463Z" fill="#071A36"/>
<path d="M409.922 90.5898V94.2916H415.008V90.5898H409.929H409.922Z" fill="#071A36"/>
<path d="M494.951 79.7179V76.1766H490.164V79.6552H495.026V79.6614L494.951 79.7179Z" fill="#071A36"/>
<path d="M399.921 90.5898V94.2916H404.998V90.5898H399.921Z" fill="#071A36"/>
<path d="M479.825 79.7781V76.1415H475.197V79.7292H479.911H479.902H479.894L479.825 79.7781Z" fill="#071A36"/>
<path d="M200.057 79.5912H204.702V76.1653H200.057V79.5912Z" fill="#071A36"/>
<path d="M114.834 79.6577H119.687V76.1766H114.913V79.7216V79.7154L114.834 79.6577Z" fill="#071A36"/>
<path d="M79.8428 79.7179V76.1766H75.0527V79.6552H79.9168L79.9082 79.6614L79.8428 79.7179Z" fill="#071A36"/>
<path d="M509.94 83.3043H514.801V79.8132H510.028V83.3594L510.019 83.3532L509.94 83.3043Z" fill="#071A36"/>
<path d="M479.932 83.3043H480.257H480.581H480.906H481.231H481.556H481.881H482.207H482.53H482.855H483.18H483.506H483.831H484.156H484.481H484.806H485.133H485.125H485.116H485.107C485.107 83.2341 485.107 83.1651 485.107 83.0949V82.4679C485.107 82.3976 485.107 82.3274 485.107 82.2559V79.7731H479.889H479.897C479.897 79.8483 479.897 79.9248 479.897 80V80.2283V80.4565C479.897 80.5317 479.897 80.6082 479.897 80.6835V80.9117C479.897 80.9869 479.897 81.0622 479.897 81.1387V81.3656C479.897 81.4421 479.897 81.5174 479.897 81.5938V81.8208C479.897 81.8973 479.897 81.9726 479.897 82.0478C479.897 82.123 479.897 82.1995 479.897 82.276V82.503C479.897 82.5795 479.897 82.6547 479.897 82.73V82.9582C479.897 83.0334 479.897 83.1099 479.897 83.1851C479.897 83.2604 479.897 83.3369 479.897 83.4121V83.4058H479.889L479.932 83.3043Z" fill="#071A36"/>
<path d="M445.07 79.8445V83.1989H449.824V79.8445H445.07Z" fill="#071A36"/>
</g>
<defs>
<clipPath id="clip0_11_16508">
<rect width="555" height="251" fill="white"/>
</clipPath>
</defs>
</svg>
