<svg width="27" height="24" viewBox="0 0 27 24" fill="none" xmlns="http://www.w3.org/2000/svg">
<g clip-path="url(#clip0_39_5701)">
<path d="M11.997 3.00684H8.99097V6.01367H11.997V3.00684Z" fill="#FBB03B"/>
<path d="M15.0031 3.00684H11.9971V6.01367H15.0031V3.00684Z" fill="#FBB03B"/>
<path d="M18.009 3.00684H15.0029V6.01367H18.009V3.00684Z" fill="#FBB03B"/>
<path d="M15.0031 6.01367H11.9971V9.0205H15.0031V6.01367Z" fill="#FBB03B"/>
<path d="M18.009 6.01367H15.0029V9.0205H18.009V6.01367Z" fill="#FBB03B"/>
<path d="M21.0151 6.01367H18.009V9.0205H21.0151V6.01367Z" fill="#FBB03B"/>
<path d="M15.0031 8.99316H11.9971V12H15.0031V8.99316Z" fill="#FBB03B"/>
<path d="M18.009 8.99316H15.0029V12H18.009V8.99316Z" fill="#FBB03B"/>
<path d="M21.0151 8.99316H18.009V12H21.0151V8.99316Z" fill="#FBB03B"/>
<path d="M15.0031 12H11.9971V15.0068H15.0031V12Z" fill="#FBB03B"/>
<path d="M18.009 12H15.0029V15.0068H18.009V12Z" fill="#FBB03B"/>
<path d="M21.0151 12H18.009V15.0068H21.0151V12Z" fill="#FBB03B"/>
<path d="M15.0031 15.0068H11.9971V18.0137H15.0031V15.0068Z" fill="#FBB03B"/>
<path d="M18.009 15.0068H15.0029V18.0137H18.009V15.0068Z" fill="#FBB03B"/>
<path d="M9.01828 12H6.01221V15.0068H9.01828V12Z" fill="#FBB03B"/>
<path d="M11.997 12H8.99097V15.0068H11.997V12Z" fill="#FBB03B"/>
<path d="M9.01828 15.0068H6.01221V18.0137H9.01828V15.0068Z" fill="#FBB03B"/>
<path d="M9.01828 6.01367H6.01221V9.0205H9.01828V6.01367Z" fill="#FBB03B"/>
<path d="M9.01828 8.99316H6.01221V12H9.01828V8.99316Z" fill="#FBB03B"/>
<path d="M6.01218 8.99316H3.0061V12H6.01218V8.99316Z" fill="#FBB03B"/>
<path d="M6.01218 12H3.0061V15.0068H6.01218V12Z" fill="#FBB03B"/>
<path d="M24.0212 8.99316H21.0151V12H24.0212V8.99316Z" fill="#FBB03B"/>
<path d="M24.0212 12H21.0151V15.0068H24.0212V12Z" fill="#FBB03B"/>
<path d="M11.997 15.0068H8.99097V18.0137H11.997V15.0068Z" fill="#FBB03B"/>
<path d="M15.0031 18.0137H11.9971V21.0205H15.0031V18.0137Z" fill="#FBB03B"/>
<path d="M18.009 18.0137H15.0029V21.0205H18.009V18.0137Z" fill="#FBB03B"/>
<path d="M11.997 18.0137H8.99097V21.0205H11.997V18.0137Z" fill="#FBB03B"/>
<path d="M21.0151 15.0068H18.009V18.0137H21.0151V15.0068Z" fill="#FBB03B"/>
<path d="M11.997 6.01367H8.99097V9.0205H11.997V6.01367Z" fill="#FFE050"/>
<path d="M11.997 8.99316H8.99097V12H11.997V8.99316Z" fill="#FFE050"/>
<path d="M15.0031 6.01367H11.9971V9.0205H15.0031V6.01367Z" fill="#FFE050"/>
<path d="M11.997 0H8.99097V3.00683H11.997V0Z" fill="#F7931E"/>
<path d="M3.00607 8.99316H0V12H3.00607V8.99316Z" fill="#F7931E"/>
<path d="M3.00607 12H0V15.0068H3.00607V12Z" fill="#F7931E"/>
<path d="M27 8.99316H23.9939V12H27V8.99316Z" fill="#F7931E"/>
<path d="M21.0151 3.00684H18.009V6.01367H21.0151V3.00684Z" fill="#F7931E"/>
<path d="M24.0212 6.01367H21.0151V9.0205H24.0212V6.01367Z" fill="#F7931E"/>
<path d="M24.0212 15.0068H21.0151V18.0137H24.0212V15.0068Z" fill="#F7931E"/>
<path d="M21.0151 18.0137H18.009V21.0205H21.0151V18.0137Z" fill="#F7931E"/>
<path d="M6.01218 15.0068H3.0061V18.0137H6.01218V15.0068Z" fill="#F7931E"/>
<path d="M6.01218 6.01367H3.0061V9.0205H6.01218V6.01367Z" fill="#F7931E"/>
<path d="M9.01828 3.00684H6.01221V6.01367H9.01828V3.00684Z" fill="#F7931E"/>
<path d="M9.01828 18.0137H6.01221V21.0205H9.01828V18.0137Z" fill="#F7931E"/>
<path d="M27 12H23.9939V15.0068H27V12Z" fill="#F7931E"/>
<path d="M15.0031 0H11.9971V3.00683H15.0031V0Z" fill="#F7931E"/>
<path d="M18.009 0H15.0029V3.00683H18.009V0Z" fill="#F7931E"/>
<path d="M11.997 21.0205H8.99097V24.0273H11.997V21.0205Z" fill="#F7931E"/>
<path d="M15.0031 21.0205H11.9971V24.0273H15.0031V21.0205Z" fill="#F7931E"/>
<path d="M18.009 21.0205H15.0029V24.0273H18.009V21.0205Z" fill="#F7931E"/>
</g>
<defs>
<clipPath id="clip0_39_5701">
<rect width="27" height="24" fill="white"/>
</clipPath>
</defs>
</svg>
