<svg width="27" height="24" viewBox="0 0 27 24" fill="none" xmlns="http://www.w3.org/2000/svg">
<g clip-path="url(#clip0_39_23729)">
<path d="M11.9969 3.00684H8.99084V6.01367H11.9969V3.00684Z" fill="#FBB03B"/>
<path d="M15.003 3.00684H11.9969V6.01367H15.003V3.00684Z" fill="#FBB03B"/>
<path d="M18.0091 3.00684H15.0031V6.01367H18.0091V3.00684Z" fill="#FBB03B"/>
<path d="M15.003 6.01367H11.9969V9.0205H15.003V6.01367Z" fill="#FBB03B"/>
<path d="M18.0091 6.01367H15.0031V9.0205H18.0091V6.01367Z" fill="#FBB03B"/>
<path d="M21.0152 6.01367H18.0092V9.0205H21.0152V6.01367Z" fill="#FBB03B"/>
<path d="M15.003 8.99316H11.9969V12H15.003V8.99316Z" fill="#FBB03B"/>
<path d="M18.0091 8.99316H15.0031V12H18.0091V8.99316Z" fill="#FBB03B"/>
<path d="M21.0152 8.99316H18.0092V12H21.0152V8.99316Z" fill="#FBB03B"/>
<path d="M15.003 12H11.9969V15.0068H15.003V12Z" fill="#FBB03B"/>
<path d="M18.0091 12H15.0031V15.0068H18.0091V12Z" fill="#FBB03B"/>
<path d="M21.0152 12H18.0092V15.0068H21.0152V12Z" fill="#FBB03B"/>
<path d="M15.003 15.0068H11.9969V18.0137H15.003V15.0068Z" fill="#FBB03B"/>
<path d="M18.0091 15.0068H15.0031V18.0137H18.0091V15.0068Z" fill="#FBB03B"/>
<path d="M9.01828 12H6.01221V15.0068H9.01828V12Z" fill="#FBB03B"/>
<path d="M11.9969 12H8.99084V15.0068H11.9969V12Z" fill="#FBB03B"/>
<path d="M9.01828 15.0068H6.01221V18.0137H9.01828V15.0068Z" fill="#FBB03B"/>
<path d="M9.01828 6.01367H6.01221V9.0205H9.01828V6.01367Z" fill="#FBB03B"/>
<path d="M9.01828 8.99316H6.01221V12H9.01828V8.99316Z" fill="#FBB03B"/>
<path d="M6.01218 8.99316H3.0061V12H6.01218V8.99316Z" fill="#FBB03B"/>
<path d="M6.01218 12H3.0061V15.0068H6.01218V12Z" fill="#FBB03B"/>
<path d="M24.0212 8.99316H21.0151V12H24.0212V8.99316Z" fill="#FBB03B"/>
<path d="M24.0212 12H21.0151V15.0068H24.0212V12Z" fill="#FBB03B"/>
<path d="M11.9969 15.0068H8.99084V18.0137H11.9969V15.0068Z" fill="#FBB03B"/>
<path d="M15.003 18.0137H11.9969V21.0205H15.003V18.0137Z" fill="#FBB03B"/>
<path d="M18.0091 18.0137H15.0031V21.0205H18.0091V18.0137Z" fill="#FBB03B"/>
<path d="M11.9969 18.0137H8.99084V21.0205H11.9969V18.0137Z" fill="#FBB03B"/>
<path d="M21.0152 15.0068H18.0092V18.0137H21.0152V15.0068Z" fill="#FBB03B"/>
<path d="M11.9969 6.01367H8.99084V9.0205H11.9969V6.01367Z" fill="#FFE050"/>
<path d="M11.9969 8.99316H8.99084V12H11.9969V8.99316Z" fill="#FFE050"/>
<path d="M15.003 6.01367H11.9969V9.0205H15.003V6.01367Z" fill="#FFE050"/>
<path d="M11.9969 0H8.99084V3.00683H11.9969V0Z" fill="#F7931E"/>
<path d="M3.00607 8.99316H0V12H3.00607V8.99316Z" fill="#F7931E"/>
<path d="M3.00607 12H0V15.0068H3.00607V12Z" fill="#F7931E"/>
<path d="M27 8.99316H23.9939V12H27V8.99316Z" fill="#F7931E"/>
<path d="M21.0152 3.00684H18.0092V6.01367H21.0152V3.00684Z" fill="#F7931E"/>
<path d="M24.0212 6.01367H21.0151V9.0205H24.0212V6.01367Z" fill="#F7931E"/>
<path d="M24.0212 15.0068H21.0151V18.0137H24.0212V15.0068Z" fill="#F7931E"/>
<path d="M21.0152 18.0137H18.0092V21.0205H21.0152V18.0137Z" fill="#F7931E"/>
<path d="M6.01218 15.0068H3.0061V18.0137H6.01218V15.0068Z" fill="#F7931E"/>
<path d="M6.01218 6.01367H3.0061V9.0205H6.01218V6.01367Z" fill="#F7931E"/>
<path d="M9.01828 3.00684H6.01221V6.01367H9.01828V3.00684Z" fill="#F7931E"/>
<path d="M9.01828 18.0137H6.01221V21.0205H9.01828V18.0137Z" fill="#F7931E"/>
<path d="M27 12H23.9939V15.0068H27V12Z" fill="#F7931E"/>
<path d="M15.003 0H11.9969V3.00683H15.003V0Z" fill="#F7931E"/>
<path d="M18.0091 0H15.0031V3.00683H18.0091V0Z" fill="#F7931E"/>
<path d="M11.9969 21.0205H8.99084V24.0273H11.9969V21.0205Z" fill="#F7931E"/>
<path d="M15.003 21.0205H11.9969V24.0273H15.003V21.0205Z" fill="#F7931E"/>
<path d="M18.0091 21.0205H15.0031V24.0273H18.0091V21.0205Z" fill="#F7931E"/>
</g>
<defs>
<clipPath id="clip0_39_23729">
<rect width="27" height="24" fill="white"/>
</clipPath>
</defs>
</svg>
