<svg width="169" height="55" viewBox="0 0 169 55" fill="none" xmlns="http://www.w3.org/2000/svg">
<g clip-path="url(#clip0_7_38559)">
<path d="M0.477783 42.2571V46.4595H13.0851V50.6619H21.4899V54.8644H168.575V50.6619H155.968V46.4595H147.563V42.2571H139.158V33.8522H134.956V29.6498H130.753V25.4474H118.146V21.2449H109.741V12.8401H105.539V8.63765H101.336V4.43522H88.7288V0.232788H76.1215V4.43522H71.9191V8.63765H67.7166V17.0425H59.3118V12.8401H42.5021V17.0425H38.2996V25.4474H29.8948V29.6498H25.6924V33.8522H21.4899V38.0546H13.0851V42.2571H0.477783Z" fill="white"/>
<path d="M0.477783 46.4595H13.0851V50.6619H21.4899V54.8644H168.575V50.6619H155.968V46.4595H147.563V42.2571H139.158V33.8522H134.956V29.6498H130.753V42.2571H122.348V46.4595H113.943V50.6619H63.5142V46.4595H55.1094V42.2571H34.0972V38.0546H25.6924V33.8522H21.4899V38.0546H13.0851V42.2571H0.477783V46.4595Z" fill="#E3EAFF"/>
<path d="M59.3118 17.0425V21.2449H55.1094V25.4473H67.7167V29.6498H80.3239V25.4473H71.9191V21.2449H67.7167V17.0425H59.3118Z" fill="#E3EAFF"/>
<path d="M84.5264 29.6498H80.324V33.8522H84.5264V29.6498Z" fill="#E3EAFF"/>
<path d="M118.146 25.4473V29.6497H105.538V33.8522H92.9312V29.6497H101.336V25.4473H113.943V21.2449H118.146V25.4473Z" fill="#E3EAFF"/>
<path d="M92.9312 33.8522H88.7288V38.0546H92.9312V33.8522Z" fill="#E3EAFF"/>
<path d="M88.7288 38.0547H84.5264V42.2571H88.7288V38.0547Z" fill="#E3EAFF"/>
</g>
<defs>
<clipPath id="clip0_7_38559">
<rect width="168.097" height="54.6316" fill="white" transform="translate(0.477783 0.232788)"/>
</clipPath>
</defs>
</svg>
