<svg width="169" height="55" viewBox="0 0 169 55" fill="none" xmlns="http://www.w3.org/2000/svg">
<g clip-path="url(#clip0_7_38567)">
<path d="M0.253052 42.2389V46.4413H12.8603V50.6437H21.2652V54.8462H168.35V50.6437H155.743V46.4413H147.338V42.2389H138.933V33.834H134.731V29.6316H130.528V25.4292H117.921V21.2267H109.516V12.8219H105.314V8.61946H101.111V4.41703H88.5041V0.2146H75.8968V4.41703H71.6943V8.61946H67.4919V17.0243H59.0871V12.8219H42.2773V17.0243H38.0749V25.4292H29.6701V29.6316H25.4676V33.834H21.2652V38.0365H12.8603V42.2389H0.253052Z" fill="white"/>
<path d="M0.253052 46.4413H12.8603V50.6437H21.2652V54.8462H168.35V50.6437H155.743V46.4413H147.338V42.2389H138.933V33.834H134.731V29.6316H130.528V42.2389H122.123V46.4413H113.719V50.6437H63.2895V46.4413H54.8846V42.2389H33.8725V38.0364H25.4676V33.834H21.2652V38.0364H12.8603V42.2389H0.253052V46.4413Z" fill="#E3EAFF"/>
<path d="M59.0871 17.0244V21.2268H54.8846V25.4293H67.4919V29.6317H80.0992V25.4293H71.6944V21.2268H67.4919V17.0244H59.0871Z" fill="#E3EAFF"/>
<path d="M84.3017 29.6316H80.0992V33.834H84.3017V29.6316Z" fill="#E3EAFF"/>
<path d="M117.921 25.4292V29.6317H105.314V33.8341H92.7065V29.6317H101.111V25.4292H113.719V21.2268H117.921V25.4292Z" fill="#E3EAFF"/>
<path d="M92.7065 33.834H88.504V38.0364H92.7065V33.834Z" fill="#E3EAFF"/>
<path d="M88.5041 38.0364H84.3016V42.2388H88.5041V38.0364Z" fill="#E3EAFF"/>
</g>
<defs>
<clipPath id="clip0_7_38567">
<rect width="168.097" height="54.6316" fill="white" transform="translate(0.253052 0.2146)"/>
</clipPath>
</defs>
</svg>
