<svg width="274" height="81" viewBox="0 0 274 81" fill="none" xmlns="http://www.w3.org/2000/svg">
<g clip-path="url(#clip0_7_38568)">
<path d="M256.439 76.3006V72.0982H252.237V67.8957H243.832V59.4909H248.034V51.086H243.832V46.8836H239.63V42.6811H235.427V38.4787H231.225V34.2763H222.82V30.0739H210.213V34.2763H201.808V38.4787H193.403V34.2763H184.998V25.8714H180.796V21.669H176.593V17.4666H172.391V13.2641H168.188V9.06172H163.986V4.85929H155.581V0.65686H130.366V4.85929H121.962V9.06172H117.759V13.2641H113.557V17.4666H105.152V21.669H96.7469V17.4666H88.3421V13.2641H79.9372V9.06172H63.1275V13.2641H54.7226V17.4666H46.3178V21.669H42.1154V25.8714H33.7105V34.2763H29.5081V38.4787H25.3056V46.8836H21.1032V55.2884H25.3056V59.4909H29.5081V67.8957H16.9008V72.0982H8.49592V76.3006H0.0910645V80.503H96.7469V76.3006H100.949V72.0982H105.152V67.8957H109.354V76.3006H117.759V80.503H193.403V76.3006H201.808V72.0982H210.213V76.3006H214.415V80.503H273.249V76.3006H256.439Z" fill="white"/>
<path d="M0.0910645 80.503H96.7469V76.3005H100.949V72.0981H105.152V67.8957H109.354V76.3005H117.759V80.503H193.403V76.3005H201.808V72.0981H210.213V76.3005H214.415V80.503H273.249V76.3005H256.439V72.0981H252.237V67.8957H243.832V59.4908H248.034V51.086H243.832V46.8835H239.63V63.6933H235.427V67.8957H227.022V72.0981H214.415V67.8957H210.213V63.6933H197.605V67.8957H193.403V72.0981H159.783V76.3005H134.569V72.0981H121.962V67.8957H113.557V63.6933H109.354V59.4908H105.152V63.6933H100.949V67.8957H92.5445V72.0981H75.7348V76.3005H54.7226V67.8957H46.3178V63.6933H37.9129V59.4908H33.7105V55.2884H29.5081V51.086H25.3056V46.8835H21.1032V55.2884H25.3056V59.4908H29.5081V67.8957H16.9008V72.0981H8.49592V76.3005H0.0910645V80.503Z" fill="#E3EAFF"/>
<path d="M63.1275 46.8835H58.925V51.086H63.1275V46.8835Z" fill="#E3EAFF"/>
<path d="M96.7469 42.6812H92.5444V46.8836H96.7469V42.6812Z" fill="#E3EAFF"/>
<path d="M172.391 46.8835H168.188V51.086H172.391V46.8835Z" fill="#E3EAFF"/>
<path d="M168.188 51.0861H163.986V55.2885H168.188V51.0861Z" fill="#E3EAFF"/>
<path d="M75.7347 34.2762V38.4787H67.3299V42.6811H63.1274V46.8835H71.5323V42.6811H79.9372V38.4787H84.1396V42.6811H92.5444V38.4787H88.342V34.2762H75.7347Z" fill="#E3EAFF"/>
<path d="M96.7469 21.669V25.8714H105.152V30.0738H109.354V34.2763H121.962V38.4787H130.366V42.6811H142.974V38.4787H134.569V34.2763H126.164V30.0738H121.962V25.8714H113.557V21.669H109.354V17.4666H105.152V21.669H96.7469Z" fill="#E3EAFF"/>
<path d="M201.808 38.4787V42.6811H184.998V46.8835H172.391V42.6811H180.795V38.4787H184.998V34.2762H193.403V38.4787H201.808Z" fill="#E3EAFF"/>
</g>
<defs>
<clipPath id="clip0_7_38568">
<rect width="273.158" height="79.8461" fill="white" transform="translate(0.0910645 0.65686)"/>
</clipPath>
</defs>
</svg>
