<svg width="80" height="80" viewBox="0 0 80 80" fill="none" xmlns="http://www.w3.org/2000/svg">
<path fill-rule="evenodd" clip-rule="evenodd" d="M20.0001 6.66663H60.0001V13.3333H20.0001V6.66663ZM13.3334 20V13.3333H20.0001V20H13.3334ZM13.3334 60V20H6.66675V60H13.3334ZM20.0001 66.6666V60H13.3334V66.6666H20.0001ZM60.0001 66.6666V73.3333H20.0001V66.6666H60.0001ZM66.6667 60V66.6666H60.0001V60H66.6667ZM66.6667 20H73.3334V60H66.6667V20ZM66.6667 20V13.3333H60.0001V20H66.6667ZM33.3334 23.3333H53.3334V30H33.3334V50H53.3334V56.6666L33.3334 56.6666L26.6667 56.6666V50V30V23.3333H33.3334Z" fill="#74EFA9"/>
</svg>
