<svg width="112" height="64" viewBox="0 0 112 64" fill="none" xmlns="http://www.w3.org/2000/svg">
<path d="M3.02681 57.3579C2.53734 57.1789 2.08157 56.9059 1.68787 56.5425C0.856137 55.7724 0.380859 54.6786 0.380859 53.5324V48.4307C0.380859 48.0998 0.419875 47.7762 0.494359 47.4671C0.419875 47.1543 0.380859 46.8325 0.380859 46.5071V10.4674C0.380859 9.32126 0.856137 8.2275 1.68787 7.45735C2.10463 7.07047 2.59232 6.78302 3.11725 6.60766L17.9271 0.424785C18.6223 0.072253 19.4097 -0.0687599 20.1953 0.0306723L29.1671 1.17143C30.2365 1.30702 31.1994 1.8783 31.845 2.73884C31.8663 2.7298 31.8893 2.72077 31.9106 2.71173C31.9478 2.69546 31.9851 2.67918 32.0241 2.66291C32.0649 2.64484 32.1074 2.62676 32.1482 2.60868C32.1837 2.59241 32.2209 2.57614 32.2564 2.56167C32.2954 2.5436 32.3362 2.52552 32.377 2.50925C32.4178 2.49117 32.4586 2.47309 32.4994 2.45682C32.5348 2.44055 32.5703 2.42428 32.6058 2.40981C32.6466 2.38993 32.6891 2.37185 32.7317 2.35558C32.7689 2.33931 32.8062 2.32304 32.8434 2.30677C32.8824 2.28869 32.9232 2.27061 32.964 2.25434C33.6237 1.95243 34.3597 1.83311 35.0939 1.92712L40.0276 2.55444C40.6713 2.6358 41.2619 2.87082 41.7691 3.21973C42.3543 3.0046 42.9856 2.93048 43.617 3.01002L48.5506 3.63735C48.7954 3.66808 49.0348 3.72232 49.2636 3.79644C49.503 3.78198 49.7459 3.78921 49.9889 3.81994L54.9226 4.44727C55.5663 4.52862 56.1569 4.76365 56.6641 5.11256C57.2493 4.89743 57.8806 4.8233 58.512 4.90285L63.4456 5.53018C63.6904 5.56091 63.9298 5.61515 64.1586 5.68927C64.398 5.67481 64.6409 5.68204 64.8839 5.71277L69.8176 6.3401C70.4613 6.42145 71.0519 6.65647 71.5591 7.00539C72.1443 6.79026 72.7756 6.71613 73.407 6.79568L78.3406 7.42301C79.3887 7.55679 80.2985 8.09734 80.9281 8.87652C80.944 8.8711 80.96 8.86748 80.9759 8.86206C81.0096 8.85121 81.0451 8.83856 81.0806 8.82771C81.1249 8.81325 81.1693 8.79698 81.2136 8.78432C81.2491 8.77167 81.2845 8.76082 81.32 8.74997C81.3608 8.73551 81.3998 8.72286 81.4406 8.7102C81.4796 8.69755 81.5168 8.68489 81.5559 8.67224C81.5949 8.65958 81.6339 8.64512 81.6729 8.63427C81.7119 8.62162 81.7509 8.60715 81.7899 8.5963C81.829 8.58365 81.868 8.56919 81.907 8.55653C81.9496 8.54207 81.9903 8.52761 82.0329 8.51495C82.0666 8.5041 82.1003 8.49145 82.134 8.4806C82.1748 8.46614 82.2173 8.45168 82.2581 8.43902C82.2971 8.42456 82.3379 8.4119 82.377 8.39925C82.416 8.38659 82.455 8.37213 82.494 8.35948C83.0562 8.16604 83.6591 8.09914 84.2639 8.17507L93.2339 9.31583C94.2642 9.446 95.1598 9.97028 95.7876 10.7278C95.7947 10.726 95.8036 10.7242 95.8106 10.7205C95.8497 10.7079 95.8869 10.697 95.9259 10.6862C95.9649 10.6735 96.0057 10.6627 96.0465 10.65C96.0855 10.6374 96.1245 10.6265 96.1636 10.6157C96.2008 10.603 96.2398 10.5922 96.2788 10.5813C96.3178 10.5687 96.3569 10.5578 96.3959 10.547C96.4331 10.5343 96.4721 10.5235 96.5112 10.5126C96.5519 10.5 96.5945 10.4873 96.6371 10.4747C96.6743 10.4638 96.7098 10.453 96.747 10.4421C96.786 10.4295 96.8251 10.4186 96.8641 10.4078C96.9031 10.3951 96.9439 10.3843 96.9829 10.3716C97.0219 10.359 97.0609 10.3481 97.0999 10.3373C97.1389 10.3246 97.178 10.3138 97.2188 10.3011C97.256 10.2885 97.2915 10.2794 97.3287 10.2686C97.3713 10.2541 97.4156 10.2415 97.4582 10.2288C98.0008 10.0534 98.579 9.99559 99.1571 10.0697L108.129 11.2105C110.126 11.4636 111.626 13.1955 111.626 15.2474V30.8077C111.626 31.8924 111.2 32.9337 110.445 33.6966C110.126 34.0202 109.757 34.2824 109.358 34.4776C110.821 36.3867 110.837 39.0623 110.837 41.3963C110.837 47.6912 105.862 53.01 98.5045 54.026C98.4903 54.0278 98.4761 54.0296 98.4619 54.0314L74.5703 57.0668C72.5043 57.3488 70.4915 57.1355 68.6471 56.4648C68.6063 56.4503 68.5655 56.4377 68.5265 56.4232C68.4875 56.4087 68.4467 56.3961 68.4077 56.3816C68.3669 56.3672 68.3243 56.3527 68.2835 56.3382C68.241 56.3238 68.1984 56.3093 68.1559 56.2948C68.1168 56.2822 68.0796 56.2695 68.0406 56.2551C67.9998 56.2406 67.959 56.2279 67.92 56.2135C67.8774 56.199 67.8331 56.1846 67.7905 56.1683C67.7515 56.1556 67.7143 56.143 67.6753 56.1285C67.6345 56.1141 67.5919 56.1014 67.5493 56.0851C67.5068 56.0707 67.4642 56.0562 67.4234 56.0417C67.3862 56.0291 67.3472 56.0164 67.3082 56.002C67.2656 55.9875 67.223 55.9748 67.1822 55.9586C67.1415 55.9441 67.1007 55.9315 67.0617 55.917C67.0209 55.9025 66.9783 55.8899 66.9375 55.8754C66.8985 55.861 66.8577 55.8501 66.8187 55.8356C66.7779 55.8212 66.7371 55.8085 66.6963 55.7941C66.6538 55.7796 66.613 55.7669 66.5704 55.7507C66.5314 55.7362 66.4924 55.7254 66.4534 55.7109C66.4126 55.6964 66.37 55.6838 66.3292 55.6693C66.2884 55.6549 66.2477 55.6422 66.2069 55.6277C66.1678 55.6133 66.1271 55.6024 66.0898 55.588C66.049 55.5735 66.0065 55.5608 65.9657 55.5464C65.9249 55.5319 65.8823 55.5193 65.8415 55.5048C65.8007 55.4903 65.7582 55.4777 65.7192 55.4632C65.6802 55.4488 65.6394 55.4379 65.6003 55.4235C65.5649 55.4126 65.5312 55.3999 65.4957 55.3891C65.4549 55.3764 65.4141 55.362 65.3734 55.3493C65.0843 55.2626 64.7988 55.1613 64.5186 55.0528C64.4813 55.042 64.4441 55.0275 64.4086 55.0167C64.366 55.004 64.3235 54.9896 64.2809 54.9751C64.2401 54.9624 64.1993 54.948 64.1586 54.9353C64.1195 54.9245 64.0823 54.91 64.0451 54.8992C64.0025 54.8865 63.9617 54.8721 63.9191 54.8594C63.8801 54.8486 63.8429 54.8341 63.8039 54.8214C63.7595 54.8088 63.717 54.7943 63.6744 54.7799C63.6354 54.7672 63.5964 54.7545 63.5574 54.7419C63.5148 54.7292 63.474 54.7148 63.4332 54.7021C63.3942 54.6895 63.3552 54.6768 63.3162 54.6642C63.2772 54.6515 63.2381 54.6388 63.1991 54.6262C63.1548 54.6135 63.1105 54.5973 63.0661 54.5846C63.0253 54.5719 62.9863 54.5593 62.9455 54.5466C62.9065 54.5358 62.8693 54.5213 62.8303 54.5105C62.7877 54.4978 62.7451 54.4834 62.7043 54.4707C62.6636 54.4581 62.6245 54.4454 62.5838 54.4327C62.5749 54.4291 62.5642 54.4273 62.5554 54.4255V55.0004C62.5554 57.0523 61.0568 58.7825 59.0582 59.0374L45.7078 60.7331C45.3354 60.7801 44.963 60.7729 44.6012 60.7169C44.266 60.8615 43.9078 60.9627 43.5301 61.0115L38.5964 61.6389C37.887 61.7293 37.1759 61.619 36.5321 61.3388C36.4913 61.3225 36.4523 61.3044 36.4133 61.2863C36.3743 61.2701 36.3371 61.2538 36.298 61.2357C36.2573 61.2194 36.2182 61.2014 36.1775 61.1833C36.1384 61.1688 36.1012 61.1507 36.064 61.1345C36.0391 61.1254 36.0143 61.1146 35.9895 61.1037C35.3812 61.7238 34.5743 62.1487 33.6627 62.2644L28.7291 62.8917C28.0995 62.9713 27.4664 62.8971 26.8812 62.682C26.374 63.0309 25.7834 63.2659 25.1397 63.3473L20.206 63.9746C20.0411 63.9963 19.8761 64.0054 19.713 64.0054C19.094 64.0054 18.4875 63.8571 17.9378 63.5787L3.03745 57.3633L3.02681 57.3579Z" fill="black"/>
<path d="M19.7031 62.5537C19.0806 62.5537 18.4741 62.3223 18.0006 61.8974C17.4473 61.4003 17.1316 60.6843 17.1316 59.9323V53.3137C17.1316 52.8635 17.2433 52.4369 17.4419 52.0645C17.2398 51.6848 17.1316 51.2564 17.1316 50.817V4.06763C17.1316 3.31557 17.449 2.59965 18.0006 2.10249C18.5521 1.60533 19.2899 1.37212 20.0205 1.46613L28.9923 2.60689C29.8009 2.70993 30.5139 3.19625 30.9147 3.9212C31.2835 4.5883 31.6559 5.2554 32.0266 5.92069C32.0372 5.18308 32.3529 4.48525 32.8956 3.99532C33.4489 3.49816 34.1831 3.26495 34.9155 3.35895L39.8492 3.98628C40.5443 4.07487 41.1455 4.44005 41.5517 4.96614C42.0855 4.54672 42.7629 4.35689 43.4368 4.44186L48.3705 5.06919C48.6205 5.10173 48.8564 5.16862 49.0781 5.26624C49.3175 5.22647 49.564 5.22105 49.8087 5.25178L54.7424 5.87911C55.4376 5.96769 56.0388 6.33288 56.4449 6.85897C56.9787 6.43954 57.6561 6.24972 58.33 6.33469L63.2637 6.96202C63.5138 6.99456 63.7496 7.06145 63.9713 7.15907C64.2107 7.1193 64.4572 7.11388 64.7019 7.14461L69.6356 7.77194C70.3308 7.86052 70.932 8.22571 71.3381 8.7518C71.8737 8.33237 72.5493 8.14255 73.225 8.22752L78.1587 8.85484C79.4462 9.01755 80.4127 10.133 80.4127 11.4564V12.0764C80.8986 11.5232 81.3846 10.9773 81.8669 10.4385C82.4291 9.8112 83.2555 9.50206 84.0819 9.60691L93.0519 10.7477C94.3394 10.9104 95.3059 12.0258 95.3059 13.3492V13.7939C95.8256 13.2642 96.3452 12.7399 96.8612 12.2265C97.4216 11.6697 98.2002 11.4021 98.9769 11.4997L107.949 12.6405C109.236 12.8032 110.203 13.9187 110.203 15.242V30.8022C110.203 31.5019 109.928 32.1726 109.442 32.6643C108.954 33.1561 108.295 33.4345 107.608 33.4236L106.291 33.411C106.321 33.4345 106.351 33.458 106.381 33.4833C108.809 35.4159 109.414 38.558 109.414 41.3909C109.414 46.9772 104.978 51.6667 98.3083 52.5869C98.2995 52.5869 98.2906 52.5887 98.2817 52.5906L74.3831 55.6278C71.1466 56.0707 68.0626 55.1523 65.6951 53.0425C63.23 50.846 61.8148 47.5231 61.8148 43.9255C61.8148 40.3279 63.1591 36.9688 65.6011 34.4849C66.1242 33.9533 66.6829 33.4761 67.2734 33.0566L64.3632 33.0295C64.1132 33.0277 63.872 32.9879 63.645 32.9192C63.4127 32.9861 63.1697 33.0187 62.9267 33.0169L61.0505 33.0006C61.1037 33.2103 61.1303 33.4273 61.1303 33.6478V40.7635C61.1303 42.1628 60.052 43.3162 58.6812 43.3813L56.7269 43.4753C57.0088 44.0774 57.0532 44.7661 56.8563 45.3971L58.3389 45.2669C59.0571 45.2036 59.7665 45.4513 60.2985 45.9467C60.8306 46.442 61.132 47.1435 61.132 47.8775V54.9932C61.132 56.3147 60.1655 57.4302 58.878 57.5947L45.5277 59.2905C45.1464 59.3393 44.7651 59.2995 44.4086 59.1802C44.0965 59.3827 43.7383 59.5183 43.3499 59.5671L38.4162 60.1944C37.6838 60.2884 36.9496 60.0552 36.3963 59.558C36.0931 59.2851 35.8607 58.9452 35.7135 58.571C35.5593 59.7352 34.6548 60.6717 33.4826 60.8199L28.5489 61.4473C27.875 61.534 27.1976 61.3424 26.662 60.923C26.2559 61.4491 25.6547 61.8143 24.9595 61.9028L20.0258 62.5302C19.9194 62.5428 19.813 62.55 19.7084 62.55L19.7031 62.5537ZM80.1236 44.0792C80.1236 44.1334 80.129 44.1894 80.1396 44.2473C80.1432 44.269 80.1467 44.2871 80.1502 44.3051C80.2052 44.2708 80.262 44.2202 80.3134 44.1497C80.2496 44.1262 80.1875 44.1027 80.1236 44.0774V44.0792Z" fill="#23FF81"/>
<path d="M24.6602 59.5776C23.0081 59.7884 21.3542 59.9973 19.7021 60.208V53.5568C21.3542 53.3969 23.0081 53.237 24.6602 53.0754C24.6602 55.2428 24.6602 57.4102 24.6602 59.5776ZM28.7182 5.21408L19.7021 4.06769V51.0478C21.3542 50.9061 23.0081 50.7644 24.6602 50.6227C24.6602 42.3909 24.6602 34.159 24.6602 25.9272C27.5152 26.009 30.3703 26.0907 33.2253 26.1743C33.2253 21.8503 33.2253 17.5246 33.2253 13.2006C31.7229 10.5917 30.2206 7.93016 28.7182 5.21408ZM28.2673 17.6826C27.0661 17.6009 25.8631 17.5191 24.662 17.4374C24.662 16.0221 24.662 14.6068 24.662 13.1916C25.2625 13.2442 25.8631 13.2969 26.4655 13.3496C27.0661 14.4233 27.6685 15.488 28.2691 16.5435V17.6826H28.2673ZM34.6707 22.9041C36.173 25.4258 37.6754 27.893 39.1778 30.3075L48.1938 30.3892V7.68853L43.2358 7.05811C43.2358 12.2323 43.2358 17.4065 43.2358 22.5807C42.6352 22.5516 42.0328 22.5225 41.4322 22.4935C40.8317 21.5142 40.2311 20.5277 39.6287 19.5321V6.60028C37.9766 6.38953 36.3227 6.1806 34.6707 5.96986V22.9023V22.9041ZM49.6374 7.87203V30.4019C51.2895 30.4165 52.9433 30.4328 54.5954 30.4473V22.1356C55.7966 23.9742 56.9996 25.7764 58.2008 27.5459V30.4801C59.8528 30.4946 61.5067 30.5109 63.1588 30.5255V9.5907C61.5067 9.37996 59.8528 9.17103 58.2008 8.96028V17.1122C56.9996 15.2736 55.7966 13.4023 54.5954 11.4947V8.50245C52.9433 8.2917 51.2895 8.08277 49.6374 7.87203ZM71.3657 17.2884C70.7651 17.2357 70.1645 17.183 69.5621 17.1303V10.4046C67.9101 10.1939 66.2562 9.98494 64.6041 9.7742V30.5382C66.2562 30.5527 67.9101 30.5691 69.5621 30.5836V23.8579C70.1627 23.887 70.7633 23.916 71.3657 23.9451C71.9663 24.7808 72.5687 25.6074 73.1693 26.4268V30.6163C74.8214 30.6308 76.4752 30.6472 78.1273 30.6617V24.2721C77.3004 23.1675 76.4752 22.0466 75.6483 20.9092C76.4752 19.8846 77.3004 18.8763 78.1273 17.8825V11.4929C76.4752 11.2821 74.8214 11.0732 73.1693 10.8624V15.0519C72.5687 15.7896 71.9663 16.5344 71.3657 17.2884ZM86.3324 18.6019C88.5869 18.8 90.8396 18.998 93.094 19.196V13.395C90.0893 13.0135 87.0845 12.632 84.078 12.2487C82.5756 13.9237 81.0732 15.6515 79.5709 17.4337C79.5709 21.8467 79.5709 26.2615 79.5709 30.6744C84.078 30.7162 88.5869 30.7562 93.094 30.798V22.0974C91.4419 21.9848 89.7881 21.8721 88.136 21.7595V24.7572C86.9348 24.6991 85.7318 24.6409 84.5307 24.5828C84.5307 23.2801 84.5307 21.9793 84.5307 20.6767C85.1312 19.9772 85.7318 19.285 86.3342 18.6038L86.3324 18.6019ZM99.0465 14.1508C97.5441 15.646 96.0417 17.1957 94.5394 18.8C94.5394 22.8041 94.5394 26.8065 94.5394 30.8107C96.1914 30.8252 97.8453 30.8416 99.4974 30.8561V28.0819C100.699 28.1164 101.902 28.1509 103.103 28.1855V30.8888C104.755 30.9034 106.409 30.9197 108.061 30.9342V15.2972L99.0447 14.1508H99.0465ZM103.103 22.7769C101.902 22.6951 100.699 22.6134 99.4974 22.5316V21.774C100.098 21.1454 100.699 20.5259 101.301 19.9137C101.902 19.9663 102.504 20.019 103.105 20.0717V22.7751L103.103 22.7769ZM28.2655 34.0682V59.1198C29.9176 58.909 31.5715 58.7001 33.2235 58.4894C33.2235 55.2773 33.2235 52.0634 33.2235 48.8513C34.0505 50.1431 34.8756 51.4203 35.7025 52.6811C36.5295 51.2549 37.3546 49.8451 38.1816 48.4516V57.8589C39.8336 57.6482 41.4875 57.4393 43.1396 57.2285V33.9319C41.4875 33.9465 39.8336 33.9628 38.1816 33.9774V36.8715C37.3546 38.2177 36.5295 39.5803 35.7025 40.9592C34.8756 39.6512 34.0505 38.3285 33.2235 36.9878C33.2235 35.9994 33.2235 35.0111 33.2235 34.0228C31.5715 34.0373 29.9176 34.0537 28.2655 34.0682ZM58.7461 33.7902C54.2746 33.8302 49.8031 33.872 45.3299 33.912V41.5915C46.1568 42.8305 46.9819 44.055 47.8089 45.2632C46.9819 46.5822 46.1568 47.9193 45.3299 49.271V56.9505C49.8014 56.3819 54.2728 55.8132 58.7461 55.2464V48.0956C56.5273 48.29 54.3103 48.4843 52.0915 48.6787C52.9184 47.3707 53.7435 46.0789 54.5705 44.8036C53.7435 43.6408 52.9184 42.4617 52.0915 41.2663C54.3103 41.1591 56.5273 41.0519 58.7461 40.9447V33.7939V33.7902ZM98.3479 33.4305C90.3388 33.5032 82.3297 33.5758 74.3188 33.6485C68.9526 33.6376 64.6041 38.3249 64.6041 44.1186C64.6041 49.9123 68.9526 54.0074 74.3188 53.2661C82.3279 52.2487 90.337 51.2313 98.3479 50.2121C103.714 49.4709 107.269 45.83 107.269 41.5715C107.269 37.313 103.712 33.4396 98.3479 33.4305ZM83.3936 43.3647C83.3722 43.6226 83.3526 43.8806 83.3313 44.1404C83.3277 44.1386 83.3241 44.1368 83.3223 44.1368C83.3223 44.1368 83.3206 44.1368 83.3188 44.1368C83.0978 47.4779 78.539 48.6024 77.8938 44.9053C77.7192 43.9042 77.9598 42.8941 78.4837 42.1402C77.1471 41.5515 75.8105 40.9338 74.4685 40.2725C74.5879 39.8801 74.7073 39.4949 74.8267 39.1098C77.7156 40.4142 80.5938 41.5697 83.456 42.5834C83.4364 42.8432 83.415 43.103 83.3936 43.361V43.3647ZM94.7746 43.5809C94.1295 46.9746 89.5706 46.9056 89.3497 43.6771C89.3497 43.6771 89.3497 43.6771 89.3461 43.6771C89.3443 43.6771 89.3408 43.679 89.3372 43.6808C89.3176 43.4337 89.2962 43.1884 89.2748 42.9432C89.2534 42.6961 89.2338 42.4508 89.2124 42.2019C92.0764 40.8521 94.9528 39.4931 97.8417 38.1432C97.9612 38.4648 98.0805 38.7864 98.2 39.1116C96.858 39.8001 95.5196 40.4832 94.1847 41.1718C94.7069 41.7913 94.9493 42.6579 94.7746 43.5809Z" fill="black"/>
</svg>
