<svg width="73" height="42" viewBox="0 0 73 42" fill="none" xmlns="http://www.w3.org/2000/svg">
<path d="M1.73641 37.6411C1.41519 37.5237 1.11609 37.3445 0.857728 37.1061C0.311901 36.6007 0 35.8829 0 35.1307V31.7827C0 31.5655 0.0256038 31.3532 0.0744839 31.1503C0.0256038 30.9451 0 30.7339 0 30.5203V6.86929C0 6.11711 0.311901 5.39933 0.857728 4.89393C1.13122 4.64003 1.45127 4.4514 1.79576 4.33631L11.5147 0.278802C11.971 0.0474523 12.4877 -0.0450875 13.0033 0.0201649L18.891 0.768788C19.5927 0.857768 20.2247 1.23267 20.6483 1.7974C20.6623 1.79147 20.6774 1.78554 20.6914 1.77961C20.7158 1.76893 20.7403 1.75825 20.7659 1.74757C20.7926 1.73571 20.8206 1.72385 20.8473 1.71198C20.8706 1.7013 20.8951 1.69063 20.9183 1.68113C20.9439 1.66927 20.9707 1.65741 20.9975 1.64673C21.0242 1.63487 21.051 1.623 21.0778 1.61232C21.101 1.60165 21.1243 1.59097 21.1476 1.58148C21.1744 1.56843 21.2023 1.55656 21.2302 1.54588C21.2547 1.53521 21.2791 1.52453 21.3036 1.51385C21.3292 1.50199 21.3559 1.49012 21.3827 1.47945C21.8156 1.28132 22.2986 1.20301 22.7804 1.26471L26.0181 1.67639C26.4406 1.72978 26.8282 1.88401 27.161 2.11299C27.5451 1.9718 27.9594 1.92316 28.3737 1.97536L31.6114 2.38705C31.772 2.40722 31.9291 2.44281 32.0793 2.49145C32.2364 2.48196 32.3958 2.48671 32.5553 2.50687L35.793 2.91856C36.2155 2.97195 36.603 3.12618 36.9359 3.35516C37.3199 3.21397 37.7342 3.16533 38.1485 3.21753L41.3863 3.62922C41.5469 3.64938 41.704 3.68498 41.8541 3.73362C42.0112 3.72413 42.1707 3.72887 42.3301 3.74904L45.5678 4.16073C45.9903 4.21411 46.3778 4.36835 46.7107 4.59732C47.0947 4.45614 47.5091 4.4075 47.9234 4.4597L51.1611 4.87138C51.8489 4.95918 52.446 5.31391 52.8591 5.82525C52.8696 5.8217 52.8801 5.81932 52.8905 5.81576C52.9126 5.80865 52.9359 5.80034 52.9592 5.79322C52.9883 5.78373 53.0174 5.77305 53.0465 5.76475C53.0698 5.75644 53.093 5.74933 53.1163 5.74221C53.1431 5.73272 53.1687 5.72441 53.1954 5.71611C53.2211 5.7078 53.2455 5.6995 53.2711 5.69119C53.2967 5.68289 53.3223 5.67339 53.3479 5.66628C53.3735 5.65797 53.3991 5.64848 53.4247 5.64136C53.4503 5.63306 53.4759 5.62357 53.5015 5.61526C53.5295 5.60577 53.5562 5.59628 53.5842 5.58797C53.6063 5.58086 53.6284 5.57255 53.6505 5.56543C53.6773 5.55594 53.7052 5.54645 53.732 5.53814C53.7576 5.52865 53.7843 5.52035 53.8099 5.51204C53.8355 5.50374 53.8611 5.49425 53.8867 5.48594C54.2557 5.359 54.6514 5.3151 55.0482 5.36493L60.9348 6.11355C61.611 6.19897 62.1987 6.54303 62.6107 7.04014C62.6153 7.03895 62.6211 7.03776 62.6258 7.03539C62.6514 7.02709 62.6758 7.01997 62.7015 7.01285C62.7271 7.00454 62.7538 6.99743 62.7806 6.98912C62.8062 6.98082 62.8318 6.9737 62.8574 6.96658C62.8818 6.95827 62.9074 6.95116 62.933 6.94404C62.9587 6.93573 62.9843 6.92861 63.0099 6.9215C63.0343 6.91319 63.0599 6.90607 63.0855 6.89895C63.1123 6.89065 63.1402 6.88234 63.1681 6.87404C63.1926 6.86692 63.2159 6.8598 63.2403 6.85268C63.2659 6.84438 63.2915 6.83726 63.3171 6.83014C63.3427 6.82184 63.3695 6.81472 63.3951 6.80641C63.4207 6.79811 63.4463 6.79099 63.4719 6.78387C63.4975 6.77557 63.5231 6.76845 63.5499 6.76014C63.5743 6.75184 63.5976 6.74591 63.622 6.73879C63.65 6.7293 63.6791 6.72099 63.707 6.71269C64.0631 6.59761 64.4425 6.55964 64.8219 6.60828L70.7096 7.35691C72.0201 7.523 73.0047 8.65958 73.0047 10.0062V20.2176C73.0047 20.9294 72.7253 21.6128 72.2296 22.1134C72.0201 22.3258 71.778 22.4978 71.5162 22.626C72.4763 23.8788 72.4868 25.6347 72.4868 27.1663C72.4868 31.2974 69.2223 34.7878 64.3936 35.4546C64.3843 35.4558 64.375 35.457 64.3657 35.4581L48.6868 37.4501C47.331 37.6352 46.0101 37.4952 44.7997 37.055C44.7729 37.0456 44.7462 37.0373 44.7206 37.0278C44.695 37.0183 44.6682 37.01 44.6426 37.0005C44.6158 36.991 44.5879 36.9815 44.5611 36.972C44.5332 36.9625 44.5053 36.953 44.4773 36.9435C44.4517 36.9352 44.4273 36.9269 44.4017 36.9174C44.3749 36.9079 44.3482 36.8996 44.3226 36.8901C44.2946 36.8806 44.2655 36.8712 44.2376 36.8605C44.212 36.8522 44.1876 36.8439 44.1619 36.8344C44.1352 36.8249 44.1073 36.8166 44.0793 36.8059C44.0514 36.7964 44.0235 36.7869 43.9967 36.7774C43.9722 36.7691 43.9466 36.7608 43.921 36.7513C43.8931 36.7418 43.8652 36.7335 43.8384 36.7229C43.8116 36.7134 43.7849 36.7051 43.7593 36.6956C43.7325 36.6861 43.7046 36.6778 43.6778 36.6683C43.6522 36.6588 43.6254 36.6517 43.5998 36.6422C43.5731 36.6327 43.5463 36.6244 43.5195 36.6149C43.4916 36.6054 43.4648 36.5971 43.4369 36.5864C43.4113 36.5769 43.3857 36.5698 43.3601 36.5603C43.3333 36.5508 43.3054 36.5425 43.2786 36.533C43.2519 36.5235 43.2251 36.5152 43.1983 36.5057C43.1727 36.4963 43.1459 36.4891 43.1215 36.4796C43.0947 36.4701 43.0668 36.4618 43.04 36.4524C43.0133 36.4429 42.9853 36.4346 42.9586 36.4251C42.9318 36.4156 42.9039 36.4073 42.8783 36.3978C42.8527 36.3883 42.8259 36.3812 42.8003 36.3717C42.777 36.3646 42.7549 36.3563 42.7316 36.3491C42.7049 36.3408 42.6781 36.3313 42.6513 36.323C42.4616 36.2661 42.2743 36.1996 42.0904 36.1285C42.0659 36.1213 42.0415 36.1119 42.0182 36.1047C41.9903 36.0964 41.9623 36.0869 41.9344 36.0774C41.9076 36.0691 41.8809 36.0597 41.8541 36.0513C41.8285 36.0442 41.8041 36.0347 41.7796 36.0276C41.7517 36.0193 41.7249 36.0098 41.697 36.0015C41.6714 35.9944 41.647 35.9849 41.6214 35.9766C41.5923 35.9683 41.5643 35.9588 41.5364 35.9493C41.5108 35.941 41.4852 35.9327 41.4596 35.9244C41.4316 35.9161 41.4049 35.9066 41.3781 35.8983C41.3525 35.89 41.3269 35.8817 41.3013 35.8734C41.2757 35.8651 41.2501 35.8568 41.2245 35.8485C41.1954 35.8402 41.1663 35.8295 41.1372 35.8212C41.1104 35.8129 41.0848 35.8046 41.0581 35.7963C41.0325 35.7892 41.008 35.7797 40.9824 35.7725C40.9545 35.7642 40.9266 35.7547 40.8998 35.7464C40.873 35.7381 40.8474 35.7298 40.8207 35.7215C40.8148 35.7192 40.8078 35.718 40.802 35.7168V36.0941C40.802 37.4406 39.8186 38.576 38.507 38.7433L29.7458 39.8562C29.5014 39.887 29.257 39.8823 29.0196 39.8455C28.7997 39.9404 28.5646 40.0068 28.3167 40.0389L25.079 40.4505C24.6134 40.5099 24.1467 40.4375 23.7243 40.2536C23.6975 40.2429 23.6719 40.2311 23.6463 40.2192C23.6207 40.2085 23.5963 40.1978 23.5707 40.186C23.5439 40.1753 23.5183 40.1634 23.4915 40.1516C23.4659 40.1421 23.4415 40.1302 23.417 40.1195C23.4007 40.1136 23.3844 40.1065 23.3681 40.0994C22.969 40.5063 22.4394 40.7851 21.8412 40.861L18.6035 41.2727C18.1904 41.3249 17.7749 41.2763 17.3908 41.1351C17.058 41.3641 16.6704 41.5183 16.248 41.5717L13.0102 41.9834C12.902 41.9976 12.7938 42.0036 12.6867 42.0036C12.2805 42.0036 11.8825 41.9063 11.5217 41.7236L1.74339 37.6447L1.73641 37.6411Z" fill="black"/>
<path d="M12.6802 41.0508C12.2717 41.0508 11.8737 40.899 11.5629 40.6202C11.1998 40.2939 10.9927 39.8241 10.9927 39.3306V34.9871C10.9927 34.6917 11.066 34.4117 11.1963 34.1673C11.0637 33.9182 10.9927 33.637 10.9927 33.3487V2.66939C10.9927 2.17584 11.201 1.70603 11.5629 1.37976C11.9249 1.0535 12.409 0.900456 12.8885 0.962149L18.7762 1.71077C19.3069 1.7784 19.7748 2.09754 20.0378 2.57329C20.2799 3.01107 20.5243 3.44886 20.7675 3.88546C20.7745 3.4014 20.9817 2.94345 21.3378 2.62193C21.7009 2.29567 22.1827 2.14262 22.6634 2.20432L25.9011 2.616C26.3573 2.67413 26.7518 2.91379 27.0183 3.25903C27.3686 2.98379 27.8132 2.85921 28.2555 2.91498L31.4932 3.32666C31.6573 3.34801 31.8121 3.39191 31.9576 3.45598C32.1147 3.42988 32.2764 3.42632 32.437 3.44649L35.6748 3.85817C36.131 3.9163 36.5255 4.15596 36.792 4.5012C37.1423 4.22596 37.5869 4.10138 38.0292 4.15714L41.2669 4.56883C41.431 4.59018 41.5858 4.63408 41.7312 4.69815C41.8883 4.67204 42.0501 4.66849 42.2107 4.68865L45.4484 5.10034C45.9047 5.15847 46.2992 5.39813 46.5657 5.74337C46.9172 5.46812 47.3606 5.34355 47.804 5.39931L51.0417 5.811C51.8866 5.91777 52.5209 6.64979 52.5209 7.51824V7.92517C52.8398 7.56213 53.1587 7.20384 53.4752 6.85029C53.8442 6.43861 54.3865 6.23573 54.9288 6.30454L60.8154 7.05316C61.6603 7.15994 62.2946 7.89195 62.2946 8.7604V9.05226C62.6356 8.70464 62.9766 8.36058 63.3153 8.02364C63.683 7.65823 64.1939 7.48264 64.7037 7.54671L70.5914 8.29533C71.4363 8.40211 72.0706 9.13412 72.0706 10.0026V20.214C72.0706 20.6731 71.8902 21.1133 71.5713 21.436C71.2513 21.7587 70.8183 21.9414 70.3679 21.9343L69.5032 21.926C69.523 21.9414 69.5428 21.9568 69.5626 21.9734C71.1558 23.2417 71.5527 25.3037 71.5527 27.1628C71.5527 30.8288 68.642 33.9063 64.2649 34.5102C64.2591 34.5102 64.2533 34.5114 64.2475 34.5126L48.564 36.5057C46.44 36.7964 44.4161 36.1937 42.8625 34.8092C41.2448 33.3677 40.316 31.1871 40.316 28.8261C40.316 26.4652 41.1982 24.2608 42.8008 22.6307C43.1441 22.2819 43.5107 21.9687 43.8982 21.6934L41.9884 21.6756C41.8243 21.6744 41.6661 21.6483 41.5171 21.6033C41.3646 21.6472 41.2052 21.6685 41.0457 21.6673L39.8144 21.6566C39.8493 21.7943 39.8668 21.9366 39.8668 22.0814V26.7511C39.8668 27.6694 39.1592 28.4263 38.2596 28.469L36.9771 28.5307C37.1621 28.9258 37.1912 29.3778 37.062 29.7918L38.035 29.7064C38.5063 29.6649 38.9718 29.8274 39.321 30.1525C39.6701 30.4776 39.868 30.9379 39.868 31.4196V36.0893C39.868 36.9566 39.2337 37.6886 38.3888 37.7965L29.6276 38.9094C29.3774 38.9414 29.1272 38.9153 28.8932 38.837C28.6884 38.9699 28.4533 39.0589 28.1984 39.0909L24.9607 39.5026C24.4801 39.5643 23.9983 39.4112 23.6351 39.085C23.4361 38.9058 23.2837 38.6828 23.1871 38.4372C23.0858 39.2012 22.4923 39.8158 21.723 39.9131L18.4853 40.3248C18.043 40.3817 17.5985 40.256 17.247 39.9807C16.9805 40.326 16.5859 40.5656 16.1297 40.6237L12.892 41.0354C12.8222 41.0437 12.7524 41.0485 12.6837 41.0485L12.6802 41.0508ZM52.3312 28.927C52.3312 28.9625 52.3347 28.9993 52.3417 29.0373C52.344 29.0515 52.3463 29.0634 52.3487 29.0753C52.3847 29.0527 52.422 29.0195 52.4557 28.9732C52.4138 28.9578 52.3731 28.9424 52.3312 28.9258V28.927Z" fill="#23FF81"/>
<path d="M15.9334 39.0978C14.8492 39.2361 13.7639 39.3732 12.6797 39.5115V35.1467C13.7639 35.0417 14.8492 34.9368 15.9334 34.8307C15.9334 36.2531 15.9334 37.6755 15.9334 39.0978ZM18.5965 3.42175L12.6797 2.66943V33.5002C13.7639 33.4072 14.8492 33.3142 15.9334 33.2212C15.9334 27.819 15.9334 22.4169 15.9334 17.0147C17.807 17.0684 19.6806 17.122 21.5543 17.1769C21.5543 14.3393 21.5543 11.5005 21.5543 8.66294C20.5683 6.95085 19.5824 5.20418 18.5965 3.42175ZM18.3006 11.6042C17.5123 11.5506 16.7228 11.4969 15.9346 11.4433C15.9346 10.5145 15.9346 9.58575 15.9346 8.65698C16.3287 8.69155 16.7228 8.72613 17.1181 8.7607C17.5123 9.46533 17.9076 10.164 18.3017 10.8567V11.6042H18.3006ZM22.5028 15.0308C23.4887 16.6857 24.4746 18.3048 25.4606 19.8893L31.3774 19.9429V5.04561L28.1237 4.6319C28.1237 8.02746 28.1237 11.423 28.1237 14.8186C27.7295 14.7995 27.3342 14.7804 26.9401 14.7614C26.5459 14.1187 26.1518 13.4713 25.7565 12.818V4.33145C24.6723 4.19314 23.587 4.05604 22.5028 3.91773V15.0296V15.0308ZM32.3247 5.16603V19.9513C33.4089 19.9608 34.4942 19.9715 35.5784 19.9811V14.5265C36.3667 15.7331 37.1561 16.9158 37.9444 18.077V20.0025C39.0286 20.0121 40.1139 20.0228 41.1981 20.0324V6.29391C40.1139 6.15561 39.0286 6.0185 37.9444 5.8802V11.2299C37.1561 10.0233 36.3667 8.79528 35.5784 7.5434V5.57975C34.4942 5.44144 33.4089 5.30433 32.3247 5.16603ZM46.5839 11.3455C46.1898 11.311 45.7956 11.2764 45.4003 11.2418V6.82805C44.3161 6.68974 43.2308 6.55263 42.1466 6.41433V20.0407C43.2308 20.0502 44.3161 20.061 45.4003 20.0705V15.6567C45.7944 15.6758 46.1886 15.6949 46.5839 15.714C46.978 16.2624 47.3733 16.8049 47.7675 17.3426V20.092C48.8517 20.1015 49.937 20.1122 51.0212 20.1218V15.9286C50.4785 15.2037 49.937 14.4681 49.3943 13.7217C49.937 13.0493 50.4785 12.3876 51.0212 11.7354V7.54221C49.937 7.40391 48.8517 7.2668 47.7675 7.1285V9.87785C47.3733 10.3619 46.978 10.8507 46.5839 11.3455ZM56.4058 12.2075C57.8853 12.3375 59.3636 12.4674 60.8431 12.5974V8.79051C58.8712 8.54013 56.8994 8.28976 54.9263 8.03819C53.9404 9.13746 52.9545 10.2713 51.9685 11.4409C51.9685 14.3369 51.9685 17.2341 51.9685 20.1301C54.9263 20.1575 57.8853 20.1838 60.8431 20.2112V14.5014C59.7589 14.4275 58.6736 14.3536 57.5894 14.2797V16.2469C56.8011 16.2088 56.0117 16.1706 55.2234 16.1325C55.2234 15.2776 55.2234 14.424 55.2234 13.5691C55.6175 13.1101 56.0117 12.6558 56.407 12.2087L56.4058 12.2075ZM64.7494 9.28649C63.7635 10.2677 62.7775 11.2847 61.7916 12.3375C61.7916 14.9652 61.7916 17.5918 61.7916 20.2195C62.8758 20.2291 63.9611 20.2398 65.0453 20.2493V18.4288C65.8336 18.4514 66.623 18.4741 67.4113 18.4967V20.2708C68.4955 20.2803 69.5808 20.2911 70.665 20.3006V10.0388L64.7482 9.28649H64.7494ZM67.4113 14.9474C66.623 14.8937 65.8336 14.84 65.0453 14.7864V14.2892C65.4394 13.8767 65.8336 13.4701 66.2289 13.0683C66.623 13.1029 67.0183 13.1375 67.4125 13.1721V14.9462L67.4113 14.9474ZM18.2994 22.3573V38.7974C19.3836 38.6591 20.4689 38.522 21.5531 38.3837C21.5531 36.2757 21.5531 34.1666 21.5531 32.0587C22.0958 32.9064 22.6373 33.7446 23.1799 34.572C23.7226 33.6361 24.2641 32.7109 24.8068 31.7964V37.9699C25.891 37.8316 26.9763 37.6945 28.0605 37.5562V22.2678C26.9763 22.2774 25.891 22.2881 24.8068 22.2977V24.1969C24.2641 25.0804 23.7226 25.9746 23.1799 26.8795C22.6373 26.0211 22.0958 25.1531 21.5531 24.2732C21.5531 23.6246 21.5531 22.976 21.5531 22.3275C20.4689 22.337 19.3836 22.3477 18.2994 22.3573ZM38.3023 22.1749C35.3679 22.2011 32.4335 22.2285 29.4979 22.2547V27.2944C30.0406 28.1075 30.5821 28.9111 31.1247 29.704C30.5821 30.5696 30.0406 31.4471 29.4979 32.3341V37.3738C32.4323 37.0006 35.3667 36.6275 38.3023 36.2555V31.5627C36.8462 31.6903 35.3913 31.8179 33.9352 31.9454C34.4778 31.087 35.0193 30.2393 35.562 29.4023C35.0193 28.6393 34.4778 27.8655 33.9352 27.081C35.3913 27.0107 36.8462 26.9403 38.3023 26.87V22.1772V22.1749ZM64.2909 21.9388C59.035 21.9865 53.779 22.0342 48.5218 22.0819C45.0003 22.0747 42.1466 25.1507 42.1466 28.9529C42.1466 32.755 45.0003 35.4423 48.5218 34.9559C53.7778 34.2882 59.0338 33.6206 64.2909 32.9517C67.8125 32.4653 70.1457 30.076 70.1457 27.2813C70.1457 24.4866 67.8113 21.9447 64.2909 21.9388ZM54.4772 28.4581C54.4632 28.6274 54.4503 28.7967 54.4363 28.9672C54.4339 28.966 54.4316 28.9648 54.4304 28.9648C54.4304 28.9648 54.4293 28.9648 54.4281 28.9648C54.2831 31.1574 51.2914 31.8954 50.868 29.4691C50.7534 28.8122 50.9112 28.1493 51.2551 27.6545C50.3779 27.2682 49.5008 26.8628 48.6201 26.4288C48.6984 26.1713 48.7768 25.9186 48.8552 25.6658C50.751 26.5218 52.6398 27.2801 54.5181 27.9454C54.5053 28.1159 54.4912 28.2864 54.4772 28.4557V28.4581ZM61.946 28.6C61.5226 30.8271 58.5309 30.7818 58.3859 28.6631C58.3859 28.6631 58.3859 28.6631 58.3835 28.6631C58.3824 28.6631 58.38 28.6643 58.3777 28.6655C58.3648 28.5034 58.3508 28.3424 58.3367 28.1815C58.3227 28.0193 58.3098 27.8584 58.2958 27.695C60.1753 26.8092 62.0629 25.9174 63.9588 25.0315C64.0372 25.2425 64.1155 25.4536 64.1939 25.667C63.3132 26.1189 62.4349 26.5671 61.5589 27.019C61.9015 27.4256 62.0606 27.9943 61.946 28.6Z" fill="black"/>
</svg>
