<svg width="31" height="41" viewBox="0 0 31 41" fill="none" xmlns="http://www.w3.org/2000/svg">
<path d="M15.7307 41C24.0661 41 30.8304 36 30.8304 27.5652C30.8304 19.6957 24.9389 14.1739 15.7307 14.1739V20C11.4975 20 8.35536 18.1304 8.35536 14.3043C8.35536 10.4783 11.0611 8.21739 15.9489 8.21739C19.9638 8.21739 22.3641 9.86957 22.9751 12.0435H30.394C29.8267 5.95652 24.0661 1 15.7743 1C7.00249 1 0.761845 6.47826 0.761845 14.4783C0.761845 22.4783 7.26434 27.3043 15.7307 27.3043V21.7826C20.2257 21.7826 23.3242 23.7826 23.3242 27.7391C23.3242 31.6522 20.182 33.8696 15.7743 33.8696C11.803 33.8696 9.05362 32.1304 8.22444 29.7391H0.5C1.59102 36.0435 7.39526 41 15.7307 41Z" fill="white" stroke="white"/>
</svg>
