<svg width="17" height="16" viewBox="0 0 17 16" fill="none" xmlns="http://www.w3.org/2000/svg">
<g clip-path="url(#clip0_39_27393)">
<path d="M1.95455 2.90909H0.5V4.36363H1.95455V2.90909Z" fill="#74EFA9"/>
<path d="M3.40914 1.45454H1.95459V2.90909H3.40914V1.45454Z" fill="#74EFA9"/>
<path d="M4.86373 0H3.40918V1.45455H4.86373V0Z" fill="#74EFA9"/>
<path d="M6.31807 0H4.86353V1.45455H6.31807V0Z" fill="#74EFA9"/>
<path d="M7.77266 1.45454H6.31812V2.90909H7.77266V1.45454Z" fill="#74EFA9"/>
<path d="M9.22725 2.90909H7.77271V4.36363H9.22725V2.90909Z" fill="#74EFA9"/>
<path d="M1.95455 4.36363H0.5V5.81818H1.95455V4.36363Z" fill="#74EFA9"/>
<path d="M1.95455 5.81818H0.5V7.27272H1.95455V5.81818Z" fill="#74EFA9"/>
<path d="M1.95455 7.27272H0.5V8.72727H1.95455V7.27272Z" fill="#74EFA9"/>
<path d="M3.40914 8.72728H1.95459V10.1818H3.40914V8.72728Z" fill="#74EFA9"/>
<path d="M4.86373 10.1818H3.40918V11.6364H4.86373V10.1818Z" fill="#74EFA9"/>
<path d="M6.31807 11.6364H4.86353V13.0909H6.31807V11.6364Z" fill="#74EFA9"/>
<path d="M7.77266 13.0909H6.31812V14.5455H7.77266V13.0909Z" fill="#74EFA9"/>
<path d="M16.5 2.90909H15.0454V4.36363H16.5V2.90909Z" fill="#74EFA9"/>
<path d="M15.0454 1.45454H13.5908V2.90909H15.0454V1.45454Z" fill="#74EFA9"/>
<path d="M13.591 0H12.1365V1.45455H13.591V0Z" fill="#74EFA9"/>
<path d="M12.1364 0H10.6819V1.45455H12.1364V0Z" fill="#74EFA9"/>
<path d="M10.6818 1.45454H9.22729V2.90909H10.6818V1.45454Z" fill="#74EFA9"/>
<path d="M16.5 4.36363H15.0454V5.81818H16.5V4.36363Z" fill="#74EFA9"/>
<path d="M16.5 5.81818H15.0454V7.27272H16.5V5.81818Z" fill="#74EFA9"/>
<path d="M16.5 7.27272H15.0454V8.72727H16.5V7.27272Z" fill="#74EFA9"/>
<path d="M15.0454 8.72728H13.5908V10.1818H15.0454V8.72728Z" fill="#74EFA9"/>
<path d="M13.591 10.1818H12.1365V11.6364H13.591V10.1818Z" fill="#74EFA9"/>
<path d="M12.1364 11.6364H10.6819V13.0909H12.1364V11.6364Z" fill="#74EFA9"/>
<path d="M10.6818 13.0909H9.22729V14.5455H10.6818V13.0909Z" fill="#74EFA9"/>
<path d="M9.22725 14.5455H7.77271V16H9.22725V14.5455Z" fill="#74EFA9"/>
<path d="M3.40914 2.90909H1.95459V4.36363H3.40914V2.90909Z" fill="#FF3B3B"/>
<path d="M3.40914 4.36363H1.95459V5.81818H3.40914V4.36363Z" fill="#FF3B3B"/>
<path d="M3.40914 5.81818H1.95459V7.27272H3.40914V5.81818Z" fill="#FF3B3B"/>
<path d="M3.40914 7.27272H1.95459V8.72727H3.40914V7.27272Z" fill="#FF3B3B"/>
<path d="M4.86373 2.90909H3.40918V4.36363H4.86373V2.90909Z" fill="#FF3B3B"/>
<path d="M4.86373 4.36363H3.40918V5.81818H4.86373V4.36363Z" fill="#FF3B3B"/>
<path d="M4.86373 5.81818H3.40918V7.27272H4.86373V5.81818Z" fill="#FF3B3B"/>
<path d="M4.86373 7.27272H3.40918V8.72727H4.86373V7.27272Z" fill="#FF3B3B"/>
<path d="M6.31807 2.90909H4.86353V4.36363H6.31807V2.90909Z" fill="#FF3B3B"/>
<path d="M4.86373 1.45454H3.40918V2.90909H4.86373V1.45454Z" fill="#FF3B3B"/>
<path d="M6.31807 1.45454H4.86353V2.90909H6.31807V1.45454Z" fill="#FF3B3B"/>
<path d="M12.1364 1.45454H10.6819V2.90909H12.1364V1.45454Z" fill="#FF3B3B"/>
<path d="M13.591 1.45454H12.1365V2.90909H13.591V1.45454Z" fill="#FF3B3B"/>
<path d="M6.31807 4.36363H4.86353V5.81818H6.31807V4.36363Z" fill="#FF3B3B"/>
<path d="M4.86373 4.36363H3.40918V5.81818H4.86373V4.36363Z" fill="white"/>
<path d="M6.31807 2.90909H4.86353V4.36363H6.31807V2.90909Z" fill="white"/>
<path d="M6.31807 4.36363H4.86353V5.81818H6.31807V4.36363Z" fill="white"/>
<path d="M6.31807 5.81818H4.86353V7.27272H6.31807V5.81818Z" fill="#FF3B3B"/>
<path d="M6.31807 7.27272H4.86353V8.72727H6.31807V7.27272Z" fill="#FF3B3B"/>
<path d="M7.77266 2.90909H6.31812V4.36363H7.77266V2.90909Z" fill="#FF3B3B"/>
<path d="M7.77266 4.36363H6.31812V5.81818H7.77266V4.36363Z" fill="#FF3B3B"/>
<path d="M7.77266 5.81818H6.31812V7.27272H7.77266V5.81818Z" fill="#FF3B3B"/>
<path d="M7.77266 7.27272H6.31812V8.72727H7.77266V7.27272Z" fill="#FF3B3B"/>
<path d="M9.22725 4.36363H7.77271V5.81818H9.22725V4.36363Z" fill="#FF3B3B"/>
<path d="M9.22725 5.81818H7.77271V7.27272H9.22725V5.81818Z" fill="#FF3B3B"/>
<path d="M9.22725 7.27272H7.77271V8.72727H9.22725V7.27272Z" fill="#FF3B3B"/>
<path d="M10.6818 2.90909H9.22729V4.36363H10.6818V2.90909Z" fill="#FF3B3B"/>
<path d="M10.6818 4.36363H9.22729V5.81818H10.6818V4.36363Z" fill="#FF3B3B"/>
<path d="M10.6818 5.81818H9.22729V7.27272H10.6818V5.81818Z" fill="#FF3B3B"/>
<path d="M10.6818 7.27272H9.22729V8.72727H10.6818V7.27272Z" fill="#FF3B3B"/>
<path d="M12.1364 2.90909H10.6819V4.36363H12.1364V2.90909Z" fill="#FF3B3B"/>
<path d="M12.1364 4.36363H10.6819V5.81818H12.1364V4.36363Z" fill="#FF3B3B"/>
<path d="M12.1364 5.81818H10.6819V7.27272H12.1364V5.81818Z" fill="#FF3B3B"/>
<path d="M12.1364 7.27272H10.6819V8.72727H12.1364V7.27272Z" fill="#FF3B3B"/>
<path d="M13.591 2.90909H12.1365V4.36363H13.591V2.90909Z" fill="#FF3B3B"/>
<path d="M13.591 4.36363H12.1365V5.81818H13.591V4.36363Z" fill="#FF3B3B"/>
<path d="M13.591 5.81818H12.1365V7.27272H13.591V5.81818Z" fill="#FF3B3B"/>
<path d="M13.591 7.27272H12.1365V8.72727H13.591V7.27272Z" fill="#FF3B3B"/>
<path d="M4.86373 8.72728H3.40918V10.1818H4.86373V8.72728Z" fill="#FF3B3B"/>
<path d="M6.31807 8.72728H4.86353V10.1818H6.31807V8.72728Z" fill="#FF3B3B"/>
<path d="M7.77266 8.72728H6.31812V10.1818H7.77266V8.72728Z" fill="#FF3B3B"/>
<path d="M9.22725 8.72728H7.77271V10.1818H9.22725V8.72728Z" fill="#FF3B3B"/>
<path d="M10.6818 8.72728H9.22729V10.1818H10.6818V8.72728Z" fill="#FF3B3B"/>
<path d="M12.1364 8.72728H10.6819V10.1818H12.1364V8.72728Z" fill="#FF3B3B"/>
<path d="M6.31807 10.1818H4.86353V11.6364H6.31807V10.1818Z" fill="#FF3B3B"/>
<path d="M7.77266 10.1818H6.31812V11.6364H7.77266V10.1818Z" fill="#FF3B3B"/>
<path d="M9.22725 10.1818H7.77271V11.6364H9.22725V10.1818Z" fill="#FF3B3B"/>
<path d="M10.6818 10.1818H9.22729V11.6364H10.6818V10.1818Z" fill="#FF3B3B"/>
<path d="M7.77266 11.6364H6.31812V13.0909H7.77266V11.6364Z" fill="#FF3B3B"/>
<path d="M9.22725 11.6364H7.77271V13.0909H9.22725V11.6364Z" fill="#FF3B3B"/>
<path d="M9.22725 13.0909H7.77271V14.5455H9.22725V13.0909Z" fill="#FF3B3B"/>
<path d="M10.6818 11.6364H9.22729V13.0909H10.6818V11.6364Z" fill="#FF3B3B"/>
<path d="M12.1364 10.1818H10.6819V11.6364H12.1364V10.1818Z" fill="#FF3B3B"/>
<path d="M13.591 8.72728H12.1365V10.1818H13.591V8.72728Z" fill="#FF3B3B"/>
<path d="M15.0454 2.90909H13.5908V4.36363H15.0454V2.90909Z" fill="#FF3B3B"/>
<path d="M15.0454 4.36363H13.5908V5.81818H15.0454V4.36363Z" fill="#FF3B3B"/>
<path d="M15.0454 5.81818H13.5908V7.27272H15.0454V5.81818Z" fill="#FF3B3B"/>
<path d="M15.0454 7.27272H13.5908V8.72727H15.0454V7.27272Z" fill="#FF3B3B"/>
</g>
<defs>
<clipPath id="clip0_39_27393">
<rect width="16" height="16" fill="white" transform="translate(0.5)"/>
</clipPath>
</defs>
</svg>
