<svg width="16" height="16" viewBox="0 0 16 16" fill="none" xmlns="http://www.w3.org/2000/svg">
<g clip-path="url(#clip0_39_28030)">
<path d="M1.45455 2.90909H0V4.36363H1.45455V2.90909Z" fill="#74EFA9"/>
<path d="M2.90914 1.45454H1.45459V2.90909H2.90914V1.45454Z" fill="#74EFA9"/>
<path d="M4.3636 0H2.90906V1.45455H4.3636V0Z" fill="#74EFA9"/>
<path d="M5.81819 0H4.36365V1.45455H5.81819V0Z" fill="#74EFA9"/>
<path d="M7.27278 1.45454H5.81824V2.90909H7.27278V1.45454Z" fill="#74EFA9"/>
<path d="M8.72725 2.90909H7.27271V4.36363H8.72725V2.90909Z" fill="#74EFA9"/>
<path d="M1.45455 4.36363H0V5.81818H1.45455V4.36363Z" fill="#74EFA9"/>
<path d="M1.45455 5.81818H0V7.27272H1.45455V5.81818Z" fill="#74EFA9"/>
<path d="M1.45455 7.27272H0V8.72727H1.45455V7.27272Z" fill="#74EFA9"/>
<path d="M2.90914 8.72728H1.45459V10.1818H2.90914V8.72728Z" fill="#74EFA9"/>
<path d="M4.3636 10.1818H2.90906V11.6364H4.3636V10.1818Z" fill="#74EFA9"/>
<path d="M5.81819 11.6364H4.36365V13.0909H5.81819V11.6364Z" fill="#74EFA9"/>
<path d="M7.27278 13.0909H5.81824V14.5455H7.27278V13.0909Z" fill="#74EFA9"/>
<path d="M16 2.90909H14.5454V4.36363H16V2.90909Z" fill="#74EFA9"/>
<path d="M14.5455 1.45454H13.0909V2.90909H14.5455V1.45454Z" fill="#74EFA9"/>
<path d="M13.0909 0H11.6364V1.45455H13.0909V0Z" fill="#74EFA9"/>
<path d="M11.6363 0H10.1818V1.45455H11.6363V0Z" fill="#74EFA9"/>
<path d="M10.1818 1.45454H8.72729V2.90909H10.1818V1.45454Z" fill="#74EFA9"/>
<path d="M16 4.36363H14.5454V5.81818H16V4.36363Z" fill="#74EFA9"/>
<path d="M16 5.81818H14.5454V7.27272H16V5.81818Z" fill="#74EFA9"/>
<path d="M16 7.27272H14.5454V8.72727H16V7.27272Z" fill="#74EFA9"/>
<path d="M14.5455 8.72728H13.0909V10.1818H14.5455V8.72728Z" fill="#74EFA9"/>
<path d="M13.0909 10.1818H11.6364V11.6364H13.0909V10.1818Z" fill="#74EFA9"/>
<path d="M11.6363 11.6364H10.1818V13.0909H11.6363V11.6364Z" fill="#74EFA9"/>
<path d="M10.1818 13.0909H8.72729V14.5455H10.1818V13.0909Z" fill="#74EFA9"/>
<path d="M8.72725 14.5455H7.27271V16H8.72725V14.5455Z" fill="#74EFA9"/>
<path d="M2.90914 2.90909H1.45459V4.36363H2.90914V2.90909Z" fill="#FF3B3B"/>
<path d="M2.90914 4.36363H1.45459V5.81818H2.90914V4.36363Z" fill="#FF3B3B"/>
<path d="M2.90914 5.81818H1.45459V7.27272H2.90914V5.81818Z" fill="#FF3B3B"/>
<path d="M2.90914 7.27272H1.45459V8.72727H2.90914V7.27272Z" fill="#FF3B3B"/>
<path d="M4.3636 2.90909H2.90906V4.36363H4.3636V2.90909Z" fill="#FF3B3B"/>
<path d="M4.3636 4.36363H2.90906V5.81818H4.3636V4.36363Z" fill="#FF3B3B"/>
<path d="M4.3636 5.81818H2.90906V7.27272H4.3636V5.81818Z" fill="#FF3B3B"/>
<path d="M4.3636 7.27272H2.90906V8.72727H4.3636V7.27272Z" fill="#FF3B3B"/>
<path d="M5.81819 2.90909H4.36365V4.36363H5.81819V2.90909Z" fill="#FF3B3B"/>
<path d="M4.3636 1.45454H2.90906V2.90909H4.3636V1.45454Z" fill="#FF3B3B"/>
<path d="M5.81819 1.45454H4.36365V2.90909H5.81819V1.45454Z" fill="#FF3B3B"/>
<path d="M11.6363 1.45454H10.1818V2.90909H11.6363V1.45454Z" fill="#FF3B3B"/>
<path d="M13.0909 1.45454H11.6364V2.90909H13.0909V1.45454Z" fill="#FF3B3B"/>
<path d="M5.81819 4.36363H4.36365V5.81818H5.81819V4.36363Z" fill="#FF3B3B"/>
<path d="M4.3636 4.36363H2.90906V5.81818H4.3636V4.36363Z" fill="white"/>
<path d="M5.81819 2.90909H4.36365V4.36363H5.81819V2.90909Z" fill="white"/>
<path d="M5.81819 4.36363H4.36365V5.81818H5.81819V4.36363Z" fill="white"/>
<path d="M5.81819 5.81818H4.36365V7.27272H5.81819V5.81818Z" fill="#FF3B3B"/>
<path d="M5.81819 7.27272H4.36365V8.72727H5.81819V7.27272Z" fill="#FF3B3B"/>
<path d="M7.27278 2.90909H5.81824V4.36363H7.27278V2.90909Z" fill="#FF3B3B"/>
<path d="M7.27278 4.36363H5.81824V5.81818H7.27278V4.36363Z" fill="#FF3B3B"/>
<path d="M7.27278 5.81818H5.81824V7.27272H7.27278V5.81818Z" fill="#FF3B3B"/>
<path d="M7.27278 7.27272H5.81824V8.72727H7.27278V7.27272Z" fill="#FF3B3B"/>
<path d="M8.72725 4.36363H7.27271V5.81818H8.72725V4.36363Z" fill="#FF3B3B"/>
<path d="M8.72725 5.81818H7.27271V7.27272H8.72725V5.81818Z" fill="#FF3B3B"/>
<path d="M8.72725 7.27272H7.27271V8.72727H8.72725V7.27272Z" fill="#FF3B3B"/>
<path d="M10.1818 2.90909H8.72729V4.36363H10.1818V2.90909Z" fill="#FF3B3B"/>
<path d="M10.1818 4.36363H8.72729V5.81818H10.1818V4.36363Z" fill="#FF3B3B"/>
<path d="M10.1818 5.81818H8.72729V7.27272H10.1818V5.81818Z" fill="#FF3B3B"/>
<path d="M10.1818 7.27272H8.72729V8.72727H10.1818V7.27272Z" fill="#FF3B3B"/>
<path d="M11.6363 2.90909H10.1818V4.36363H11.6363V2.90909Z" fill="#FF3B3B"/>
<path d="M11.6363 4.36363H10.1818V5.81818H11.6363V4.36363Z" fill="#FF3B3B"/>
<path d="M11.6363 5.81818H10.1818V7.27272H11.6363V5.81818Z" fill="#FF3B3B"/>
<path d="M11.6363 7.27272H10.1818V8.72727H11.6363V7.27272Z" fill="#FF3B3B"/>
<path d="M13.0909 2.90909H11.6364V4.36363H13.0909V2.90909Z" fill="#FF3B3B"/>
<path d="M13.0909 4.36363H11.6364V5.81818H13.0909V4.36363Z" fill="#FF3B3B"/>
<path d="M13.0909 5.81818H11.6364V7.27272H13.0909V5.81818Z" fill="#FF3B3B"/>
<path d="M13.0909 7.27272H11.6364V8.72727H13.0909V7.27272Z" fill="#FF3B3B"/>
<path d="M4.3636 8.72728H2.90906V10.1818H4.3636V8.72728Z" fill="#FF3B3B"/>
<path d="M5.81819 8.72728H4.36365V10.1818H5.81819V8.72728Z" fill="#FF3B3B"/>
<path d="M7.27278 8.72728H5.81824V10.1818H7.27278V8.72728Z" fill="#FF3B3B"/>
<path d="M8.72725 8.72728H7.27271V10.1818H8.72725V8.72728Z" fill="#FF3B3B"/>
<path d="M10.1818 8.72728H8.72729V10.1818H10.1818V8.72728Z" fill="#FF3B3B"/>
<path d="M11.6363 8.72728H10.1818V10.1818H11.6363V8.72728Z" fill="#FF3B3B"/>
<path d="M5.81819 10.1818H4.36365V11.6364H5.81819V10.1818Z" fill="#FF3B3B"/>
<path d="M7.27278 10.1818H5.81824V11.6364H7.27278V10.1818Z" fill="#FF3B3B"/>
<path d="M8.72725 10.1818H7.27271V11.6364H8.72725V10.1818Z" fill="#FF3B3B"/>
<path d="M10.1818 10.1818H8.72729V11.6364H10.1818V10.1818Z" fill="#FF3B3B"/>
<path d="M7.27278 11.6364H5.81824V13.0909H7.27278V11.6364Z" fill="#FF3B3B"/>
<path d="M8.72725 11.6364H7.27271V13.0909H8.72725V11.6364Z" fill="#FF3B3B"/>
<path d="M8.72725 13.0909H7.27271V14.5455H8.72725V13.0909Z" fill="#FF3B3B"/>
<path d="M10.1818 11.6364H8.72729V13.0909H10.1818V11.6364Z" fill="#FF3B3B"/>
<path d="M11.6363 10.1818H10.1818V11.6364H11.6363V10.1818Z" fill="#FF3B3B"/>
<path d="M13.0909 8.72728H11.6364V10.1818H13.0909V8.72728Z" fill="#FF3B3B"/>
<path d="M14.5455 2.90909H13.0909V4.36363H14.5455V2.90909Z" fill="#FF3B3B"/>
<path d="M14.5455 4.36363H13.0909V5.81818H14.5455V4.36363Z" fill="#FF3B3B"/>
<path d="M14.5455 5.81818H13.0909V7.27272H14.5455V5.81818Z" fill="#FF3B3B"/>
<path d="M14.5455 7.27272H13.0909V8.72727H14.5455V7.27272Z" fill="#FF3B3B"/>
</g>
<defs>
<clipPath id="clip0_39_28030">
<rect width="16" height="16" fill="white"/>
</clipPath>
</defs>
</svg>
