<svg width="17" height="16" viewBox="0 0 17 16" fill="none" xmlns="http://www.w3.org/2000/svg">
<g clip-path="url(#clip0_39_27571)">
<path d="M1.95455 2.90909H0.5V4.36363H1.95455V2.90909Z" fill="#74EFA9"/>
<path d="M3.40914 1.45456H1.95459V2.9091H3.40914V1.45456Z" fill="#74EFA9"/>
<path d="M4.8636 0H3.40906V1.45455H4.8636V0Z" fill="#74EFA9"/>
<path d="M6.31819 0H4.86365V1.45455H6.31819V0Z" fill="#74EFA9"/>
<path d="M7.77278 1.45456H6.31824V2.9091H7.77278V1.45456Z" fill="#74EFA9"/>
<path d="M9.22725 2.90909H7.77271V4.36363H9.22725V2.90909Z" fill="#74EFA9"/>
<path d="M1.95455 4.36365H0.5V5.81819H1.95455V4.36365Z" fill="#74EFA9"/>
<path d="M1.95455 5.81818H0.5V7.27272H1.95455V5.81818Z" fill="#74EFA9"/>
<path d="M1.95455 7.27274H0.5V8.72728H1.95455V7.27274Z" fill="#74EFA9"/>
<path d="M3.40914 8.72726H1.95459V10.1818H3.40914V8.72726Z" fill="#74EFA9"/>
<path d="M4.8636 10.1818H3.40906V11.6364H4.8636V10.1818Z" fill="#74EFA9"/>
<path d="M6.31819 11.6364H4.86365V13.0909H6.31819V11.6364Z" fill="#74EFA9"/>
<path d="M7.77278 13.0909H6.31824V14.5455H7.77278V13.0909Z" fill="#74EFA9"/>
<path d="M16.5 2.90909H15.0454V4.36363H16.5V2.90909Z" fill="#74EFA9"/>
<path d="M15.0455 1.45456H13.5909V2.9091H15.0455V1.45456Z" fill="#74EFA9"/>
<path d="M13.5909 0H12.1364V1.45455H13.5909V0Z" fill="#74EFA9"/>
<path d="M12.1363 0H10.6818V1.45455H12.1363V0Z" fill="#74EFA9"/>
<path d="M10.6818 1.45456H9.22729V2.9091H10.6818V1.45456Z" fill="#74EFA9"/>
<path d="M16.5 4.36365H15.0454V5.81819H16.5V4.36365Z" fill="#74EFA9"/>
<path d="M16.5 5.81818H15.0454V7.27272H16.5V5.81818Z" fill="#74EFA9"/>
<path d="M16.5 7.27274H15.0454V8.72728H16.5V7.27274Z" fill="#74EFA9"/>
<path d="M15.0455 8.72726H13.5909V10.1818H15.0455V8.72726Z" fill="#74EFA9"/>
<path d="M13.5909 10.1818H12.1364V11.6364H13.5909V10.1818Z" fill="#74EFA9"/>
<path d="M12.1363 11.6364H10.6818V13.0909H12.1363V11.6364Z" fill="#74EFA9"/>
<path d="M10.6818 13.0909H9.22729V14.5455H10.6818V13.0909Z" fill="#74EFA9"/>
<path d="M9.22725 14.5454H7.77271V16H9.22725V14.5454Z" fill="#74EFA9"/>
<path d="M3.40914 2.90909H1.95459V4.36363H3.40914V2.90909Z" fill="#FF3B3B"/>
<path d="M3.40914 4.36365H1.95459V5.81819H3.40914V4.36365Z" fill="#FF3B3B"/>
<path d="M3.40914 5.81818H1.95459V7.27272H3.40914V5.81818Z" fill="#FF3B3B"/>
<path d="M3.40914 7.27274H1.95459V8.72728H3.40914V7.27274Z" fill="#FF3B3B"/>
<path d="M4.8636 2.90909H3.40906V4.36363H4.8636V2.90909Z" fill="#FF3B3B"/>
<path d="M4.8636 4.36365H3.40906V5.81819H4.8636V4.36365Z" fill="#FF3B3B"/>
<path d="M4.8636 5.81818H3.40906V7.27272H4.8636V5.81818Z" fill="#FF3B3B"/>
<path d="M4.8636 7.27274H3.40906V8.72728H4.8636V7.27274Z" fill="#FF3B3B"/>
<path d="M6.31819 2.90909H4.86365V4.36363H6.31819V2.90909Z" fill="#FF3B3B"/>
<path d="M4.8636 1.45456H3.40906V2.9091H4.8636V1.45456Z" fill="#FF3B3B"/>
<path d="M6.31819 1.45456H4.86365V2.9091H6.31819V1.45456Z" fill="#FF3B3B"/>
<path d="M12.1363 1.45456H10.6818V2.9091H12.1363V1.45456Z" fill="#FF3B3B"/>
<path d="M13.5909 1.45456H12.1364V2.9091H13.5909V1.45456Z" fill="#FF3B3B"/>
<path d="M6.31819 4.36365H4.86365V5.81819H6.31819V4.36365Z" fill="#FF3B3B"/>
<path d="M4.8636 4.36365H3.40906V5.81819H4.8636V4.36365Z" fill="white"/>
<path d="M6.31819 2.90909H4.86365V4.36363H6.31819V2.90909Z" fill="white"/>
<path d="M6.31819 4.36365H4.86365V5.81819H6.31819V4.36365Z" fill="white"/>
<path d="M6.31819 5.81818H4.86365V7.27272H6.31819V5.81818Z" fill="#FF3B3B"/>
<path d="M6.31819 7.27274H4.86365V8.72728H6.31819V7.27274Z" fill="#FF3B3B"/>
<path d="M7.77278 2.90909H6.31824V4.36363H7.77278V2.90909Z" fill="#FF3B3B"/>
<path d="M7.77278 4.36365H6.31824V5.81819H7.77278V4.36365Z" fill="#FF3B3B"/>
<path d="M7.77278 5.81818H6.31824V7.27272H7.77278V5.81818Z" fill="#FF3B3B"/>
<path d="M7.77278 7.27274H6.31824V8.72728H7.77278V7.27274Z" fill="#FF3B3B"/>
<path d="M9.22725 4.36365H7.77271V5.81819H9.22725V4.36365Z" fill="#FF3B3B"/>
<path d="M9.22725 5.81818H7.77271V7.27272H9.22725V5.81818Z" fill="#FF3B3B"/>
<path d="M9.22725 7.27274H7.77271V8.72728H9.22725V7.27274Z" fill="#FF3B3B"/>
<path d="M10.6818 2.90909H9.22729V4.36363H10.6818V2.90909Z" fill="#FF3B3B"/>
<path d="M10.6818 4.36365H9.22729V5.81819H10.6818V4.36365Z" fill="#FF3B3B"/>
<path d="M10.6818 5.81818H9.22729V7.27272H10.6818V5.81818Z" fill="#FF3B3B"/>
<path d="M10.6818 7.27274H9.22729V8.72728H10.6818V7.27274Z" fill="#FF3B3B"/>
<path d="M12.1363 2.90909H10.6818V4.36363H12.1363V2.90909Z" fill="#FF3B3B"/>
<path d="M12.1363 4.36365H10.6818V5.81819H12.1363V4.36365Z" fill="#FF3B3B"/>
<path d="M12.1363 5.81818H10.6818V7.27272H12.1363V5.81818Z" fill="#FF3B3B"/>
<path d="M12.1363 7.27274H10.6818V8.72728H12.1363V7.27274Z" fill="#FF3B3B"/>
<path d="M13.5909 2.90909H12.1364V4.36363H13.5909V2.90909Z" fill="#FF3B3B"/>
<path d="M13.5909 4.36365H12.1364V5.81819H13.5909V4.36365Z" fill="#FF3B3B"/>
<path d="M13.5909 5.81818H12.1364V7.27272H13.5909V5.81818Z" fill="#FF3B3B"/>
<path d="M13.5909 7.27274H12.1364V8.72728H13.5909V7.27274Z" fill="#FF3B3B"/>
<path d="M4.8636 8.72726H3.40906V10.1818H4.8636V8.72726Z" fill="#FF3B3B"/>
<path d="M6.31819 8.72726H4.86365V10.1818H6.31819V8.72726Z" fill="#FF3B3B"/>
<path d="M7.77278 8.72726H6.31824V10.1818H7.77278V8.72726Z" fill="#FF3B3B"/>
<path d="M9.22725 8.72726H7.77271V10.1818H9.22725V8.72726Z" fill="#FF3B3B"/>
<path d="M10.6818 8.72726H9.22729V10.1818H10.6818V8.72726Z" fill="#FF3B3B"/>
<path d="M12.1363 8.72726H10.6818V10.1818H12.1363V8.72726Z" fill="#FF3B3B"/>
<path d="M6.31819 10.1818H4.86365V11.6364H6.31819V10.1818Z" fill="#FF3B3B"/>
<path d="M7.77278 10.1818H6.31824V11.6364H7.77278V10.1818Z" fill="#FF3B3B"/>
<path d="M9.22725 10.1818H7.77271V11.6364H9.22725V10.1818Z" fill="#FF3B3B"/>
<path d="M10.6818 10.1818H9.22729V11.6364H10.6818V10.1818Z" fill="#FF3B3B"/>
<path d="M7.77278 11.6364H6.31824V13.0909H7.77278V11.6364Z" fill="#FF3B3B"/>
<path d="M9.22725 11.6364H7.77271V13.0909H9.22725V11.6364Z" fill="#FF3B3B"/>
<path d="M9.22725 13.0909H7.77271V14.5455H9.22725V13.0909Z" fill="#FF3B3B"/>
<path d="M10.6818 11.6364H9.22729V13.0909H10.6818V11.6364Z" fill="#FF3B3B"/>
<path d="M12.1363 10.1818H10.6818V11.6364H12.1363V10.1818Z" fill="#FF3B3B"/>
<path d="M13.5909 8.72726H12.1364V10.1818H13.5909V8.72726Z" fill="#FF3B3B"/>
<path d="M15.0455 2.90909H13.5909V4.36363H15.0455V2.90909Z" fill="#FF3B3B"/>
<path d="M15.0455 4.36365H13.5909V5.81819H15.0455V4.36365Z" fill="#FF3B3B"/>
<path d="M15.0455 5.81818H13.5909V7.27272H15.0455V5.81818Z" fill="#FF3B3B"/>
<path d="M15.0455 7.27274H13.5909V8.72728H15.0455V7.27274Z" fill="#FF3B3B"/>
</g>
<defs>
<clipPath id="clip0_39_27571">
<rect width="16" height="16" fill="white" transform="translate(0.5)"/>
</clipPath>
</defs>
</svg>
