<svg width="16" height="16" viewBox="0 0 16 16" fill="none" xmlns="http://www.w3.org/2000/svg">
<g clip-path="url(#clip0_39_11962)">
<path d="M1.45455 2.90909H0V4.36363H1.45455V2.90909Z" fill="#74EFA9"/>
<path d="M2.90914 1.45456H1.45459V2.9091H2.90914V1.45456Z" fill="#74EFA9"/>
<path d="M4.36373 0H2.90918V1.45455H4.36373V0Z" fill="#74EFA9"/>
<path d="M5.81807 0H4.36353V1.45455H5.81807V0Z" fill="#74EFA9"/>
<path d="M7.27266 1.45456H5.81812V2.9091H7.27266V1.45456Z" fill="#74EFA9"/>
<path d="M8.72725 2.90909H7.27271V4.36363H8.72725V2.90909Z" fill="#74EFA9"/>
<path d="M1.45455 4.36365H0V5.81819H1.45455V4.36365Z" fill="#74EFA9"/>
<path d="M1.45455 5.81818H0V7.27272H1.45455V5.81818Z" fill="#74EFA9"/>
<path d="M1.45455 7.27274H0V8.72728H1.45455V7.27274Z" fill="#74EFA9"/>
<path d="M2.90914 8.72726H1.45459V10.1818H2.90914V8.72726Z" fill="#74EFA9"/>
<path d="M4.36373 10.1818H2.90918V11.6364H4.36373V10.1818Z" fill="#74EFA9"/>
<path d="M5.81807 11.6364H4.36353V13.0909H5.81807V11.6364Z" fill="#74EFA9"/>
<path d="M7.27266 13.0909H5.81812V14.5455H7.27266V13.0909Z" fill="#74EFA9"/>
<path d="M16 2.90909H14.5454V4.36363H16V2.90909Z" fill="#74EFA9"/>
<path d="M14.5454 1.45456H13.0908V2.9091H14.5454V1.45456Z" fill="#74EFA9"/>
<path d="M13.091 0H11.6365V1.45455H13.091V0Z" fill="#74EFA9"/>
<path d="M11.6364 0H10.1819V1.45455H11.6364V0Z" fill="#74EFA9"/>
<path d="M10.1818 1.45456H8.72729V2.9091H10.1818V1.45456Z" fill="#74EFA9"/>
<path d="M16 4.36365H14.5454V5.81819H16V4.36365Z" fill="#74EFA9"/>
<path d="M16 5.81818H14.5454V7.27272H16V5.81818Z" fill="#74EFA9"/>
<path d="M16 7.27274H14.5454V8.72728H16V7.27274Z" fill="#74EFA9"/>
<path d="M14.5454 8.72726H13.0908V10.1818H14.5454V8.72726Z" fill="#74EFA9"/>
<path d="M13.091 10.1818H11.6365V11.6364H13.091V10.1818Z" fill="#74EFA9"/>
<path d="M11.6364 11.6364H10.1819V13.0909H11.6364V11.6364Z" fill="#74EFA9"/>
<path d="M10.1818 13.0909H8.72729V14.5455H10.1818V13.0909Z" fill="#74EFA9"/>
<path d="M8.72725 14.5454H7.27271V16H8.72725V14.5454Z" fill="#74EFA9"/>
<path d="M2.90914 2.90909H1.45459V4.36363H2.90914V2.90909Z" fill="#FF3B3B"/>
<path d="M2.90914 4.36365H1.45459V5.81819H2.90914V4.36365Z" fill="#FF3B3B"/>
<path d="M2.90914 5.81818H1.45459V7.27272H2.90914V5.81818Z" fill="#FF3B3B"/>
<path d="M2.90914 7.27274H1.45459V8.72728H2.90914V7.27274Z" fill="#FF3B3B"/>
<path d="M4.36373 2.90909H2.90918V4.36363H4.36373V2.90909Z" fill="#FF3B3B"/>
<path d="M4.36373 4.36365H2.90918V5.81819H4.36373V4.36365Z" fill="#FF3B3B"/>
<path d="M4.36373 5.81818H2.90918V7.27272H4.36373V5.81818Z" fill="#FF3B3B"/>
<path d="M4.36373 7.27274H2.90918V8.72728H4.36373V7.27274Z" fill="#FF3B3B"/>
<path d="M5.81807 2.90909H4.36353V4.36363H5.81807V2.90909Z" fill="#FF3B3B"/>
<path d="M4.36373 1.45456H2.90918V2.9091H4.36373V1.45456Z" fill="#FF3B3B"/>
<path d="M5.81807 1.45456H4.36353V2.9091H5.81807V1.45456Z" fill="#FF3B3B"/>
<path d="M11.6364 1.45456H10.1819V2.9091H11.6364V1.45456Z" fill="#FF3B3B"/>
<path d="M13.091 1.45456H11.6365V2.9091H13.091V1.45456Z" fill="#FF3B3B"/>
<path d="M5.81807 4.36365H4.36353V5.81819H5.81807V4.36365Z" fill="#FF3B3B"/>
<path d="M4.36373 4.36365H2.90918V5.81819H4.36373V4.36365Z" fill="white"/>
<path d="M5.81807 2.90909H4.36353V4.36363H5.81807V2.90909Z" fill="white"/>
<path d="M5.81807 4.36365H4.36353V5.81819H5.81807V4.36365Z" fill="white"/>
<path d="M5.81807 5.81818H4.36353V7.27272H5.81807V5.81818Z" fill="#FF3B3B"/>
<path d="M5.81807 7.27274H4.36353V8.72728H5.81807V7.27274Z" fill="#FF3B3B"/>
<path d="M7.27266 2.90909H5.81812V4.36363H7.27266V2.90909Z" fill="#FF3B3B"/>
<path d="M7.27266 4.36365H5.81812V5.81819H7.27266V4.36365Z" fill="#FF3B3B"/>
<path d="M7.27266 5.81818H5.81812V7.27272H7.27266V5.81818Z" fill="#FF3B3B"/>
<path d="M7.27266 7.27274H5.81812V8.72728H7.27266V7.27274Z" fill="#FF3B3B"/>
<path d="M8.72725 4.36365H7.27271V5.81819H8.72725V4.36365Z" fill="#FF3B3B"/>
<path d="M8.72725 5.81818H7.27271V7.27272H8.72725V5.81818Z" fill="#FF3B3B"/>
<path d="M8.72725 7.27274H7.27271V8.72728H8.72725V7.27274Z" fill="#FF3B3B"/>
<path d="M10.1818 2.90909H8.72729V4.36363H10.1818V2.90909Z" fill="#FF3B3B"/>
<path d="M10.1818 4.36365H8.72729V5.81819H10.1818V4.36365Z" fill="#FF3B3B"/>
<path d="M10.1818 5.81818H8.72729V7.27272H10.1818V5.81818Z" fill="#FF3B3B"/>
<path d="M10.1818 7.27274H8.72729V8.72728H10.1818V7.27274Z" fill="#FF3B3B"/>
<path d="M11.6364 2.90909H10.1819V4.36363H11.6364V2.90909Z" fill="#FF3B3B"/>
<path d="M11.6364 4.36365H10.1819V5.81819H11.6364V4.36365Z" fill="#FF3B3B"/>
<path d="M11.6364 5.81818H10.1819V7.27272H11.6364V5.81818Z" fill="#FF3B3B"/>
<path d="M11.6364 7.27274H10.1819V8.72728H11.6364V7.27274Z" fill="#FF3B3B"/>
<path d="M13.091 2.90909H11.6365V4.36363H13.091V2.90909Z" fill="#FF3B3B"/>
<path d="M13.091 4.36365H11.6365V5.81819H13.091V4.36365Z" fill="#FF3B3B"/>
<path d="M13.091 5.81818H11.6365V7.27272H13.091V5.81818Z" fill="#FF3B3B"/>
<path d="M13.091 7.27274H11.6365V8.72728H13.091V7.27274Z" fill="#FF3B3B"/>
<path d="M4.36373 8.72726H2.90918V10.1818H4.36373V8.72726Z" fill="#FF3B3B"/>
<path d="M5.81807 8.72726H4.36353V10.1818H5.81807V8.72726Z" fill="#FF3B3B"/>
<path d="M7.27266 8.72726H5.81812V10.1818H7.27266V8.72726Z" fill="#FF3B3B"/>
<path d="M8.72725 8.72726H7.27271V10.1818H8.72725V8.72726Z" fill="#FF3B3B"/>
<path d="M10.1818 8.72726H8.72729V10.1818H10.1818V8.72726Z" fill="#FF3B3B"/>
<path d="M11.6364 8.72726H10.1819V10.1818H11.6364V8.72726Z" fill="#FF3B3B"/>
<path d="M5.81807 10.1818H4.36353V11.6364H5.81807V10.1818Z" fill="#FF3B3B"/>
<path d="M7.27266 10.1818H5.81812V11.6364H7.27266V10.1818Z" fill="#FF3B3B"/>
<path d="M8.72725 10.1818H7.27271V11.6364H8.72725V10.1818Z" fill="#FF3B3B"/>
<path d="M10.1818 10.1818H8.72729V11.6364H10.1818V10.1818Z" fill="#FF3B3B"/>
<path d="M7.27266 11.6364H5.81812V13.0909H7.27266V11.6364Z" fill="#FF3B3B"/>
<path d="M8.72725 11.6364H7.27271V13.0909H8.72725V11.6364Z" fill="#FF3B3B"/>
<path d="M8.72725 13.0909H7.27271V14.5455H8.72725V13.0909Z" fill="#FF3B3B"/>
<path d="M10.1818 11.6364H8.72729V13.0909H10.1818V11.6364Z" fill="#FF3B3B"/>
<path d="M11.6364 10.1818H10.1819V11.6364H11.6364V10.1818Z" fill="#FF3B3B"/>
<path d="M13.091 8.72726H11.6365V10.1818H13.091V8.72726Z" fill="#FF3B3B"/>
<path d="M14.5454 2.90909H13.0908V4.36363H14.5454V2.90909Z" fill="#FF3B3B"/>
<path d="M14.5454 4.36365H13.0908V5.81819H14.5454V4.36365Z" fill="#FF3B3B"/>
<path d="M14.5454 5.81818H13.0908V7.27272H14.5454V5.81818Z" fill="#FF3B3B"/>
<path d="M14.5454 7.27274H13.0908V8.72728H14.5454V7.27274Z" fill="#FF3B3B"/>
</g>
<defs>
<clipPath id="clip0_39_11962">
<rect width="16" height="16" fill="white"/>
</clipPath>
</defs>
</svg>
