<svg width="20" height="20" viewBox="0 0 20 20" fill="none" xmlns="http://www.w3.org/2000/svg">
<path d="M16.0584 4.44162C14.9501 3.92496 13.7501 3.54996 12.5001 3.33329C12.4891 3.33294 12.4782 3.335 12.4681 3.33932C12.458 3.34364 12.449 3.35011 12.4417 3.35829C12.2917 3.63329 12.1167 3.99162 12.0001 4.26662C10.6742 4.06662 9.32589 4.06662 8.00006 4.26662C7.88339 3.98329 7.70839 3.63329 7.55006 3.35829C7.54172 3.34162 7.51672 3.33329 7.49172 3.33329C6.24172 3.54996 5.05006 3.92496 3.93339 4.44162C3.92506 4.44162 3.91672 4.44996 3.90839 4.45829C1.64172 7.84996 1.01672 11.15 1.32506 14.4166C1.32506 14.4333 1.33339 14.45 1.35006 14.4583C2.85006 15.5583 4.29172 16.225 5.71672 16.6666C5.74172 16.675 5.76672 16.6666 5.77506 16.65C6.10839 16.1916 6.40839 15.7083 6.66672 15.2C6.68339 15.1666 6.66672 15.1333 6.63339 15.125C6.15839 14.9416 5.70839 14.725 5.26672 14.475C5.23339 14.4583 5.23339 14.4083 5.25839 14.3833C5.35006 14.3166 5.44172 14.2416 5.53339 14.175C5.55006 14.1583 5.57506 14.1583 5.59172 14.1666C8.45839 15.475 11.5501 15.475 14.3834 14.1666C14.4001 14.1583 14.4251 14.1583 14.4417 14.175C14.5334 14.25 14.6251 14.3166 14.7167 14.3916C14.7501 14.4166 14.7501 14.4666 14.7084 14.4833C14.2751 14.7416 13.8167 14.95 13.3417 15.1333C13.3084 15.1416 13.3001 15.1833 13.3084 15.2083C13.5751 15.7166 13.8751 16.2 14.2001 16.6583C14.2251 16.6666 14.2501 16.675 14.2751 16.6666C15.7084 16.225 17.1501 15.5583 18.6501 14.4583C18.6667 14.45 18.6751 14.4333 18.6751 14.4166C19.0417 10.6416 18.0667 7.36662 16.0917 4.45829C16.0834 4.44996 16.0751 4.44162 16.0584 4.44162ZM7.10006 12.425C6.24172 12.425 5.52506 11.6333 5.52506 10.6583C5.52506 9.68329 6.22506 8.89162 7.10006 8.89162C7.98339 8.89162 8.68339 9.69162 8.67506 10.6583C8.67506 11.6333 7.97506 12.425 7.10006 12.425ZM12.9084 12.425C12.0501 12.425 11.3334 11.6333 11.3334 10.6583C11.3334 9.68329 12.0334 8.89162 12.9084 8.89162C13.7917 8.89162 14.4917 9.69162 14.4834 10.6583C14.4834 11.6333 13.7917 12.425 12.9084 12.425Z" fill="#AEF7CE"/>
</svg>
