<svg width="85" height="85" viewBox="0 0 85 85" fill="none" xmlns="http://www.w3.org/2000/svg">
<g clip-path="url(#clip0_7_38569)">
<path d="M30.2288 0V4.20243H21.8239V8.40486H17.6215V12.6073H13.4191V16.8097H9.21663V21.0121H5.0142V29.417H0.811768V54.6316H5.0142V63.0364H9.21663V67.2389H13.4191V71.4413H17.6215V75.6437H21.8239V79.8461H30.2288V84.0486H55.4433V79.8461H63.8482V75.6437H68.0506V71.4413H72.2531V67.2389H76.4555V63.0364H80.6579V54.6316H84.8603V29.417H80.6579V21.0121H76.4555V16.8097H72.2531V12.6073H68.0506V8.40486H63.8482V4.20243H55.4433V0H30.2288Z" fill="#FADE91"/>
<path d="M30.2287 4.20239V8.40482H21.8239V12.6073H17.6214V16.8097H13.419V21.0121H9.21659V29.417H5.01416V54.6315H9.21659V63.0364H13.419V67.2388H17.6214V71.4413H21.8239V75.6437H30.2287V79.8461H55.4433V75.6437H63.8482V71.4413H68.0506V67.2388H72.253V63.0364H76.4555V54.6315H80.6579V29.417H76.4555V21.0121H72.253V16.8097H68.0506V12.6073H63.8482V8.40482H55.4433V4.20239H30.2287Z" fill="#F1C43F"/>
<path d="M30.2288 8.40479V12.6072H21.824V16.8096H17.6215V21.0121H13.4191V29.4169H9.21667V54.6315H13.4191V63.0364H17.6215V67.2388H21.824V71.4412H30.2288V75.6436H55.4434V71.4412H63.8483V67.2388H68.0507V63.0364H72.2531V54.6315H76.4555V29.4169H72.2531V21.0121H68.0507V16.8096H63.8483V12.6072H55.4434V8.40479H30.2288Z" fill="#FADE91"/>
<path d="M30.2288 12.6072V16.8096H21.8239V21.012H17.6215V29.4169H13.4191V54.6315H17.6215V63.0363H21.8239V67.2388H30.2288V71.4412H55.4434V67.2388H63.8482V63.0363H68.0506V54.6315H72.2531V29.4169H68.0506V21.012H63.8482V16.8096H55.4434V12.6072H30.2288Z" fill="#F1C43F"/>
<path d="M30.2287 16.8098V21.0122H21.8239V29.4171H17.6215V54.6317H21.8239V63.0365H30.2287V67.239H55.4433V63.0365H63.8482V54.6317H68.0506V29.4171H63.8482V21.0122H55.4433V16.8098H30.2287Z" fill="#FADE91"/>
</g>
<defs>
<clipPath id="clip0_7_38569">
<rect width="84.0486" height="84.0486" fill="white" transform="translate(0.811768)"/>
</clipPath>
</defs>
</svg>
